M48
;Layer_Color=9474304
;FILE_FORMAT=2:5
INCH,TZ
;TYPE=PLATED
T1F00S00C0.02000
T3F00S00C0.03150
T4F00S00C0.03543
T5F00S00C0.05118
%
T01
X472827Y203788
X498427Y213988
Y222588
X506727Y223688
X510527Y226988
X509727Y246188
X527827Y246088
X531727Y261688
X546027Y249088
X532427Y225688
X532627Y206188
X541327Y209588
X493527Y233388
Y238388
Y243388
X491627Y255888
X475927Y257788
X472827Y298276
X498427Y308476
X532627Y300676
X541327Y304076
X456727Y301776
X424727Y304876
X403400Y305062
X380900Y307162
X382600Y284862
X352900Y292062
X337200Y293962
X335300Y306462
Y311462
X319100Y303662
X330400Y241374
Y232774
X322100Y231674
X318300Y228374
X319100Y209174
X335300Y211974
Y216974
Y221974
X337200Y199474
X352900Y197574
X382600Y190374
X380900Y212674
X403400Y210574
X424727Y210388
X425427Y244788
X404100Y244974
X372100Y248074
X356000Y251574
X447927Y242688
X446227Y264988
X456727Y207288
X301000Y209274
X297100Y193674
X282800Y206274
X296400Y229674
X296200Y249174
X287500Y245774
X297100Y288162
X301000Y303762
X282800Y300762
X296400Y324162
X296200Y343662
X287500Y340262
X297100Y382650
X301000Y398250
X282800Y395250
X296400Y418650
X296200Y438150
X287500Y434750
X330400Y430350
Y421750
X322100Y420650
X318300Y417350
X319100Y398150
X335300Y400950
Y405950
Y410950
X337200Y388450
X352900Y386550
X382600Y379350
X380900Y401650
X403400Y399550
X424727Y399365
X425427Y433765
X404100Y433950
X372100Y437050
X356000Y440550
Y346062
X372100Y342562
X404100Y339462
X425427Y339276
X447927Y337176
X446227Y359476
X456727Y396265
X447927Y431665
X446227Y453965
X330400Y335862
Y327262
X322100Y326162
X318300Y322862
X335300Y316462
X498427Y317076
X506727Y318176
X510527Y321476
X509727Y340676
X527827Y340576
X531727Y356176
X546027Y343576
X532427Y320176
X493527Y327876
Y332876
Y337876
X491627Y350376
X475927Y352276
X472827Y392765
X498427Y402965
Y411565
X506727Y412665
X510527Y415965
X509727Y435165
X527827Y435065
X531727Y450665
X546027Y438065
X532427Y414665
X532627Y395165
X541327Y398565
X493527Y422365
Y427365
Y432365
X491627Y444865
X475927Y446765
X472827Y487253
X498427Y497453
Y506053
X506727Y507153
X510527Y510453
X509727Y529653
X527827Y529553
X531727Y545153
X546027Y532553
X532427Y509153
X532627Y489653
X541327Y493053
X493527Y516853
Y521853
Y526853
X491627Y539353
X475927Y541253
X446227Y548453
X447927Y526153
X425427Y528253
X404100Y528439
X403400Y494039
X424727Y493853
X456727Y490753
X380900Y496139
X382600Y473839
X352900Y481039
X337200Y482939
X335300Y495439
Y500439
Y505439
X330400Y516239
Y524839
X322100Y515139
X318300Y511839
X319100Y492639
X356000Y535039
X372100Y531539
X296200Y532639
X287500Y529239
X296400Y513139
X301000Y492739
X297100Y477139
X282800Y489739
T03
X363163Y192900
Y200774
Y208648
X371037
Y200774
Y192900
Y287388
X363163
Y295262
Y303136
X371037
Y295262
X457790Y262462
X465664
Y254588
Y246714
X457790
Y254588
Y341202
Y349076
X465664
Y341202
Y356950
X457790
Y435690
Y443565
X465664
Y435690
Y451439
X457790
X371037Y397624
Y389750
X363163
Y397624
Y381876
X371037
Y476365
X363163
Y484239
Y492113
X371037
Y484239
X457790Y530179
Y538053
X465664
Y530179
Y545927
X457790
T04
X477427Y189374
X487427
X497427
X507427
X517427
X527427
X537427
X547427
X557427
X567427
X577427
Y283862
X567427
X557427
X547427
X537427
X527427
X517427
X507427
X497427
X487427
X477427
X467427
X457427
X447427
X381400Y265988
X371400
X361400
X351400
X341400
X331400
X321400
X447427Y189374
X457427
X467427
X311400Y265988
X301400
X291400
X281400
X271400
X261400
X251400
Y360476
X261400
X271400
X281400
X291400
X301400
X311400
Y454965
X301400
X291400
X281400
X271400
X261400
X251400
X321400
X331400
X341400
X351400
X361400
X371400
X381400
Y360476
X371400
X361400
X351400
X341400
X331400
X321400
X447427Y378350
X457427
X467427
X477427
X487427
X497427
X507427
X517427
X527427
X537427
X547427
X557427
X567427
X577427
Y472839
X567427
X557427
X547427
X537427
X527427
X517427
X507427
X497427
X487427
X477427
X467427
X457427
X447427
X381400Y549453
X371400
X361400
X351400
X341400
X331400
X321400
X311400
X301400
X291400
X281400
X271400
X261400
X251400
T05
X546358Y217787
Y227787
Y237787
Y312276
X282469Y312063
Y237575
Y227575
Y217575
Y322063
Y332063
Y406551
Y416551
Y426551
X546358Y426764
Y416764
Y406764
Y332276
Y322275
Y501252
Y511252
Y521252
X282469Y521039
Y511039
Y501039
M30
