M48
;Layer_Color=9474304
;FILE_FORMAT=2:5
INCH,TZ
;TYPE=PLATED
T2F00S00C0.02362
%
G90
G05
T02
X574650Y219413G85Y230437
X598272Y229256G85Y220595
X580161Y243823G85X588823
X254177Y235949G85Y224925
X230555Y226106G85Y234768
X248665Y211539G85X240004
X248665Y306028G85X240004
X230555Y320595G85Y329256
X254177Y330437G85Y319413
X248665Y400516G85X240004
X254177Y424925G85Y413902
X230555Y415083G85Y423744
X574650Y408390G85Y419413
X598272Y418232G85Y409571
X580161Y432799G85X588823
X580161Y338311G85X588823
X574650Y313902G85Y324925
X598272Y323744G85Y315083
X598272Y512720G85Y504059
X574650Y502878G85Y513902
X580161Y527287G85X588823
X254177Y519413G85Y508390
X230555Y509571G85Y518232
X248665Y495004G85X240004
M30
