G04*
G04 #@! TF.GenerationSoftware,Altium Limited,Altium Designer,18.0.7 (293)*
G04*
G04 Layer_Color=16711935*
%FSLAX25Y25*%
%MOIN*%
G70*
G01*
G75*
%ADD18C,0.01000*%
%ADD21C,0.00787*%
%ADD53C,0.00600*%
G54D18*
X591061Y547096D02*
X585405Y549924D01*
X591061Y547096D02*
X588233Y552753D01*
X591061Y547096D02*
X572502Y565656D01*
X563370D01*
X607327Y563508D02*
Y551909D01*
X595516Y563508D02*
Y553484D01*
X430161Y563508D02*
Y553484D01*
X418350Y563508D02*
Y551713D01*
X615594Y554453D02*
X604783D01*
X615594Y542642D02*
X606358D01*
X615594Y479650D02*
X606358D01*
X615594Y467839D02*
X604587D01*
X609002Y558956D02*
X606174Y553300D01*
X611831Y556128D02*
X606174Y553300D01*
X617990Y565117D02*
X606174Y553300D01*
X620798Y565117D02*
X617990D01*
X591061Y452608D02*
X585405Y455436D01*
X591061Y452608D02*
X588233Y458265D01*
X591061Y452608D02*
X572502Y471168D01*
X563370D01*
X607327Y469020D02*
Y457421D01*
X595516Y469020D02*
Y458996D01*
X430161Y469020D02*
Y458996D01*
X418350Y469020D02*
Y457224D01*
X615594Y459965D02*
X604783D01*
X615594Y448153D02*
X606358D01*
X615594Y385161D02*
X606358D01*
X615594Y373350D02*
X604587D01*
X609002Y464468D02*
X606174Y458811D01*
X611831Y461640D02*
X606174Y458811D01*
X617990Y470628D02*
X606174Y458811D01*
X620798Y470628D02*
X617990D01*
X591061Y358120D02*
X585405Y360948D01*
X591061Y358120D02*
X588233Y363776D01*
X591061Y358120D02*
X572502Y376680D01*
X563370D01*
X607327Y374532D02*
Y362933D01*
X595516Y374532D02*
Y364508D01*
X430161Y374532D02*
Y364508D01*
X418350Y374532D02*
Y362736D01*
X615594Y365476D02*
X604783D01*
X615594Y353665D02*
X606358D01*
X615594Y290673D02*
X606358D01*
X615594Y278862D02*
X604587D01*
X609002Y369980D02*
X606174Y364323D01*
X611831Y367152D02*
X606174Y364323D01*
X617990Y376140D02*
X606174Y364323D01*
X620798Y376140D02*
X617990D01*
X591061Y263631D02*
X585405Y266460D01*
X591061Y263631D02*
X588233Y269288D01*
X591061Y263631D02*
X572502Y282191D01*
X563370D01*
X607327Y280043D02*
Y268445D01*
X595516Y280043D02*
Y270020D01*
X430161Y280043D02*
Y270020D01*
X418350Y280043D02*
Y268248D01*
X615594Y270988D02*
X604783D01*
X615594Y259177D02*
X606358D01*
X615594Y196185D02*
X606358D01*
X615594Y184374D02*
X604587D01*
X609002Y275492D02*
X606174Y269835D01*
X611831Y272663D02*
X606174Y269835D01*
X617990Y281652D02*
X606174Y269835D01*
X620798Y281652D02*
X617990D01*
X237765Y191731D02*
X243422Y188902D01*
X237765Y191731D02*
X240594Y186074D01*
X237765Y191731D02*
X256325Y173171D01*
X265457D01*
X221500Y175319D02*
Y186917D01*
X233311Y175319D02*
Y185343D01*
X398665Y175319D02*
Y185343D01*
X410476Y175319D02*
Y187114D01*
X213232Y184374D02*
X224043D01*
X213232Y196185D02*
X222468D01*
X213232Y259177D02*
X222468D01*
X213232Y270988D02*
X224240D01*
X219825Y179870D02*
X222653Y185527D01*
X216996Y182699D02*
X222653Y185527D01*
X210836Y173710D02*
X222653Y185527D01*
X208028Y173710D02*
X210836D01*
X237765Y286219D02*
X243422Y283391D01*
X237765Y286219D02*
X240594Y280562D01*
X237765Y286219D02*
X256325Y267659D01*
X265457D01*
X221500Y269807D02*
Y281405D01*
X233311Y269807D02*
Y279831D01*
X398665Y269807D02*
Y279831D01*
X410476Y269807D02*
Y281602D01*
X213232Y278862D02*
X224043D01*
X213232Y290673D02*
X222468D01*
X213232Y353665D02*
X222468D01*
X213232Y365476D02*
X224240D01*
X219825Y274359D02*
X222653Y280015D01*
X216996Y277187D02*
X222653Y280015D01*
X210836Y268198D02*
X222653Y280015D01*
X208028Y268198D02*
X210836D01*
X237765Y380707D02*
X243422Y377879D01*
X237765Y380707D02*
X240594Y375050D01*
X237765Y380707D02*
X256325Y362147D01*
X265457D01*
X221500Y364295D02*
Y375894D01*
X233311Y364295D02*
Y374319D01*
X398665Y364295D02*
Y374319D01*
X410476Y364295D02*
Y376091D01*
X213232Y373350D02*
X224043D01*
X213232Y385161D02*
X222468D01*
X213232Y448153D02*
X222468D01*
X213232Y459965D02*
X224240D01*
X219825Y368847D02*
X222653Y374503D01*
X216996Y371675D02*
X222653Y374503D01*
X210836Y362687D02*
X222653Y374503D01*
X208028Y362687D02*
X210836D01*
X237765Y475195D02*
X243422Y472367D01*
X237765Y475195D02*
X240594Y469539D01*
X237765Y475195D02*
X256325Y456635D01*
X265457D01*
X221500Y458783D02*
Y470382D01*
X233311Y458783D02*
Y468807D01*
X398665Y458783D02*
Y468807D01*
X410476Y458783D02*
Y470579D01*
X213232Y467839D02*
X224043D01*
X213232Y479650D02*
X222468D01*
X213232Y542642D02*
X222468D01*
X213232Y554453D02*
X224240D01*
X219825Y463335D02*
X222653Y468992D01*
X216996Y466163D02*
X222653Y468992D01*
X210836Y457175D02*
X222653Y468992D01*
X208028Y457175D02*
X210836D01*
G54D21*
X589217Y542642D02*
X589294Y541656D01*
X589525Y540695D01*
X589903Y539782D01*
X590420Y538939D01*
X591061Y538188D01*
X591813Y537546D01*
X592656Y537029D01*
X593569Y536651D01*
X594530Y536420D01*
X595516Y536342D01*
X596501Y536420D01*
X597462Y536651D01*
X598376Y537029D01*
X599218Y537546D01*
X599970Y538188D01*
X600612Y538939D01*
X601128Y539782D01*
X601507Y540695D01*
X601737Y541656D01*
X601815Y542642D01*
X601737Y543627D01*
X601507Y544588D01*
X601128Y545502D01*
X600612Y546344D01*
X599970Y547096D01*
X599218Y547738D01*
X598376Y548254D01*
X597462Y548633D01*
X596501Y548863D01*
X595516Y548941D01*
X594530Y548863D01*
X593569Y548633D01*
X592656Y548254D01*
X591813Y547738D01*
X591061Y547096D01*
X590420Y546344D01*
X589903Y545502D01*
X589525Y544588D01*
X589294Y543627D01*
X589217Y542642D01*
X607327Y550516D02*
X607193Y551535D01*
X606799Y552484D01*
X606174Y553300D01*
X605358Y553925D01*
X604409Y554319D01*
X603390Y554453D01*
X589217Y448153D02*
X589294Y447168D01*
X589525Y446207D01*
X589903Y445294D01*
X590420Y444451D01*
X591061Y443699D01*
X591813Y443057D01*
X592656Y442541D01*
X593569Y442163D01*
X594530Y441932D01*
X595516Y441854D01*
X596501Y441932D01*
X597462Y442163D01*
X598376Y442541D01*
X599218Y443057D01*
X599970Y443699D01*
X600612Y444451D01*
X601128Y445294D01*
X601507Y446207D01*
X601737Y447168D01*
X601815Y448153D01*
X601737Y449139D01*
X601507Y450100D01*
X601128Y451013D01*
X600612Y451856D01*
X599970Y452608D01*
X599218Y453250D01*
X598376Y453766D01*
X597462Y454144D01*
X596501Y454375D01*
X595516Y454453D01*
X594530Y454375D01*
X593569Y454144D01*
X592656Y453766D01*
X591813Y453250D01*
X591061Y452608D01*
X590420Y451856D01*
X589903Y451013D01*
X589525Y450100D01*
X589294Y449139D01*
X589217Y448153D01*
X607327Y456028D02*
X607193Y457047D01*
X606799Y457996D01*
X606174Y458811D01*
X605358Y459437D01*
X604409Y459830D01*
X603390Y459965D01*
X589217Y353665D02*
X589294Y352680D01*
X589525Y351719D01*
X589903Y350806D01*
X590420Y349963D01*
X591061Y349211D01*
X591813Y348569D01*
X592656Y348053D01*
X593569Y347674D01*
X594530Y347444D01*
X595516Y347366D01*
X596501Y347444D01*
X597462Y347674D01*
X598376Y348053D01*
X599218Y348569D01*
X599970Y349211D01*
X600612Y349963D01*
X601128Y350806D01*
X601507Y351719D01*
X601737Y352680D01*
X601815Y353665D01*
X601737Y354651D01*
X601507Y355612D01*
X601128Y356525D01*
X600612Y357368D01*
X599970Y358120D01*
X599218Y358762D01*
X598376Y359278D01*
X597462Y359656D01*
X596501Y359887D01*
X595516Y359965D01*
X594530Y359887D01*
X593569Y359656D01*
X592656Y359278D01*
X591813Y358762D01*
X591061Y358120D01*
X590420Y357368D01*
X589903Y356525D01*
X589525Y355612D01*
X589294Y354651D01*
X589217Y353665D01*
X607327Y361539D02*
X607193Y362558D01*
X606799Y363508D01*
X606174Y364323D01*
X605358Y364949D01*
X604409Y365342D01*
X603390Y365476D01*
X589217Y259177D02*
X589294Y258192D01*
X589525Y257231D01*
X589903Y256317D01*
X590420Y255475D01*
X591061Y254723D01*
X591813Y254081D01*
X592656Y253565D01*
X593569Y253186D01*
X594530Y252956D01*
X595516Y252878D01*
X596501Y252956D01*
X597462Y253186D01*
X598376Y253565D01*
X599218Y254081D01*
X599970Y254723D01*
X600612Y255475D01*
X601128Y256317D01*
X601507Y257231D01*
X601737Y258192D01*
X601815Y259177D01*
X601737Y260163D01*
X601507Y261124D01*
X601128Y262037D01*
X600612Y262880D01*
X599970Y263631D01*
X599218Y264273D01*
X598376Y264790D01*
X597462Y265168D01*
X596501Y265399D01*
X595516Y265476D01*
X594530Y265399D01*
X593569Y265168D01*
X592656Y264790D01*
X591813Y264273D01*
X591061Y263631D01*
X590420Y262880D01*
X589903Y262037D01*
X589525Y261124D01*
X589294Y260163D01*
X589217Y259177D01*
X607327Y267051D02*
X607193Y268070D01*
X606799Y269020D01*
X606174Y269835D01*
X605358Y270461D01*
X604409Y270854D01*
X603390Y270988D01*
X239610Y196185D02*
X239533Y197170D01*
X239302Y198132D01*
X238924Y199045D01*
X238407Y199888D01*
X237765Y200639D01*
X237014Y201281D01*
X236171Y201798D01*
X235258Y202176D01*
X234296Y202407D01*
X233311Y202484D01*
X232326Y202407D01*
X231364Y202176D01*
X230451Y201798D01*
X229608Y201281D01*
X228857Y200639D01*
X228215Y199888D01*
X227698Y199045D01*
X227320Y198132D01*
X227089Y197170D01*
X227012Y196185D01*
X227089Y195200D01*
X227320Y194238D01*
X227698Y193325D01*
X228215Y192482D01*
X228857Y191731D01*
X229608Y191089D01*
X230451Y190572D01*
X231364Y190194D01*
X232326Y189963D01*
X233311Y189886D01*
X234296Y189963D01*
X235258Y190194D01*
X236171Y190572D01*
X237014Y191089D01*
X237765Y191731D01*
X238407Y192482D01*
X238924Y193325D01*
X239302Y194238D01*
X239533Y195200D01*
X239610Y196185D01*
X221500Y188311D02*
X221634Y187292D01*
X222027Y186343D01*
X222653Y185527D01*
X223468Y184901D01*
X224418Y184508D01*
X225437Y184374D01*
X239610Y290673D02*
X239533Y291659D01*
X239302Y292620D01*
X238924Y293533D01*
X238407Y294376D01*
X237765Y295127D01*
X237014Y295769D01*
X236171Y296286D01*
X235258Y296664D01*
X234296Y296895D01*
X233311Y296972D01*
X232326Y296895D01*
X231364Y296664D01*
X230451Y296286D01*
X229608Y295769D01*
X228857Y295127D01*
X228215Y294376D01*
X227698Y293533D01*
X227320Y292620D01*
X227089Y291659D01*
X227012Y290673D01*
X227089Y289688D01*
X227320Y288727D01*
X227698Y287813D01*
X228215Y286971D01*
X228857Y286219D01*
X229608Y285577D01*
X230451Y285061D01*
X231364Y284682D01*
X232326Y284452D01*
X233311Y284374D01*
X234296Y284452D01*
X235258Y284682D01*
X236171Y285061D01*
X237014Y285577D01*
X237765Y286219D01*
X238407Y286971D01*
X238924Y287813D01*
X239302Y288727D01*
X239533Y289688D01*
X239610Y290673D01*
X221500Y282799D02*
X221634Y281780D01*
X222027Y280831D01*
X222653Y280015D01*
X223468Y279390D01*
X224418Y278996D01*
X225437Y278862D01*
X239610Y385161D02*
X239533Y386147D01*
X239302Y387108D01*
X238924Y388021D01*
X238407Y388864D01*
X237765Y389616D01*
X237014Y390258D01*
X236171Y390774D01*
X235258Y391152D01*
X234296Y391383D01*
X233311Y391461D01*
X232326Y391383D01*
X231364Y391152D01*
X230451Y390774D01*
X229608Y390258D01*
X228857Y389616D01*
X228215Y388864D01*
X227698Y388021D01*
X227320Y387108D01*
X227089Y386147D01*
X227012Y385161D01*
X227089Y384176D01*
X227320Y383215D01*
X227698Y382302D01*
X228215Y381459D01*
X228857Y380707D01*
X229608Y380065D01*
X230451Y379549D01*
X231364Y379170D01*
X232326Y378940D01*
X233311Y378862D01*
X234296Y378940D01*
X235258Y379170D01*
X236171Y379549D01*
X237014Y380065D01*
X237765Y380707D01*
X238407Y381459D01*
X238924Y382302D01*
X239302Y383215D01*
X239533Y384176D01*
X239610Y385161D01*
X221500Y377287D02*
X221634Y376268D01*
X222027Y375319D01*
X222653Y374503D01*
X223468Y373878D01*
X224418Y373484D01*
X225437Y373350D01*
X239610Y479650D02*
X239533Y480635D01*
X239302Y481596D01*
X238924Y482509D01*
X238407Y483352D01*
X237765Y484104D01*
X237014Y484746D01*
X236171Y485262D01*
X235258Y485640D01*
X234296Y485871D01*
X233311Y485949D01*
X232326Y485871D01*
X231364Y485640D01*
X230451Y485262D01*
X229608Y484746D01*
X228857Y484104D01*
X228215Y483352D01*
X227698Y482509D01*
X227320Y481596D01*
X227089Y480635D01*
X227012Y479650D01*
X227089Y478664D01*
X227320Y477703D01*
X227698Y476790D01*
X228215Y475947D01*
X228857Y475195D01*
X229608Y474553D01*
X230451Y474037D01*
X231364Y473659D01*
X232326Y473428D01*
X233311Y473350D01*
X234296Y473428D01*
X235258Y473659D01*
X236171Y474037D01*
X237014Y474553D01*
X237765Y475195D01*
X238407Y475947D01*
X238924Y476790D01*
X239302Y477703D01*
X239533Y478664D01*
X239610Y479650D01*
X221500Y471776D02*
X221634Y470757D01*
X222027Y469807D01*
X222653Y468992D01*
X223468Y468366D01*
X224418Y467973D01*
X225437Y467839D01*
X264020Y554453D02*
X263575Y555376D01*
X262576Y555604D01*
X261774Y554965D01*
Y553940D01*
X262576Y553301D01*
X263575Y553529D01*
X264020Y554453D01*
X283705D02*
X283260Y555376D01*
X282261Y555604D01*
X281459Y554965D01*
Y553940D01*
X282261Y553301D01*
X283260Y553529D01*
X283705Y554453D01*
X567169D02*
X566725Y555376D01*
X565725Y555604D01*
X564924Y554965D01*
Y553940D01*
X565725Y553301D01*
X566725Y553529D01*
X567169Y554453D01*
X480555D02*
X480110Y555376D01*
X479111Y555604D01*
X478310Y554965D01*
Y553940D01*
X479111Y553301D01*
X480110Y553529D01*
X480555Y554453D01*
X283705Y459965D02*
X283260Y460888D01*
X282261Y461116D01*
X281459Y460477D01*
Y459452D01*
X282261Y458813D01*
X283260Y459041D01*
X283705Y459965D01*
Y467839D02*
X283260Y468762D01*
X282261Y468990D01*
X281459Y468351D01*
Y467326D01*
X282261Y466687D01*
X283260Y466915D01*
X283705Y467839D01*
X370319Y459965D02*
X369874Y460888D01*
X368875Y461116D01*
X368074Y460477D01*
Y459452D01*
X368875Y458813D01*
X369874Y459041D01*
X370319Y459965D01*
Y467839D02*
X369874Y468762D01*
X368875Y468990D01*
X368074Y468351D01*
Y467326D01*
X368875Y466687D01*
X369874Y466915D01*
X370319Y467839D01*
X480555Y459965D02*
X480110Y460888D01*
X479111Y461116D01*
X478310Y460477D01*
Y459452D01*
X479111Y458813D01*
X480110Y459041D01*
X480555Y459965D01*
Y467839D02*
X480110Y468762D01*
X479111Y468990D01*
X478310Y468351D01*
Y467326D01*
X479111Y466687D01*
X480110Y466915D01*
X480555Y467839D01*
X567169Y459965D02*
X566725Y460888D01*
X565725Y461116D01*
X564924Y460477D01*
Y459452D01*
X565725Y458813D01*
X566725Y459041D01*
X567169Y459965D01*
Y467839D02*
X566725Y468762D01*
X565725Y468990D01*
X564924Y468351D01*
Y467326D01*
X565725Y466687D01*
X566725Y466915D01*
X567169Y467839D01*
Y365476D02*
X566725Y366400D01*
X565725Y366628D01*
X564924Y365989D01*
Y364964D01*
X565725Y364325D01*
X566725Y364553D01*
X567169Y365476D01*
Y373350D02*
X566725Y374274D01*
X565725Y374502D01*
X564924Y373863D01*
Y372838D01*
X565725Y372199D01*
X566725Y372427D01*
X567169Y373350D01*
X480555Y365476D02*
X480110Y366400D01*
X479111Y366628D01*
X478310Y365989D01*
Y364964D01*
X479111Y364325D01*
X480110Y364553D01*
X480555Y365476D01*
Y373350D02*
X480110Y374274D01*
X479111Y374502D01*
X478310Y373863D01*
Y372838D01*
X479111Y372199D01*
X480110Y372427D01*
X480555Y373350D01*
X370319Y365476D02*
X369874Y366400D01*
X368875Y366628D01*
X368074Y365989D01*
Y364964D01*
X368875Y364325D01*
X369874Y364553D01*
X370319Y365476D01*
Y373350D02*
X369874Y374274D01*
X368875Y374502D01*
X368074Y373863D01*
Y372838D01*
X368875Y372199D01*
X369874Y372427D01*
X370319Y373350D01*
X283705Y365476D02*
X283260Y366400D01*
X282261Y366628D01*
X281459Y365989D01*
Y364964D01*
X282261Y364325D01*
X283260Y364553D01*
X283705Y365476D01*
Y373350D02*
X283260Y374274D01*
X282261Y374502D01*
X281459Y373863D01*
Y372838D01*
X282261Y372199D01*
X283260Y372427D01*
X283705Y373350D01*
X370319Y270988D02*
X369874Y271912D01*
X368875Y272140D01*
X368074Y271501D01*
Y270476D01*
X368875Y269837D01*
X369874Y270065D01*
X370319Y270988D01*
Y278862D02*
X369874Y279786D01*
X368875Y280014D01*
X368074Y279375D01*
Y278350D01*
X368875Y277711D01*
X369874Y277939D01*
X370319Y278862D01*
X283705Y270988D02*
X283260Y271912D01*
X282261Y272140D01*
X281459Y271501D01*
Y270476D01*
X282261Y269837D01*
X283260Y270065D01*
X283705Y270988D01*
Y278862D02*
X283260Y279786D01*
X282261Y280014D01*
X281459Y279375D01*
Y278350D01*
X282261Y277711D01*
X283260Y277939D01*
X283705Y278862D01*
X480555Y270988D02*
X480110Y271912D01*
X479111Y272140D01*
X478310Y271501D01*
Y270476D01*
X479111Y269837D01*
X480110Y270065D01*
X480555Y270988D01*
Y278862D02*
X480110Y279786D01*
X479111Y280014D01*
X478310Y279375D01*
Y278350D01*
X479111Y277711D01*
X480110Y277939D01*
X480555Y278862D01*
X567169Y270988D02*
X566725Y271912D01*
X565725Y272140D01*
X564924Y271501D01*
Y270476D01*
X565725Y269837D01*
X566725Y270065D01*
X567169Y270988D01*
Y278862D02*
X566725Y279786D01*
X565725Y280014D01*
X564924Y279375D01*
Y278350D01*
X565725Y277711D01*
X566725Y277939D01*
X567169Y278862D01*
Y184374D02*
X566725Y185297D01*
X565725Y185526D01*
X564924Y184887D01*
Y183862D01*
X565725Y183222D01*
X566725Y183451D01*
X567169Y184374D01*
X480555D02*
X480110Y185297D01*
X479111Y185526D01*
X478310Y184887D01*
Y183862D01*
X479111Y183222D01*
X480110Y183451D01*
X480555Y184374D01*
X370319D02*
X369874Y185297D01*
X368875Y185526D01*
X368074Y184887D01*
Y183862D01*
X368875Y183222D01*
X369874Y183451D01*
X370319Y184374D01*
X283705D02*
X283260Y185297D01*
X282261Y185526D01*
X281459Y184887D01*
Y183862D01*
X282261Y183222D01*
X283260Y183451D01*
X283705Y184374D01*
X547484D02*
X547040Y185297D01*
X546040Y185526D01*
X545239Y184887D01*
Y183862D01*
X546040Y183222D01*
X547040Y183451D01*
X547484Y184374D01*
X476618D02*
X476173Y185297D01*
X475174Y185526D01*
X474373Y184887D01*
Y183862D01*
X475174Y183222D01*
X476173Y183451D01*
X476618Y184374D01*
X547484Y270988D02*
X547040Y271912D01*
X546040Y272140D01*
X545239Y271501D01*
Y270476D01*
X546040Y269837D01*
X547040Y270065D01*
X547484Y270988D01*
Y278862D02*
X547040Y279786D01*
X546040Y280014D01*
X545239Y279375D01*
Y278350D01*
X546040Y277711D01*
X547040Y277939D01*
X547484Y278862D01*
X476618Y270988D02*
X476173Y271912D01*
X475174Y272140D01*
X474373Y271501D01*
Y270476D01*
X475174Y269837D01*
X476173Y270065D01*
X476618Y270988D01*
Y278862D02*
X476173Y279786D01*
X475174Y280014D01*
X474373Y279375D01*
Y278350D01*
X475174Y277711D01*
X476173Y277939D01*
X476618Y278862D01*
X547484Y365476D02*
X547040Y366400D01*
X546040Y366628D01*
X545239Y365989D01*
Y364964D01*
X546040Y364325D01*
X547040Y364553D01*
X547484Y365476D01*
Y373350D02*
X547040Y374274D01*
X546040Y374502D01*
X545239Y373863D01*
Y372838D01*
X546040Y372199D01*
X547040Y372427D01*
X547484Y373350D01*
X476618Y365476D02*
X476173Y366400D01*
X475174Y366628D01*
X474373Y365989D01*
Y364964D01*
X475174Y364325D01*
X476173Y364553D01*
X476618Y365476D01*
Y373350D02*
X476173Y374274D01*
X475174Y374502D01*
X474373Y373863D01*
Y372838D01*
X475174Y372199D01*
X476173Y372427D01*
X476618Y373350D01*
X547484Y467839D02*
X547040Y468762D01*
X546040Y468990D01*
X545239Y468351D01*
Y467326D01*
X546040Y466687D01*
X547040Y466915D01*
X547484Y467839D01*
Y459965D02*
X547040Y460888D01*
X546040Y461116D01*
X545239Y460477D01*
Y459452D01*
X546040Y458813D01*
X547040Y459041D01*
X547484Y459965D01*
X476618D02*
X476173Y460888D01*
X475174Y461116D01*
X474373Y460477D01*
Y459452D01*
X475174Y458813D01*
X476173Y459041D01*
X476618Y459965D01*
Y467839D02*
X476173Y468762D01*
X475174Y468990D01*
X474373Y468351D01*
Y467326D01*
X475174Y466687D01*
X476173Y466915D01*
X476618Y467839D01*
X547484Y554453D02*
X547040Y555376D01*
X546040Y555604D01*
X545239Y554965D01*
Y553940D01*
X546040Y553301D01*
X547040Y553529D01*
X547484Y554453D01*
X476618D02*
X476173Y555376D01*
X475174Y555604D01*
X474373Y554965D01*
Y553940D01*
X475174Y553301D01*
X476173Y553529D01*
X476618Y554453D01*
X350634D02*
X350189Y555376D01*
X349190Y555604D01*
X348389Y554965D01*
Y553940D01*
X349190Y553301D01*
X350189Y553529D01*
X350634Y554453D01*
X279768D02*
X279323Y555376D01*
X278324Y555604D01*
X277522Y554965D01*
Y553940D01*
X278324Y553301D01*
X279323Y553529D01*
X279768Y554453D01*
X350634Y459965D02*
X350189Y460888D01*
X349190Y461116D01*
X348389Y460477D01*
Y459452D01*
X349190Y458813D01*
X350189Y459041D01*
X350634Y459965D01*
Y467839D02*
X350189Y468762D01*
X349190Y468990D01*
X348389Y468351D01*
Y467326D01*
X349190Y466687D01*
X350189Y466915D01*
X350634Y467839D01*
X279768Y459965D02*
X279323Y460888D01*
X278324Y461116D01*
X277522Y460477D01*
Y459452D01*
X278324Y458813D01*
X279323Y459041D01*
X279768Y459965D01*
Y467839D02*
X279323Y468762D01*
X278324Y468990D01*
X277522Y468351D01*
Y467326D01*
X278324Y466687D01*
X279323Y466915D01*
X279768Y467839D01*
X350634Y365476D02*
X350189Y366400D01*
X349190Y366628D01*
X348389Y365989D01*
Y364964D01*
X349190Y364325D01*
X350189Y364553D01*
X350634Y365476D01*
Y373350D02*
X350189Y374274D01*
X349190Y374502D01*
X348389Y373863D01*
Y372838D01*
X349190Y372199D01*
X350189Y372427D01*
X350634Y373350D01*
X279768Y365476D02*
X279323Y366400D01*
X278324Y366628D01*
X277522Y365989D01*
Y364964D01*
X278324Y364325D01*
X279323Y364553D01*
X279768Y365476D01*
Y373350D02*
X279323Y374274D01*
X278324Y374502D01*
X277522Y373863D01*
Y372838D01*
X278324Y372199D01*
X279323Y372427D01*
X279768Y373350D01*
X350634Y270988D02*
X350189Y271912D01*
X349190Y272140D01*
X348389Y271501D01*
Y270476D01*
X349190Y269837D01*
X350189Y270065D01*
X350634Y270988D01*
Y278862D02*
X350189Y279786D01*
X349190Y280014D01*
X348389Y279375D01*
Y278350D01*
X349190Y277711D01*
X350189Y277939D01*
X350634Y278862D01*
X279768Y270988D02*
X279323Y271912D01*
X278324Y272140D01*
X277522Y271501D01*
Y270476D01*
X278324Y269837D01*
X279323Y270065D01*
X279768Y270988D01*
Y278862D02*
X279323Y279786D01*
X278324Y280014D01*
X277522Y279375D01*
Y278350D01*
X278324Y277711D01*
X279323Y277939D01*
X279768Y278862D01*
X350634Y184374D02*
X350189Y185297D01*
X349190Y185526D01*
X348389Y184887D01*
Y183862D01*
X349190Y183222D01*
X350189Y183451D01*
X350634Y184374D01*
X279768D02*
X279323Y185297D01*
X278324Y185526D01*
X277522Y184887D01*
Y183862D01*
X278324Y183222D01*
X279323Y183451D01*
X279768Y184374D01*
X551421Y270988D02*
X550977Y271912D01*
X549977Y272140D01*
X549176Y271501D01*
Y270476D01*
X549977Y269837D01*
X550977Y270065D01*
X551421Y270988D01*
X555358D02*
X554914Y271912D01*
X553914Y272140D01*
X553113Y271501D01*
Y270476D01*
X553914Y269837D01*
X554914Y270065D01*
X555358Y270988D01*
X559295D02*
X558851Y271912D01*
X557851Y272140D01*
X557050Y271501D01*
Y270476D01*
X557851Y269837D01*
X558851Y270065D01*
X559295Y270988D01*
X563232D02*
X562788Y271912D01*
X561788Y272140D01*
X560987Y271501D01*
Y270476D01*
X561788Y269837D01*
X562788Y270065D01*
X563232Y270988D01*
X551421Y278862D02*
X550977Y279786D01*
X549977Y280014D01*
X549176Y279375D01*
Y278350D01*
X549977Y277711D01*
X550977Y277939D01*
X551421Y278862D01*
X555358D02*
X554914Y279786D01*
X553914Y280014D01*
X553113Y279375D01*
Y278350D01*
X553914Y277711D01*
X554914Y277939D01*
X555358Y278862D01*
X559295D02*
X558851Y279786D01*
X557851Y280014D01*
X557050Y279375D01*
Y278350D01*
X557851Y277711D01*
X558851Y277939D01*
X559295Y278862D01*
X563232D02*
X562788Y279786D01*
X561788Y280014D01*
X560987Y279375D01*
Y278350D01*
X561788Y277711D01*
X562788Y277939D01*
X563232Y278862D01*
X460870Y270988D02*
X460425Y271912D01*
X459426Y272140D01*
X458625Y271501D01*
Y270476D01*
X459426Y269837D01*
X460425Y270065D01*
X460870Y270988D01*
X464807D02*
X464362Y271912D01*
X463363Y272140D01*
X462562Y271501D01*
Y270476D01*
X463363Y269837D01*
X464362Y270065D01*
X464807Y270988D01*
X468744D02*
X468299Y271912D01*
X467300Y272140D01*
X466499Y271501D01*
Y270476D01*
X467300Y269837D01*
X468299Y270065D01*
X468744Y270988D01*
X472681D02*
X472236Y271912D01*
X471237Y272140D01*
X470436Y271501D01*
Y270476D01*
X471237Y269837D01*
X472236Y270065D01*
X472681Y270988D01*
X460870Y278862D02*
X460425Y279786D01*
X459426Y280014D01*
X458625Y279375D01*
Y278350D01*
X459426Y277711D01*
X460425Y277939D01*
X460870Y278862D01*
X464807D02*
X464362Y279786D01*
X463363Y280014D01*
X462562Y279375D01*
Y278350D01*
X463363Y277711D01*
X464362Y277939D01*
X464807Y278862D01*
X468744D02*
X468299Y279786D01*
X467300Y280014D01*
X466499Y279375D01*
Y278350D01*
X467300Y277711D01*
X468299Y277939D01*
X468744Y278862D01*
X472681D02*
X472236Y279786D01*
X471237Y280014D01*
X470436Y279375D01*
Y278350D01*
X471237Y277711D01*
X472236Y277939D01*
X472681Y278862D01*
X551421Y365476D02*
X550977Y366400D01*
X549977Y366628D01*
X549176Y365989D01*
Y364964D01*
X549977Y364325D01*
X550977Y364553D01*
X551421Y365476D01*
X555358D02*
X554914Y366400D01*
X553914Y366628D01*
X553113Y365989D01*
Y364964D01*
X553914Y364325D01*
X554914Y364553D01*
X555358Y365476D01*
X559295D02*
X558851Y366400D01*
X557851Y366628D01*
X557050Y365989D01*
Y364964D01*
X557851Y364325D01*
X558851Y364553D01*
X559295Y365476D01*
X563232D02*
X562788Y366400D01*
X561788Y366628D01*
X560987Y365989D01*
Y364964D01*
X561788Y364325D01*
X562788Y364553D01*
X563232Y365476D01*
X551421Y373350D02*
X550977Y374274D01*
X549977Y374502D01*
X549176Y373863D01*
Y372838D01*
X549977Y372199D01*
X550977Y372427D01*
X551421Y373350D01*
X555358D02*
X554914Y374274D01*
X553914Y374502D01*
X553113Y373863D01*
Y372838D01*
X553914Y372199D01*
X554914Y372427D01*
X555358Y373350D01*
X559295D02*
X558851Y374274D01*
X557851Y374502D01*
X557050Y373863D01*
Y372838D01*
X557851Y372199D01*
X558851Y372427D01*
X559295Y373350D01*
X563232D02*
X562788Y374274D01*
X561788Y374502D01*
X560987Y373863D01*
Y372838D01*
X561788Y372199D01*
X562788Y372427D01*
X563232Y373350D01*
X460870Y365476D02*
X460425Y366400D01*
X459426Y366628D01*
X458625Y365989D01*
Y364964D01*
X459426Y364325D01*
X460425Y364553D01*
X460870Y365476D01*
X464807D02*
X464362Y366400D01*
X463363Y366628D01*
X462562Y365989D01*
Y364964D01*
X463363Y364325D01*
X464362Y364553D01*
X464807Y365476D01*
X468744D02*
X468299Y366400D01*
X467300Y366628D01*
X466499Y365989D01*
Y364964D01*
X467300Y364325D01*
X468299Y364553D01*
X468744Y365476D01*
X472681D02*
X472236Y366400D01*
X471237Y366628D01*
X470436Y365989D01*
Y364964D01*
X471237Y364325D01*
X472236Y364553D01*
X472681Y365476D01*
X460870Y373350D02*
X460425Y374274D01*
X459426Y374502D01*
X458625Y373863D01*
Y372838D01*
X459426Y372199D01*
X460425Y372427D01*
X460870Y373350D01*
X464807D02*
X464362Y374274D01*
X463363Y374502D01*
X462562Y373863D01*
Y372838D01*
X463363Y372199D01*
X464362Y372427D01*
X464807Y373350D01*
X468744D02*
X468299Y374274D01*
X467300Y374502D01*
X466499Y373863D01*
Y372838D01*
X467300Y372199D01*
X468299Y372427D01*
X468744Y373350D01*
X472681D02*
X472236Y374274D01*
X471237Y374502D01*
X470436Y373863D01*
Y372838D01*
X471237Y372199D01*
X472236Y372427D01*
X472681Y373350D01*
X551421Y459965D02*
X550977Y460888D01*
X549977Y461116D01*
X549176Y460477D01*
Y459452D01*
X549977Y458813D01*
X550977Y459041D01*
X551421Y459965D01*
X555358D02*
X554914Y460888D01*
X553914Y461116D01*
X553113Y460477D01*
Y459452D01*
X553914Y458813D01*
X554914Y459041D01*
X555358Y459965D01*
X559295D02*
X558851Y460888D01*
X557851Y461116D01*
X557050Y460477D01*
Y459452D01*
X557851Y458813D01*
X558851Y459041D01*
X559295Y459965D01*
X563232D02*
X562788Y460888D01*
X561788Y461116D01*
X560987Y460477D01*
Y459452D01*
X561788Y458813D01*
X562788Y459041D01*
X563232Y459965D01*
X551421Y467839D02*
X550977Y468762D01*
X549977Y468990D01*
X549176Y468351D01*
Y467326D01*
X549977Y466687D01*
X550977Y466915D01*
X551421Y467839D01*
X555358D02*
X554914Y468762D01*
X553914Y468990D01*
X553113Y468351D01*
Y467326D01*
X553914Y466687D01*
X554914Y466915D01*
X555358Y467839D01*
X559295D02*
X558851Y468762D01*
X557851Y468990D01*
X557050Y468351D01*
Y467326D01*
X557851Y466687D01*
X558851Y466915D01*
X559295Y467839D01*
X563232D02*
X562788Y468762D01*
X561788Y468990D01*
X560987Y468351D01*
Y467326D01*
X561788Y466687D01*
X562788Y466915D01*
X563232Y467839D01*
X460870Y459965D02*
X460425Y460888D01*
X459426Y461116D01*
X458625Y460477D01*
Y459452D01*
X459426Y458813D01*
X460425Y459041D01*
X460870Y459965D01*
X464807D02*
X464362Y460888D01*
X463363Y461116D01*
X462562Y460477D01*
Y459452D01*
X463363Y458813D01*
X464362Y459041D01*
X464807Y459965D01*
X468744D02*
X468299Y460888D01*
X467300Y461116D01*
X466499Y460477D01*
Y459452D01*
X467300Y458813D01*
X468299Y459041D01*
X468744Y459965D01*
X472681D02*
X472236Y460888D01*
X471237Y461116D01*
X470436Y460477D01*
Y459452D01*
X471237Y458813D01*
X472236Y459041D01*
X472681Y459965D01*
X460870Y467839D02*
X460425Y468762D01*
X459426Y468990D01*
X458625Y468351D01*
Y467326D01*
X459426Y466687D01*
X460425Y466915D01*
X460870Y467839D01*
X464807D02*
X464362Y468762D01*
X463363Y468990D01*
X462562Y468351D01*
Y467326D01*
X463363Y466687D01*
X464362Y466915D01*
X464807Y467839D01*
X468744D02*
X468299Y468762D01*
X467300Y468990D01*
X466499Y468351D01*
Y467326D01*
X467300Y466687D01*
X468299Y466915D01*
X468744Y467839D01*
X472681D02*
X472236Y468762D01*
X471237Y468990D01*
X470436Y468351D01*
Y467326D01*
X471237Y466687D01*
X472236Y466915D01*
X472681Y467839D01*
X551421Y554453D02*
X550977Y555376D01*
X549977Y555604D01*
X549176Y554965D01*
Y553940D01*
X549977Y553301D01*
X550977Y553529D01*
X551421Y554453D01*
X555358D02*
X554914Y555376D01*
X553914Y555604D01*
X553113Y554965D01*
Y553940D01*
X553914Y553301D01*
X554914Y553529D01*
X555358Y554453D01*
X559295D02*
X558851Y555376D01*
X557851Y555604D01*
X557050Y554965D01*
Y553940D01*
X557851Y553301D01*
X558851Y553529D01*
X559295Y554453D01*
X563232D02*
X562788Y555376D01*
X561788Y555604D01*
X560987Y554965D01*
Y553940D01*
X561788Y553301D01*
X562788Y553529D01*
X563232Y554453D01*
X460870D02*
X460425Y555376D01*
X459426Y555604D01*
X458625Y554965D01*
Y553940D01*
X459426Y553301D01*
X460425Y553529D01*
X460870Y554453D01*
X464807D02*
X464362Y555376D01*
X463363Y555604D01*
X462562Y554965D01*
Y553940D01*
X463363Y553301D01*
X464362Y553529D01*
X464807Y554453D01*
X468744D02*
X468299Y555376D01*
X467300Y555604D01*
X466499Y554965D01*
Y553940D01*
X467300Y553301D01*
X468299Y553529D01*
X468744Y554453D01*
X472681D02*
X472236Y555376D01*
X471237Y555604D01*
X470436Y554965D01*
Y553940D01*
X471237Y553301D01*
X472236Y553529D01*
X472681Y554453D01*
X354571D02*
X354126Y555376D01*
X353127Y555604D01*
X352326Y554965D01*
Y553940D01*
X353127Y553301D01*
X354126Y553529D01*
X354571Y554453D01*
X358508D02*
X358063Y555376D01*
X357064Y555604D01*
X356263Y554965D01*
Y553940D01*
X357064Y553301D01*
X358063Y553529D01*
X358508Y554453D01*
X362445D02*
X362000Y555376D01*
X361001Y555604D01*
X360200Y554965D01*
Y553940D01*
X361001Y553301D01*
X362000Y553529D01*
X362445Y554453D01*
X366382D02*
X365937Y555376D01*
X364938Y555604D01*
X364137Y554965D01*
Y553940D01*
X364938Y553301D01*
X365937Y553529D01*
X366382Y554453D01*
X267957D02*
X267512Y555376D01*
X266513Y555604D01*
X265711Y554965D01*
Y553940D01*
X266513Y553301D01*
X267512Y553529D01*
X267957Y554453D01*
X271894D02*
X271449Y555376D01*
X270450Y555604D01*
X269649Y554965D01*
Y553940D01*
X270450Y553301D01*
X271449Y553529D01*
X271894Y554453D01*
X275831D02*
X275386Y555376D01*
X274387Y555604D01*
X273586Y554965D01*
Y553940D01*
X274387Y553301D01*
X275386Y553529D01*
X275831Y554453D01*
X354571Y459965D02*
X354126Y460888D01*
X353127Y461116D01*
X352326Y460477D01*
Y459452D01*
X353127Y458813D01*
X354126Y459041D01*
X354571Y459965D01*
X358508D02*
X358063Y460888D01*
X357064Y461116D01*
X356263Y460477D01*
Y459452D01*
X357064Y458813D01*
X358063Y459041D01*
X358508Y459965D01*
X362445D02*
X362000Y460888D01*
X361001Y461116D01*
X360200Y460477D01*
Y459452D01*
X361001Y458813D01*
X362000Y459041D01*
X362445Y459965D01*
X366382D02*
X365937Y460888D01*
X364938Y461116D01*
X364137Y460477D01*
Y459452D01*
X364938Y458813D01*
X365937Y459041D01*
X366382Y459965D01*
X354571Y467839D02*
X354126Y468762D01*
X353127Y468990D01*
X352326Y468351D01*
Y467326D01*
X353127Y466687D01*
X354126Y466915D01*
X354571Y467839D01*
X358508D02*
X358063Y468762D01*
X357064Y468990D01*
X356263Y468351D01*
Y467326D01*
X357064Y466687D01*
X358063Y466915D01*
X358508Y467839D01*
X362445D02*
X362000Y468762D01*
X361001Y468990D01*
X360200Y468351D01*
Y467326D01*
X361001Y466687D01*
X362000Y466915D01*
X362445Y467839D01*
X366382D02*
X365937Y468762D01*
X364938Y468990D01*
X364137Y468351D01*
Y467326D01*
X364938Y466687D01*
X365937Y466915D01*
X366382Y467839D01*
X264020Y459965D02*
X263575Y460888D01*
X262576Y461116D01*
X261774Y460477D01*
Y459452D01*
X262576Y458813D01*
X263575Y459041D01*
X264020Y459965D01*
X267957D02*
X267512Y460888D01*
X266513Y461116D01*
X265711Y460477D01*
Y459452D01*
X266513Y458813D01*
X267512Y459041D01*
X267957Y459965D01*
X271894D02*
X271449Y460888D01*
X270450Y461116D01*
X269649Y460477D01*
Y459452D01*
X270450Y458813D01*
X271449Y459041D01*
X271894Y459965D01*
X275831D02*
X275386Y460888D01*
X274387Y461116D01*
X273586Y460477D01*
Y459452D01*
X274387Y458813D01*
X275386Y459041D01*
X275831Y459965D01*
X264020Y467839D02*
X263575Y468762D01*
X262576Y468990D01*
X261774Y468351D01*
Y467326D01*
X262576Y466687D01*
X263575Y466915D01*
X264020Y467839D01*
X267957D02*
X267512Y468762D01*
X266513Y468990D01*
X265711Y468351D01*
Y467326D01*
X266513Y466687D01*
X267512Y466915D01*
X267957Y467839D01*
X271894D02*
X271449Y468762D01*
X270450Y468990D01*
X269649Y468351D01*
Y467326D01*
X270450Y466687D01*
X271449Y466915D01*
X271894Y467839D01*
X275831D02*
X275386Y468762D01*
X274387Y468990D01*
X273586Y468351D01*
Y467326D01*
X274387Y466687D01*
X275386Y466915D01*
X275831Y467839D01*
X354571Y365476D02*
X354126Y366400D01*
X353127Y366628D01*
X352326Y365989D01*
Y364964D01*
X353127Y364325D01*
X354126Y364553D01*
X354571Y365476D01*
X358508D02*
X358063Y366400D01*
X357064Y366628D01*
X356263Y365989D01*
Y364964D01*
X357064Y364325D01*
X358063Y364553D01*
X358508Y365476D01*
X362445D02*
X362000Y366400D01*
X361001Y366628D01*
X360200Y365989D01*
Y364964D01*
X361001Y364325D01*
X362000Y364553D01*
X362445Y365476D01*
X366382D02*
X365937Y366400D01*
X364938Y366628D01*
X364137Y365989D01*
Y364964D01*
X364938Y364325D01*
X365937Y364553D01*
X366382Y365476D01*
X354571Y373350D02*
X354126Y374274D01*
X353127Y374502D01*
X352326Y373863D01*
Y372838D01*
X353127Y372199D01*
X354126Y372427D01*
X354571Y373350D01*
X358508D02*
X358063Y374274D01*
X357064Y374502D01*
X356263Y373863D01*
Y372838D01*
X357064Y372199D01*
X358063Y372427D01*
X358508Y373350D01*
X362445D02*
X362000Y374274D01*
X361001Y374502D01*
X360200Y373863D01*
Y372838D01*
X361001Y372199D01*
X362000Y372427D01*
X362445Y373350D01*
X366382D02*
X365937Y374274D01*
X364938Y374502D01*
X364137Y373863D01*
Y372838D01*
X364938Y372199D01*
X365937Y372427D01*
X366382Y373350D01*
X264020Y365476D02*
X263575Y366400D01*
X262576Y366628D01*
X261774Y365989D01*
Y364964D01*
X262576Y364325D01*
X263575Y364553D01*
X264020Y365476D01*
X267957D02*
X267512Y366400D01*
X266513Y366628D01*
X265711Y365989D01*
Y364964D01*
X266513Y364325D01*
X267512Y364553D01*
X267957Y365476D01*
X271894D02*
X271449Y366400D01*
X270450Y366628D01*
X269649Y365989D01*
Y364964D01*
X270450Y364325D01*
X271449Y364553D01*
X271894Y365476D01*
X275831D02*
X275386Y366400D01*
X274387Y366628D01*
X273586Y365989D01*
Y364964D01*
X274387Y364325D01*
X275386Y364553D01*
X275831Y365476D01*
X264020Y373350D02*
X263575Y374274D01*
X262576Y374502D01*
X261774Y373863D01*
Y372838D01*
X262576Y372199D01*
X263575Y372427D01*
X264020Y373350D01*
X267957D02*
X267512Y374274D01*
X266513Y374502D01*
X265711Y373863D01*
Y372838D01*
X266513Y372199D01*
X267512Y372427D01*
X267957Y373350D01*
X271894D02*
X271449Y374274D01*
X270450Y374502D01*
X269649Y373863D01*
Y372838D01*
X270450Y372199D01*
X271449Y372427D01*
X271894Y373350D01*
X275831D02*
X275386Y374274D01*
X274387Y374502D01*
X273586Y373863D01*
Y372838D01*
X274387Y372199D01*
X275386Y372427D01*
X275831Y373350D01*
X354571Y270988D02*
X354126Y271912D01*
X353127Y272140D01*
X352326Y271501D01*
Y270476D01*
X353127Y269837D01*
X354126Y270065D01*
X354571Y270988D01*
X358508D02*
X358063Y271912D01*
X357064Y272140D01*
X356263Y271501D01*
Y270476D01*
X357064Y269837D01*
X358063Y270065D01*
X358508Y270988D01*
X362445D02*
X362000Y271912D01*
X361001Y272140D01*
X360200Y271501D01*
Y270476D01*
X361001Y269837D01*
X362000Y270065D01*
X362445Y270988D01*
X366382D02*
X365937Y271912D01*
X364938Y272140D01*
X364137Y271501D01*
Y270476D01*
X364938Y269837D01*
X365937Y270065D01*
X366382Y270988D01*
X354571Y278862D02*
X354126Y279786D01*
X353127Y280014D01*
X352326Y279375D01*
Y278350D01*
X353127Y277711D01*
X354126Y277939D01*
X354571Y278862D01*
X358508D02*
X358063Y279786D01*
X357064Y280014D01*
X356263Y279375D01*
Y278350D01*
X357064Y277711D01*
X358063Y277939D01*
X358508Y278862D01*
X362445D02*
X362000Y279786D01*
X361001Y280014D01*
X360200Y279375D01*
Y278350D01*
X361001Y277711D01*
X362000Y277939D01*
X362445Y278862D01*
X366382D02*
X365937Y279786D01*
X364938Y280014D01*
X364137Y279375D01*
Y278350D01*
X364938Y277711D01*
X365937Y277939D01*
X366382Y278862D01*
X264020D02*
X263575Y279786D01*
X262576Y280014D01*
X261774Y279375D01*
Y278350D01*
X262576Y277711D01*
X263575Y277939D01*
X264020Y278862D01*
X267957D02*
X267512Y279786D01*
X266513Y280014D01*
X265711Y279375D01*
Y278350D01*
X266513Y277711D01*
X267512Y277939D01*
X267957Y278862D01*
X271894D02*
X271449Y279786D01*
X270450Y280014D01*
X269649Y279375D01*
Y278350D01*
X270450Y277711D01*
X271449Y277939D01*
X271894Y278862D01*
X275831D02*
X275386Y279786D01*
X274387Y280014D01*
X273586Y279375D01*
Y278350D01*
X274387Y277711D01*
X275386Y277939D01*
X275831Y278862D01*
X264020Y270988D02*
X263575Y271912D01*
X262576Y272140D01*
X261774Y271501D01*
Y270476D01*
X262576Y269837D01*
X263575Y270065D01*
X264020Y270988D01*
X267957D02*
X267512Y271912D01*
X266513Y272140D01*
X265711Y271501D01*
Y270476D01*
X266513Y269837D01*
X267512Y270065D01*
X267957Y270988D01*
X271894D02*
X271449Y271912D01*
X270450Y272140D01*
X269649Y271501D01*
Y270476D01*
X270450Y269837D01*
X271449Y270065D01*
X271894Y270988D01*
X275831D02*
X275386Y271912D01*
X274387Y272140D01*
X273586Y271501D01*
Y270476D01*
X274387Y269837D01*
X275386Y270065D01*
X275831Y270988D01*
X551421Y184374D02*
X550977Y185297D01*
X549977Y185526D01*
X549176Y184887D01*
Y183862D01*
X549977Y183222D01*
X550977Y183451D01*
X551421Y184374D01*
X555358D02*
X554914Y185297D01*
X553914Y185526D01*
X553113Y184887D01*
Y183862D01*
X553914Y183222D01*
X554914Y183451D01*
X555358Y184374D01*
X559295D02*
X558851Y185297D01*
X557851Y185526D01*
X557050Y184887D01*
Y183862D01*
X557851Y183222D01*
X558851Y183451D01*
X559295Y184374D01*
X563232D02*
X562788Y185297D01*
X561788Y185526D01*
X560987Y184887D01*
Y183862D01*
X561788Y183222D01*
X562788Y183451D01*
X563232Y184374D01*
X460870D02*
X460425Y185297D01*
X459426Y185526D01*
X458625Y184887D01*
Y183862D01*
X459426Y183222D01*
X460425Y183451D01*
X460870Y184374D01*
X464807D02*
X464362Y185297D01*
X463363Y185526D01*
X462562Y184887D01*
Y183862D01*
X463363Y183222D01*
X464362Y183451D01*
X464807Y184374D01*
X468744D02*
X468299Y185297D01*
X467300Y185526D01*
X466499Y184887D01*
Y183862D01*
X467300Y183222D01*
X468299Y183451D01*
X468744Y184374D01*
X472681D02*
X472236Y185297D01*
X471237Y185526D01*
X470436Y184887D01*
Y183862D01*
X471237Y183222D01*
X472236Y183451D01*
X472681Y184374D01*
X366382D02*
X365937Y185297D01*
X364938Y185526D01*
X364137Y184887D01*
Y183862D01*
X364938Y183222D01*
X365937Y183451D01*
X366382Y184374D01*
X362445D02*
X362000Y185297D01*
X361001Y185526D01*
X360200Y184887D01*
Y183862D01*
X361001Y183222D01*
X362000Y183451D01*
X362445Y184374D01*
X358508D02*
X358063Y185297D01*
X357064Y185526D01*
X356263Y184887D01*
Y183862D01*
X357064Y183222D01*
X358063Y183451D01*
X358508Y184374D01*
X354571D02*
X354126Y185297D01*
X353127Y185526D01*
X352326Y184887D01*
Y183862D01*
X353127Y183222D01*
X354126Y183451D01*
X354571Y184374D01*
X275831D02*
X275386Y185297D01*
X274387Y185526D01*
X273586Y184887D01*
Y183862D01*
X274387Y183222D01*
X275386Y183451D01*
X275831Y184374D01*
X271894D02*
X271449Y185297D01*
X270450Y185526D01*
X269649Y184887D01*
Y183862D01*
X270450Y183222D01*
X271449Y183451D01*
X271894Y184374D01*
X267957D02*
X267512Y185297D01*
X266513Y185526D01*
X265711Y184887D01*
Y183862D01*
X266513Y183222D01*
X267512Y183451D01*
X267957Y184374D01*
X264020D02*
X263575Y185297D01*
X262576Y185526D01*
X261774Y184887D01*
Y183862D01*
X262576Y183222D01*
X263575Y183451D01*
X264020Y184374D01*
X418350Y188311D02*
X418484Y187292D01*
X418878Y186343D01*
X419503Y185527D01*
X420319Y184901D01*
X421268Y184508D01*
X422287Y184374D01*
X406539D02*
X407558Y184508D01*
X408508Y184901D01*
X409323Y185527D01*
X409949Y186343D01*
X410342Y187292D01*
X410476Y188311D01*
X603390Y184374D02*
X604409Y184508D01*
X605358Y184901D01*
X606174Y185527D01*
X606799Y186343D01*
X607193Y187292D01*
X607327Y188311D01*
X603390Y278862D02*
X604409Y278996D01*
X605358Y279390D01*
X606174Y280015D01*
X606799Y280831D01*
X607193Y281780D01*
X607327Y282799D01*
X607327Y267051D02*
X607193Y268070D01*
X606799Y269020D01*
X606174Y269835D01*
X605358Y270461D01*
X604409Y270854D01*
X603390Y270988D01*
Y373350D02*
X604409Y373484D01*
X605358Y373878D01*
X606174Y374503D01*
X606799Y375319D01*
X607193Y376268D01*
X607327Y377287D01*
X607327Y361539D02*
X607193Y362558D01*
X606799Y363508D01*
X606174Y364323D01*
X605358Y364949D01*
X604409Y365342D01*
X603390Y365476D01*
Y467839D02*
X604409Y467973D01*
X605358Y468366D01*
X606174Y468992D01*
X606799Y469807D01*
X607193Y470757D01*
X607327Y471776D01*
X607327Y456028D02*
X607193Y457047D01*
X606799Y457996D01*
X606174Y458811D01*
X605358Y459437D01*
X604409Y459830D01*
X603390Y459965D01*
X607327Y550516D02*
X607193Y551535D01*
X606799Y552484D01*
X606174Y553300D01*
X605358Y553925D01*
X604409Y554319D01*
X603390Y554453D01*
X225437D02*
X224418Y554319D01*
X223468Y553925D01*
X222653Y553300D01*
X222027Y552484D01*
X221634Y551535D01*
X221500Y550516D01*
Y282799D02*
X221634Y281780D01*
X222027Y280831D01*
X222653Y280015D01*
X223468Y279390D01*
X224418Y278996D01*
X225437Y278862D01*
Y270988D02*
X224418Y270854D01*
X223468Y270461D01*
X222653Y269835D01*
X222027Y269020D01*
X221634Y268070D01*
X221500Y267051D01*
Y377287D02*
X221634Y376268D01*
X222027Y375319D01*
X222653Y374503D01*
X223468Y373878D01*
X224418Y373484D01*
X225437Y373350D01*
Y365476D02*
X224418Y365342D01*
X223468Y364949D01*
X222653Y364323D01*
X222027Y363508D01*
X221634Y362558D01*
X221500Y361539D01*
Y471776D02*
X221634Y470757D01*
X222027Y469807D01*
X222653Y468992D01*
X223468Y468366D01*
X224418Y467973D01*
X225437Y467839D01*
Y459965D02*
X224418Y459830D01*
X223468Y459437D01*
X222653Y458811D01*
X222027Y457996D01*
X221634Y457047D01*
X221500Y456028D01*
X410476Y550516D02*
X410342Y551535D01*
X409949Y552484D01*
X409323Y553300D01*
X408508Y553925D01*
X407558Y554319D01*
X406539Y554453D01*
X422287D02*
X421268Y554319D01*
X420319Y553925D01*
X419503Y553300D01*
X418878Y552484D01*
X418484Y551535D01*
X418350Y550516D01*
X406539Y467839D02*
X407558Y467973D01*
X408508Y468366D01*
X409323Y468992D01*
X409949Y469807D01*
X410342Y470757D01*
X410476Y471776D01*
X418350D02*
X418484Y470757D01*
X418878Y469807D01*
X419503Y468992D01*
X420319Y468366D01*
X421268Y467973D01*
X422287Y467839D01*
X410476Y456028D02*
X410342Y457047D01*
X409949Y457996D01*
X409323Y458811D01*
X408508Y459437D01*
X407558Y459830D01*
X406539Y459965D01*
X422287D02*
X421268Y459830D01*
X420319Y459437D01*
X419503Y458811D01*
X418878Y457996D01*
X418484Y457047D01*
X418350Y456028D01*
X406539Y373350D02*
X407558Y373484D01*
X408508Y373878D01*
X409323Y374503D01*
X409949Y375319D01*
X410342Y376268D01*
X410476Y377287D01*
X418350D02*
X418484Y376268D01*
X418878Y375319D01*
X419503Y374503D01*
X420319Y373878D01*
X421268Y373484D01*
X422287Y373350D01*
X410476Y361539D02*
X410342Y362558D01*
X409949Y363508D01*
X409323Y364323D01*
X408508Y364949D01*
X407558Y365342D01*
X406539Y365476D01*
X422287D02*
X421268Y365342D01*
X420319Y364949D01*
X419503Y364323D01*
X418878Y363508D01*
X418484Y362558D01*
X418350Y361539D01*
X422287Y270988D02*
X421268Y270854D01*
X420319Y270461D01*
X419503Y269835D01*
X418878Y269020D01*
X418484Y268070D01*
X418350Y267051D01*
X410476D02*
X410342Y268070D01*
X409949Y269020D01*
X409323Y269835D01*
X408508Y270461D01*
X407558Y270854D01*
X406539Y270988D01*
X418350Y282799D02*
X418484Y281780D01*
X418878Y280831D01*
X419503Y280015D01*
X420319Y279390D01*
X421268Y278996D01*
X422287Y278862D01*
X406539D02*
X407558Y278996D01*
X408508Y279390D01*
X409323Y280015D01*
X409949Y280831D01*
X410342Y281780D01*
X410476Y282799D01*
X457721Y270988D02*
X458739Y271122D01*
X459689Y271516D01*
X460504Y272141D01*
X461130Y272957D01*
X461523Y273906D01*
X461657Y274925D01*
X461523Y275944D01*
X461130Y276894D01*
X460504Y277709D01*
X459689Y278335D01*
X458739Y278728D01*
X457721Y278862D01*
X481343D02*
X480324Y278728D01*
X479374Y278335D01*
X478559Y277709D01*
X477933Y276894D01*
X477540Y275944D01*
X477406Y274925D01*
X477540Y273906D01*
X477933Y272957D01*
X478559Y272141D01*
X479374Y271516D01*
X480324Y271122D01*
X481343Y270988D01*
X544335D02*
X545354Y271122D01*
X546303Y271516D01*
X547119Y272141D01*
X547744Y272957D01*
X548138Y273906D01*
X548272Y274925D01*
X548138Y275944D01*
X547744Y276894D01*
X547119Y277709D01*
X546303Y278335D01*
X545354Y278728D01*
X544335Y278862D01*
X567957D02*
X566938Y278728D01*
X565988Y278335D01*
X565173Y277709D01*
X564547Y276894D01*
X564154Y275944D01*
X564020Y274925D01*
X564154Y273906D01*
X564547Y272957D01*
X565173Y272141D01*
X565988Y271516D01*
X566938Y271122D01*
X567957Y270988D01*
X457721Y365476D02*
X458739Y365611D01*
X459689Y366004D01*
X460504Y366630D01*
X461130Y367445D01*
X461523Y368394D01*
X461657Y369413D01*
X461523Y370432D01*
X461130Y371382D01*
X460504Y372197D01*
X459689Y372823D01*
X458739Y373216D01*
X457721Y373350D01*
X481343D02*
X480324Y373216D01*
X479374Y372823D01*
X478559Y372197D01*
X477933Y371382D01*
X477540Y370432D01*
X477406Y369413D01*
X477540Y368394D01*
X477933Y367445D01*
X478559Y366630D01*
X479374Y366004D01*
X480324Y365611D01*
X481343Y365476D01*
X544335D02*
X545354Y365611D01*
X546303Y366004D01*
X547119Y366630D01*
X547744Y367445D01*
X548138Y368394D01*
X548272Y369413D01*
X548138Y370432D01*
X547744Y371382D01*
X547119Y372197D01*
X546303Y372823D01*
X545354Y373216D01*
X544335Y373350D01*
X567957D02*
X566938Y373216D01*
X565988Y372823D01*
X565173Y372197D01*
X564547Y371382D01*
X564154Y370432D01*
X564020Y369413D01*
X564154Y368394D01*
X564547Y367445D01*
X565173Y366630D01*
X565988Y366004D01*
X566938Y365611D01*
X567957Y365476D01*
X457721Y459965D02*
X458739Y460099D01*
X459689Y460492D01*
X460504Y461118D01*
X461130Y461933D01*
X461523Y462883D01*
X461657Y463902D01*
X461523Y464921D01*
X461130Y465870D01*
X460504Y466685D01*
X459689Y467311D01*
X458739Y467704D01*
X457721Y467839D01*
X481343D02*
X480324Y467704D01*
X479374Y467311D01*
X478559Y466685D01*
X477933Y465870D01*
X477540Y464921D01*
X477406Y463902D01*
X477540Y462883D01*
X477933Y461933D01*
X478559Y461118D01*
X479374Y460492D01*
X480324Y460099D01*
X481343Y459965D01*
X544335D02*
X545354Y460099D01*
X546303Y460492D01*
X547119Y461118D01*
X547744Y461933D01*
X548138Y462883D01*
X548272Y463902D01*
X548138Y464921D01*
X547744Y465870D01*
X547119Y466685D01*
X546303Y467311D01*
X545354Y467704D01*
X544335Y467839D01*
X567957D02*
X566938Y467704D01*
X565988Y467311D01*
X565173Y466685D01*
X564547Y465870D01*
X564154Y464921D01*
X564020Y463902D01*
X564154Y462883D01*
X564547Y461933D01*
X565173Y461118D01*
X565988Y460492D01*
X566938Y460099D01*
X567957Y459965D01*
X457721Y554453D02*
X458739Y554587D01*
X459689Y554980D01*
X460504Y555606D01*
X461130Y556421D01*
X461523Y557371D01*
X461657Y558390D01*
X461523Y559409D01*
X461130Y560358D01*
X460504Y561174D01*
X459689Y561799D01*
X458739Y562193D01*
X457721Y562327D01*
X481343D02*
X480324Y562193D01*
X479374Y561799D01*
X478559Y561174D01*
X477933Y560358D01*
X477540Y559409D01*
X477406Y558390D01*
X477540Y557371D01*
X477933Y556421D01*
X478559Y555606D01*
X479374Y554980D01*
X480324Y554587D01*
X481343Y554453D01*
X544335D02*
X545354Y554587D01*
X546303Y554980D01*
X547119Y555606D01*
X547744Y556421D01*
X548138Y557371D01*
X548272Y558390D01*
X548138Y559409D01*
X547744Y560358D01*
X547119Y561174D01*
X546303Y561799D01*
X545354Y562193D01*
X544335Y562327D01*
X567957D02*
X566938Y562193D01*
X565988Y561799D01*
X565173Y561174D01*
X564547Y560358D01*
X564154Y559409D01*
X564020Y558390D01*
X564154Y557371D01*
X564547Y556421D01*
X565173Y555606D01*
X565988Y554980D01*
X566938Y554587D01*
X567957Y554453D01*
X260870D02*
X261889Y554587D01*
X262839Y554980D01*
X263654Y555606D01*
X264280Y556421D01*
X264673Y557371D01*
X264807Y558390D01*
X264673Y559409D01*
X264280Y560358D01*
X263654Y561174D01*
X262839Y561799D01*
X261889Y562193D01*
X260870Y562327D01*
X284492D02*
X283473Y562193D01*
X282524Y561799D01*
X281708Y561174D01*
X281083Y560358D01*
X280689Y559409D01*
X280555Y558390D01*
X280689Y557371D01*
X281083Y556421D01*
X281708Y555606D01*
X282524Y554980D01*
X283473Y554587D01*
X284492Y554453D01*
X347484D02*
X348503Y554587D01*
X349453Y554980D01*
X350268Y555606D01*
X350894Y556421D01*
X351287Y557371D01*
X351421Y558390D01*
X351287Y559409D01*
X350894Y560358D01*
X350268Y561174D01*
X349453Y561799D01*
X348503Y562193D01*
X347484Y562327D01*
X371106D02*
X370087Y562193D01*
X369138Y561799D01*
X368322Y561174D01*
X367697Y560358D01*
X367303Y559409D01*
X367169Y558390D01*
X367303Y557371D01*
X367697Y556421D01*
X368322Y555606D01*
X369138Y554980D01*
X370087Y554587D01*
X371106Y554453D01*
X260870Y459965D02*
X261889Y460099D01*
X262839Y460492D01*
X263654Y461118D01*
X264280Y461933D01*
X264673Y462883D01*
X264807Y463902D01*
X264673Y464921D01*
X264280Y465870D01*
X263654Y466685D01*
X262839Y467311D01*
X261889Y467704D01*
X260870Y467839D01*
X284492D02*
X283473Y467704D01*
X282524Y467311D01*
X281708Y466685D01*
X281083Y465870D01*
X280689Y464921D01*
X280555Y463902D01*
X280689Y462883D01*
X281083Y461933D01*
X281708Y461118D01*
X282524Y460492D01*
X283473Y460099D01*
X284492Y459965D01*
X347484D02*
X348503Y460099D01*
X349453Y460492D01*
X350268Y461118D01*
X350894Y461933D01*
X351287Y462883D01*
X351421Y463902D01*
X351287Y464921D01*
X350894Y465870D01*
X350268Y466685D01*
X349453Y467311D01*
X348503Y467704D01*
X347484Y467839D01*
X371106D02*
X370087Y467704D01*
X369138Y467311D01*
X368322Y466685D01*
X367697Y465870D01*
X367303Y464921D01*
X367169Y463902D01*
X367303Y462883D01*
X367697Y461933D01*
X368322Y461118D01*
X369138Y460492D01*
X370087Y460099D01*
X371106Y459965D01*
X260870Y365476D02*
X261889Y365611D01*
X262839Y366004D01*
X263654Y366630D01*
X264280Y367445D01*
X264673Y368394D01*
X264807Y369413D01*
X264673Y370432D01*
X264280Y371382D01*
X263654Y372197D01*
X262839Y372823D01*
X261889Y373216D01*
X260870Y373350D01*
X284492D02*
X283473Y373216D01*
X282524Y372823D01*
X281708Y372197D01*
X281083Y371382D01*
X280689Y370432D01*
X280555Y369413D01*
X280689Y368394D01*
X281083Y367445D01*
X281708Y366630D01*
X282524Y366004D01*
X283473Y365611D01*
X284492Y365476D01*
X347484D02*
X348503Y365611D01*
X349453Y366004D01*
X350268Y366630D01*
X350894Y367445D01*
X351287Y368394D01*
X351421Y369413D01*
X351287Y370432D01*
X350894Y371382D01*
X350268Y372197D01*
X349453Y372823D01*
X348503Y373216D01*
X347484Y373350D01*
X371106D02*
X370087Y373216D01*
X369138Y372823D01*
X368322Y372197D01*
X367697Y371382D01*
X367303Y370432D01*
X367169Y369413D01*
X367303Y368394D01*
X367697Y367445D01*
X368322Y366630D01*
X369138Y366004D01*
X370087Y365611D01*
X371106Y365476D01*
X260870Y270988D02*
X261889Y271122D01*
X262839Y271516D01*
X263654Y272141D01*
X264280Y272957D01*
X264673Y273906D01*
X264807Y274925D01*
X264673Y275944D01*
X264280Y276894D01*
X263654Y277709D01*
X262839Y278335D01*
X261889Y278728D01*
X260870Y278862D01*
X284492D02*
X283473Y278728D01*
X282524Y278335D01*
X281708Y277709D01*
X281083Y276894D01*
X280689Y275944D01*
X280555Y274925D01*
X280689Y273906D01*
X281083Y272957D01*
X281708Y272141D01*
X282524Y271516D01*
X283473Y271122D01*
X284492Y270988D01*
X347484D02*
X348503Y271122D01*
X349453Y271516D01*
X350268Y272141D01*
X350894Y272957D01*
X351287Y273906D01*
X351421Y274925D01*
X351287Y275944D01*
X350894Y276894D01*
X350268Y277709D01*
X349453Y278335D01*
X348503Y278728D01*
X347484Y278862D01*
X371106D02*
X370087Y278728D01*
X369138Y278335D01*
X368322Y277709D01*
X367697Y276894D01*
X367303Y275944D01*
X367169Y274925D01*
X367303Y273906D01*
X367697Y272957D01*
X368322Y272141D01*
X369138Y271516D01*
X370087Y271122D01*
X371106Y270988D01*
X221500Y188311D02*
X221634Y187292D01*
X222027Y186343D01*
X222653Y185527D01*
X223468Y184901D01*
X224418Y184508D01*
X225437Y184374D01*
X567957D02*
X566938Y184240D01*
X565988Y183847D01*
X565173Y183221D01*
X564547Y182405D01*
X564154Y181456D01*
X564020Y180437D01*
X564154Y179418D01*
X564547Y178469D01*
X565173Y177653D01*
X565988Y177027D01*
X566938Y176634D01*
X567957Y176500D01*
X544335D02*
X545354Y176634D01*
X546303Y177027D01*
X547119Y177653D01*
X547744Y178469D01*
X548138Y179418D01*
X548272Y180437D01*
X548138Y181456D01*
X547744Y182405D01*
X547119Y183221D01*
X546303Y183847D01*
X545354Y184240D01*
X544335Y184374D01*
X481343D02*
X480324Y184240D01*
X479374Y183847D01*
X478559Y183221D01*
X477933Y182405D01*
X477540Y181456D01*
X477406Y180437D01*
X477540Y179418D01*
X477933Y178469D01*
X478559Y177653D01*
X479374Y177027D01*
X480324Y176634D01*
X481343Y176500D01*
X457721D02*
X458739Y176634D01*
X459689Y177027D01*
X460504Y177653D01*
X461130Y178469D01*
X461523Y179418D01*
X461657Y180437D01*
X461523Y181456D01*
X461130Y182405D01*
X460504Y183221D01*
X459689Y183847D01*
X458739Y184240D01*
X457721Y184374D01*
X371106D02*
X370087Y184240D01*
X369138Y183847D01*
X368322Y183221D01*
X367697Y182405D01*
X367303Y181456D01*
X367169Y180437D01*
X367303Y179418D01*
X367697Y178469D01*
X368322Y177653D01*
X369138Y177027D01*
X370087Y176634D01*
X371106Y176500D01*
X347484D02*
X348503Y176634D01*
X349453Y177027D01*
X350268Y177653D01*
X350894Y178469D01*
X351287Y179418D01*
X351421Y180437D01*
X351287Y181456D01*
X350894Y182405D01*
X350268Y183221D01*
X349453Y183847D01*
X348503Y184240D01*
X347484Y184374D01*
X284492D02*
X283473Y184240D01*
X282524Y183847D01*
X281708Y183221D01*
X281083Y182405D01*
X280689Y181456D01*
X280555Y180437D01*
X280689Y179418D01*
X281083Y178469D01*
X281708Y177653D01*
X282524Y177027D01*
X283473Y176634D01*
X284492Y176500D01*
X260870D02*
X261889Y176634D01*
X262839Y177027D01*
X263654Y177653D01*
X264280Y178469D01*
X264673Y179418D01*
X264807Y180437D01*
X264673Y181456D01*
X264280Y182405D01*
X263654Y183221D01*
X262839Y183847D01*
X261889Y184240D01*
X260870Y184374D01*
X571894Y572169D02*
X571770Y573148D01*
X571407Y574066D01*
X570827Y574864D01*
X570066Y575493D01*
X569173Y575914D01*
X568204Y576098D01*
X567219Y576037D01*
X566280Y575732D01*
X565447Y575203D01*
X564772Y574483D01*
X564296Y573619D01*
X564051Y572663D01*
Y571676D01*
X564296Y570720D01*
X564772Y569855D01*
X565447Y569136D01*
X566280Y568607D01*
X567219Y568302D01*
X568204Y568240D01*
X569173Y568425D01*
X570066Y568845D01*
X570827Y569474D01*
X571407Y570273D01*
X571770Y571190D01*
X571894Y572169D01*
X264807Y572169D02*
X264683Y573148D01*
X264320Y574066D01*
X263740Y574864D01*
X262980Y575493D01*
X262087Y575914D01*
X261117Y576098D01*
X260132Y576037D01*
X259194Y575732D01*
X258361Y575203D01*
X257685Y574483D01*
X257209Y573619D01*
X256964Y572663D01*
Y571676D01*
X257209Y570720D01*
X257685Y569855D01*
X258361Y569136D01*
X259194Y568607D01*
X260132Y568302D01*
X261117Y568240D01*
X262087Y568425D01*
X262980Y568845D01*
X263740Y569474D01*
X264320Y570273D01*
X264683Y571190D01*
X264807Y572169D01*
X571894Y166657D02*
X571770Y167637D01*
X571407Y168554D01*
X570827Y169352D01*
X570066Y169982D01*
X569173Y170402D01*
X568204Y170587D01*
X567219Y170525D01*
X566280Y170220D01*
X565447Y169691D01*
X564772Y168972D01*
X564296Y168107D01*
X564051Y167151D01*
Y166164D01*
X564296Y165208D01*
X564772Y164343D01*
X565447Y163624D01*
X566280Y163095D01*
X567219Y162790D01*
X568204Y162728D01*
X569173Y162913D01*
X570066Y163333D01*
X570827Y163962D01*
X571407Y164761D01*
X571770Y165678D01*
X571894Y166657D01*
X264807Y166657D02*
X264683Y167637D01*
X264320Y168554D01*
X263740Y169352D01*
X262980Y169982D01*
X262087Y170402D01*
X261117Y170587D01*
X260132Y170525D01*
X259194Y170220D01*
X258361Y169691D01*
X257685Y168972D01*
X257209Y168107D01*
X256964Y167151D01*
Y166164D01*
X257209Y165208D01*
X257685Y164343D01*
X258361Y163624D01*
X259194Y163095D01*
X260132Y162790D01*
X261117Y162728D01*
X262087Y162913D01*
X262980Y163333D01*
X263740Y163962D01*
X264320Y164761D01*
X264683Y165678D01*
X264807Y166657D01*
X607327Y570201D02*
X607286Y571176D01*
X607166Y572145D01*
X606965Y573100D01*
X606687Y574036D01*
X606332Y574945D01*
X605903Y575822D01*
X605404Y576661D01*
X604836Y577455D01*
X604205Y578200D01*
X603515Y578890D01*
X602770Y579521D01*
X601976Y580089D01*
X601137Y580588D01*
X600260Y581017D01*
X599351Y581372D01*
X598415Y581650D01*
X597460Y581851D01*
X596491Y581972D01*
X595516Y582012D01*
X233311D02*
X232336Y581972D01*
X231367Y581851D01*
X230412Y581650D01*
X229476Y581372D01*
X228567Y581017D01*
X227690Y580588D01*
X226851Y580089D01*
X226057Y579521D01*
X225312Y578890D01*
X224621Y578200D01*
X223991Y577455D01*
X223423Y576661D01*
X222923Y575822D01*
X222495Y574945D01*
X222140Y574036D01*
X221861Y573100D01*
X221661Y572145D01*
X221540Y571176D01*
X221500Y570201D01*
X595516Y156815D02*
X596491Y156855D01*
X597460Y156976D01*
X598415Y157176D01*
X599351Y157455D01*
X600260Y157810D01*
X601137Y158238D01*
X601976Y158738D01*
X602770Y159305D01*
X603515Y159936D01*
X604205Y160627D01*
X604836Y161372D01*
X605404Y162166D01*
X605903Y163005D01*
X606332Y163882D01*
X606687Y164791D01*
X606965Y165727D01*
X607166Y166682D01*
X607286Y167651D01*
X607327Y168626D01*
X221500D02*
X221540Y167651D01*
X221661Y166682D01*
X221861Y165726D01*
X222140Y164791D01*
X222495Y163882D01*
X222923Y163005D01*
X223423Y162166D01*
X223991Y161372D01*
X224621Y160627D01*
X225312Y159936D01*
X226057Y159305D01*
X226851Y158738D01*
X227690Y158238D01*
X228567Y157810D01*
X229476Y157455D01*
X230412Y157176D01*
X231367Y156976D01*
X232336Y156855D01*
X233311Y156815D01*
X284492Y184374D02*
X347484Y184374D01*
X371106Y562327D02*
X457721D01*
X481343Y554453D02*
X544335Y554453D01*
X481343Y562327D02*
X544335Y562327D01*
X481343Y459965D02*
X544335Y459965D01*
X481343Y467839D02*
X544335Y467839D01*
X481343Y365476D02*
X544335Y365476D01*
X481343Y373350D02*
X544335Y373350D01*
X481343Y270988D02*
X544335Y270988D01*
X481343Y278862D02*
X544335Y278862D01*
X284492Y554453D02*
X347484Y554453D01*
X284492Y562327D02*
X347484Y562327D01*
X284492Y459965D02*
X347484Y459965D01*
X284492Y467839D02*
X347484Y467839D01*
X284492Y365476D02*
X347484Y365476D01*
X284492Y373350D02*
X347484Y373350D01*
X284492Y278862D02*
X347484Y278862D01*
X284492Y270988D02*
X347484Y270988D01*
X422287D02*
X457721D01*
X422287Y278862D02*
X457721D01*
X371106Y270988D02*
X406539D01*
X371106Y278862D02*
X406539D01*
X422287Y365476D02*
X457721D01*
X422287Y373350D02*
X457721D01*
X371106Y365476D02*
X406539D01*
X371106Y373350D02*
X406539D01*
X422287Y459965D02*
X457721D01*
X422287Y467839D02*
X457721D01*
X371106Y459965D02*
X406539D01*
X371106Y467839D02*
X406539D01*
X371106Y554453D02*
X406539D01*
X422287D02*
X457721D01*
X418350Y471776D02*
Y550516D01*
X410476Y471776D02*
Y550516D01*
X418350Y377287D02*
Y456028D01*
X410476Y377287D02*
Y456028D01*
X418350Y282799D02*
Y361539D01*
X410476Y282799D02*
Y361539D01*
X418350Y188311D02*
Y267051D01*
X410476Y188311D02*
Y267051D01*
X567957Y270988D02*
X603390D01*
X567957Y278862D02*
X603390D01*
X567957Y365476D02*
X603390D01*
X567957Y373350D02*
X603390D01*
X567957Y459965D02*
X603390D01*
X567957Y467839D02*
X603390D01*
X567957Y554453D02*
X603390D01*
X567957Y562327D02*
X607327D01*
X221500D02*
X260870D01*
X225437Y554453D02*
X260870D01*
X225437Y467839D02*
X260870D01*
X225437Y459965D02*
X260870D01*
X225437Y373350D02*
X260870D01*
X225437Y365476D02*
X260870D01*
X225437Y278862D02*
X260870D01*
X225437Y270988D02*
X260870D01*
X221500Y282799D02*
Y361539D01*
Y377287D02*
Y456028D01*
Y471776D02*
Y550516D01*
X607327Y471776D02*
Y550516D01*
Y377287D02*
Y456028D01*
Y282799D02*
Y361539D01*
Y188311D02*
Y267051D01*
X221500Y188311D02*
Y267051D01*
X481343Y176500D02*
X544335Y176500D01*
X371106D02*
X457721D01*
X284492Y176500D02*
X347484Y176500D01*
X481343Y184374D02*
X544335Y184374D01*
X567957D02*
X603390D01*
X422287D02*
X457721D01*
X371106D02*
X406539D01*
X225437D02*
X260870D01*
X567957Y176500D02*
X607327D01*
X221500D02*
X260870D01*
X607327Y562327D02*
Y570201D01*
X221500Y562327D02*
Y570201D01*
X233311Y582012D02*
X595516Y582012D01*
X607327Y168626D02*
Y176500D01*
X221500Y168626D02*
Y176500D01*
X233311Y156815D02*
X595516D01*
X607327Y550516D02*
X607193Y551535D01*
X606799Y552484D01*
X606174Y553300D01*
X605358Y553925D01*
X604409Y554319D01*
X603390Y554453D01*
Y467839D02*
X604409Y467973D01*
X605358Y468366D01*
X606174Y468992D01*
X606799Y469807D01*
X607193Y470757D01*
X607327Y471776D01*
X418350D02*
X418484Y470757D01*
X418878Y469807D01*
X419503Y468992D01*
X420319Y468366D01*
X421268Y467973D01*
X422287Y467839D01*
Y554453D02*
X421268Y554319D01*
X420319Y553925D01*
X419503Y553300D01*
X418878Y552484D01*
X418484Y551535D01*
X418350Y550516D01*
X422287Y554453D02*
X421268Y554319D01*
X420319Y553925D01*
X419503Y553300D01*
X418878Y552484D01*
X418484Y551535D01*
X418350Y550516D01*
X418350Y471776D02*
X418484Y470757D01*
X418878Y469807D01*
X419503Y468992D01*
X420319Y468366D01*
X421268Y467973D01*
X422287Y467839D01*
X603390D02*
X604409Y467973D01*
X605358Y468366D01*
X606174Y468992D01*
X606799Y469807D01*
X607193Y470757D01*
X607327Y471776D01*
Y550516D02*
X607193Y551535D01*
X606799Y552484D01*
X606174Y553300D01*
X605358Y553925D01*
X604409Y554319D01*
X603390Y554453D01*
X422287D01*
X603390Y467839D02*
X422287D01*
X607327Y550516D02*
Y471776D01*
X418350Y550516D02*
Y471776D01*
Y550516D02*
Y471776D01*
X607327Y550516D02*
Y471776D01*
X603390Y467839D02*
X422287D01*
X603390Y554453D02*
X422287D01*
X607327Y456028D02*
X607193Y457047D01*
X606799Y457996D01*
X606174Y458811D01*
X605358Y459437D01*
X604409Y459830D01*
X603390Y459965D01*
Y373350D02*
X604409Y373484D01*
X605358Y373878D01*
X606174Y374503D01*
X606799Y375319D01*
X607193Y376268D01*
X607327Y377287D01*
X418350D02*
X418484Y376268D01*
X418878Y375319D01*
X419503Y374503D01*
X420319Y373878D01*
X421268Y373484D01*
X422287Y373350D01*
Y459965D02*
X421268Y459830D01*
X420319Y459437D01*
X419503Y458811D01*
X418878Y457996D01*
X418484Y457047D01*
X418350Y456028D01*
X422287Y459965D02*
X421268Y459830D01*
X420319Y459437D01*
X419503Y458811D01*
X418878Y457996D01*
X418484Y457047D01*
X418350Y456028D01*
X418350Y377287D02*
X418484Y376268D01*
X418878Y375319D01*
X419503Y374503D01*
X420319Y373878D01*
X421268Y373484D01*
X422287Y373350D01*
X603390D02*
X604409Y373484D01*
X605358Y373878D01*
X606174Y374503D01*
X606799Y375319D01*
X607193Y376268D01*
X607327Y377287D01*
Y456028D02*
X607193Y457047D01*
X606799Y457996D01*
X606174Y458811D01*
X605358Y459437D01*
X604409Y459830D01*
X603390Y459965D01*
X422287D01*
X603390Y373350D02*
X422287D01*
X607327Y456028D02*
Y377287D01*
X418350Y456028D02*
Y377287D01*
Y456028D02*
Y377287D01*
X607327Y456028D02*
Y377287D01*
X603390Y373350D02*
X422287D01*
X603390Y459965D02*
X422287D01*
X607327Y361539D02*
X607193Y362558D01*
X606799Y363508D01*
X606174Y364323D01*
X605358Y364949D01*
X604409Y365342D01*
X603390Y365476D01*
Y278862D02*
X604409Y278996D01*
X605358Y279390D01*
X606174Y280015D01*
X606799Y280831D01*
X607193Y281780D01*
X607327Y282799D01*
X418350D02*
X418484Y281780D01*
X418878Y280831D01*
X419503Y280015D01*
X420319Y279390D01*
X421268Y278996D01*
X422287Y278862D01*
Y365476D02*
X421268Y365342D01*
X420319Y364949D01*
X419503Y364323D01*
X418878Y363508D01*
X418484Y362558D01*
X418350Y361539D01*
X422287Y365476D02*
X421268Y365342D01*
X420319Y364949D01*
X419503Y364323D01*
X418878Y363508D01*
X418484Y362558D01*
X418350Y361539D01*
X418350Y282799D02*
X418484Y281780D01*
X418878Y280831D01*
X419503Y280015D01*
X420319Y279390D01*
X421268Y278996D01*
X422287Y278862D01*
X603390D02*
X604409Y278996D01*
X605358Y279390D01*
X606174Y280015D01*
X606799Y280831D01*
X607193Y281780D01*
X607327Y282799D01*
Y361539D02*
X607193Y362558D01*
X606799Y363508D01*
X606174Y364323D01*
X605358Y364949D01*
X604409Y365342D01*
X603390Y365476D01*
X422287D01*
X603390Y278862D02*
X422287D01*
X607327Y361539D02*
Y282799D01*
X418350Y361539D02*
Y282799D01*
Y361539D02*
Y282799D01*
X607327Y361539D02*
Y282799D01*
X603390Y278862D02*
X422287D01*
X603390Y365476D02*
X422287D01*
X607327Y267051D02*
X607193Y268070D01*
X606799Y269020D01*
X606174Y269835D01*
X605358Y270461D01*
X604409Y270854D01*
X603390Y270988D01*
Y184374D02*
X604409Y184508D01*
X605358Y184901D01*
X606174Y185527D01*
X606799Y186343D01*
X607193Y187292D01*
X607327Y188311D01*
X418350D02*
X418484Y187292D01*
X418878Y186343D01*
X419503Y185527D01*
X420319Y184901D01*
X421268Y184508D01*
X422287Y184374D01*
Y270988D02*
X421268Y270854D01*
X420319Y270461D01*
X419503Y269835D01*
X418878Y269020D01*
X418484Y268070D01*
X418350Y267051D01*
X422287Y270988D02*
X421268Y270854D01*
X420319Y270461D01*
X419503Y269835D01*
X418878Y269020D01*
X418484Y268070D01*
X418350Y267051D01*
X418350Y188311D02*
X418484Y187292D01*
X418878Y186343D01*
X419503Y185527D01*
X420319Y184901D01*
X421268Y184508D01*
X422287Y184374D01*
X603390D02*
X604409Y184508D01*
X605358Y184901D01*
X606174Y185527D01*
X606799Y186343D01*
X607193Y187292D01*
X607327Y188311D01*
Y267051D02*
X607193Y268070D01*
X606799Y269020D01*
X606174Y269835D01*
X605358Y270461D01*
X604409Y270854D01*
X603390Y270988D01*
X422287D01*
X603390Y184374D02*
X422287D01*
X607327Y267051D02*
Y188311D01*
X418350Y267051D02*
Y188311D01*
Y267051D02*
Y188311D01*
X607327Y267051D02*
Y188311D01*
X603390Y184374D02*
X422287D01*
X603390Y270988D02*
X422287D01*
X221500Y188311D02*
X221634Y187292D01*
X222027Y186343D01*
X222653Y185527D01*
X223468Y184901D01*
X224418Y184508D01*
X225437Y184374D01*
Y270988D02*
X224418Y270854D01*
X223468Y270461D01*
X222653Y269835D01*
X222027Y269020D01*
X221634Y268070D01*
X221500Y267051D01*
X410476D02*
X410342Y268070D01*
X409949Y269020D01*
X409323Y269835D01*
X408508Y270461D01*
X407558Y270854D01*
X406539Y270988D01*
Y184374D02*
X407558Y184508D01*
X408508Y184901D01*
X409323Y185527D01*
X409949Y186343D01*
X410342Y187292D01*
X410476Y188311D01*
X406539Y184374D02*
X407558Y184508D01*
X408508Y184901D01*
X409323Y185527D01*
X409949Y186343D01*
X410342Y187292D01*
X410476Y188311D01*
X410476Y267051D02*
X410342Y268070D01*
X409949Y269020D01*
X409323Y269835D01*
X408508Y270461D01*
X407558Y270854D01*
X406539Y270988D01*
X225437D02*
X224418Y270854D01*
X223468Y270461D01*
X222653Y269835D01*
X222027Y269020D01*
X221634Y268070D01*
X221500Y267051D01*
Y188311D02*
X221634Y187292D01*
X222027Y186343D01*
X222653Y185527D01*
X223468Y184901D01*
X224418Y184508D01*
X225437Y184374D01*
X406539D01*
X225437Y270988D02*
X406539D01*
X221500Y188311D02*
Y267051D01*
X410476Y188311D02*
Y267051D01*
Y188311D02*
Y267051D01*
X221500Y188311D02*
Y267051D01*
X225437Y270988D02*
X406539D01*
X225437Y184374D02*
X406539D01*
X221500Y282799D02*
X221634Y281780D01*
X222027Y280831D01*
X222653Y280015D01*
X223468Y279390D01*
X224418Y278996D01*
X225437Y278862D01*
Y365476D02*
X224418Y365342D01*
X223468Y364949D01*
X222653Y364323D01*
X222027Y363508D01*
X221634Y362558D01*
X221500Y361539D01*
X410476D02*
X410342Y362558D01*
X409949Y363508D01*
X409323Y364323D01*
X408508Y364949D01*
X407558Y365342D01*
X406539Y365476D01*
Y278862D02*
X407558Y278996D01*
X408508Y279390D01*
X409323Y280015D01*
X409949Y280831D01*
X410342Y281780D01*
X410476Y282799D01*
X406539Y278862D02*
X407558Y278996D01*
X408508Y279390D01*
X409323Y280015D01*
X409949Y280831D01*
X410342Y281780D01*
X410476Y282799D01*
X410476Y361539D02*
X410342Y362558D01*
X409949Y363508D01*
X409323Y364323D01*
X408508Y364949D01*
X407558Y365342D01*
X406539Y365476D01*
X225437D02*
X224418Y365342D01*
X223468Y364949D01*
X222653Y364323D01*
X222027Y363508D01*
X221634Y362558D01*
X221500Y361539D01*
Y282799D02*
X221634Y281780D01*
X222027Y280831D01*
X222653Y280015D01*
X223468Y279390D01*
X224418Y278996D01*
X225437Y278862D01*
X406539D01*
X225437Y365476D02*
X406539D01*
X221500Y282799D02*
Y361539D01*
X410476Y282799D02*
Y361539D01*
Y282799D02*
Y361539D01*
X221500Y282799D02*
Y361539D01*
X225437Y365476D02*
X406539D01*
X225437Y278862D02*
X406539D01*
X221500Y377287D02*
X221634Y376268D01*
X222027Y375319D01*
X222653Y374503D01*
X223468Y373878D01*
X224418Y373484D01*
X225437Y373350D01*
Y459965D02*
X224418Y459830D01*
X223468Y459437D01*
X222653Y458811D01*
X222027Y457996D01*
X221634Y457047D01*
X221500Y456028D01*
X410476D02*
X410342Y457047D01*
X409949Y457996D01*
X409323Y458811D01*
X408508Y459437D01*
X407558Y459830D01*
X406539Y459965D01*
Y373350D02*
X407558Y373484D01*
X408508Y373878D01*
X409323Y374503D01*
X409949Y375319D01*
X410342Y376268D01*
X410476Y377287D01*
X406539Y373350D02*
X407558Y373484D01*
X408508Y373878D01*
X409323Y374503D01*
X409949Y375319D01*
X410342Y376268D01*
X410476Y377287D01*
X410476Y456028D02*
X410342Y457047D01*
X409949Y457996D01*
X409323Y458811D01*
X408508Y459437D01*
X407558Y459830D01*
X406539Y459965D01*
X225437D02*
X224418Y459830D01*
X223468Y459437D01*
X222653Y458811D01*
X222027Y457996D01*
X221634Y457047D01*
X221500Y456028D01*
Y377287D02*
X221634Y376268D01*
X222027Y375319D01*
X222653Y374503D01*
X223468Y373878D01*
X224418Y373484D01*
X225437Y373350D01*
X406539D01*
X225437Y459965D02*
X406539D01*
X221500Y377287D02*
Y456028D01*
X410476Y377287D02*
Y456028D01*
Y377287D02*
Y456028D01*
X221500Y377287D02*
Y456028D01*
X225437Y459965D02*
X406539D01*
X225437Y373350D02*
X406539D01*
X221500Y471776D02*
X221634Y470757D01*
X222027Y469807D01*
X222653Y468992D01*
X223468Y468366D01*
X224418Y467973D01*
X225437Y467839D01*
Y554453D02*
X224418Y554319D01*
X223468Y553925D01*
X222653Y553300D01*
X222027Y552484D01*
X221634Y551535D01*
X221500Y550516D01*
X410476D02*
X410342Y551535D01*
X409949Y552484D01*
X409323Y553300D01*
X408508Y553925D01*
X407558Y554319D01*
X406539Y554453D01*
Y467839D02*
X407558Y467973D01*
X408508Y468366D01*
X409323Y468992D01*
X409949Y469807D01*
X410342Y470757D01*
X410476Y471776D01*
X406539Y467839D02*
X407558Y467973D01*
X408508Y468366D01*
X409323Y468992D01*
X409949Y469807D01*
X410342Y470757D01*
X410476Y471776D01*
X410476Y550516D02*
X410342Y551535D01*
X409949Y552484D01*
X409323Y553300D01*
X408508Y553925D01*
X407558Y554319D01*
X406539Y554453D01*
X225437D02*
X224418Y554319D01*
X223468Y553925D01*
X222653Y553300D01*
X222027Y552484D01*
X221634Y551535D01*
X221500Y550516D01*
Y471776D02*
X221634Y470757D01*
X222027Y469807D01*
X222653Y468992D01*
X223468Y468366D01*
X224418Y467973D01*
X225437Y467839D01*
X406539D01*
X225437Y554453D02*
X406539D01*
X221500Y471776D02*
Y550516D01*
X410476Y471776D02*
Y550516D01*
Y471776D02*
Y550516D01*
X221500Y471776D02*
Y550516D01*
X225437Y554453D02*
X406539D01*
X225437Y467839D02*
X406539D01*
G54D53*
X559371Y569255D02*
Y563257D01*
X562370Y566256D01*
X558372D01*
X556372D02*
X552374D01*
X550374Y569255D02*
Y563257D01*
X547375D01*
X546376Y564257D01*
Y566256D01*
X547375Y567256D01*
X550374D01*
X548375D02*
X546376Y569255D01*
X544376D02*
X542377D01*
X543376D01*
Y563257D01*
X544376Y564257D01*
X539378Y569255D02*
Y568255D01*
X538378D01*
Y569255D01*
X539378D01*
X530381Y563257D02*
X532380Y564257D01*
X534379Y566256D01*
Y568255D01*
X533380Y569255D01*
X531380D01*
X530381Y568255D01*
Y567256D01*
X531380Y566256D01*
X534379D01*
X528381Y564257D02*
X527382Y563257D01*
X525382D01*
X524383Y564257D01*
Y568255D01*
X525382Y569255D01*
X527382D01*
X528381Y568255D01*
Y564257D01*
X608726Y586701D02*
X609726Y585701D01*
Y583702D01*
X608726Y582702D01*
X604727D01*
X603728Y583702D01*
Y585701D01*
X604727Y586701D01*
X608726D01*
X603728Y580703D02*
X604727D01*
Y579703D01*
X603728D01*
Y580703D01*
X608726Y575705D02*
X609726Y574705D01*
Y572706D01*
X608726Y571706D01*
X604727D01*
X603728Y572706D01*
Y574705D01*
X604727Y575705D01*
X608726D01*
Y569707D02*
X609726Y568707D01*
Y566708D01*
X608726Y565708D01*
X604727D01*
X603728Y566708D01*
Y568707D01*
X604727Y569707D01*
X608726D01*
X596915Y586701D02*
X597915Y585701D01*
Y583702D01*
X596915Y582702D01*
X595915D01*
X594916Y583702D01*
Y584702D01*
Y583702D01*
X593916Y582702D01*
X592916D01*
X591917Y583702D01*
Y585701D01*
X592916Y586701D01*
X591917Y580703D02*
X592916D01*
Y579703D01*
X591917D01*
Y580703D01*
X596915Y575705D02*
X597915Y574705D01*
Y572706D01*
X596915Y571706D01*
X592916D01*
X591917Y572706D01*
Y574705D01*
X592916Y575705D01*
X596915D01*
Y569707D02*
X597915Y568707D01*
Y566708D01*
X596915Y565708D01*
X592916D01*
X591917Y566708D01*
Y568707D01*
X592916Y569707D01*
X596915D01*
X426562Y589700D02*
X432560D01*
X429561Y592699D01*
Y588700D01*
X432560Y582702D02*
Y586701D01*
X429561D01*
X430561Y584702D01*
Y583702D01*
X429561Y582702D01*
X427562D01*
X426562Y583702D01*
Y585701D01*
X427562Y586701D01*
X426562Y580703D02*
X427562D01*
Y579703D01*
X426562D01*
Y580703D01*
X431561Y575705D02*
X432560Y574705D01*
Y572706D01*
X431561Y571706D01*
X427562D01*
X426562Y572706D01*
Y574705D01*
X427562Y575705D01*
X431561D01*
Y569707D02*
X432560Y568707D01*
Y566708D01*
X431561Y565708D01*
X427562D01*
X426562Y566708D01*
Y568707D01*
X427562Y569707D01*
X431561D01*
X414751Y589700D02*
X420749D01*
X417750Y592699D01*
Y588700D01*
X419750Y586701D02*
X420749Y585701D01*
Y583702D01*
X419750Y582702D01*
X418750D01*
X417750Y583702D01*
X416751Y582702D01*
X415751D01*
X414751Y583702D01*
Y585701D01*
X415751Y586701D01*
X416751D01*
X417750Y585701D01*
X418750Y586701D01*
X419750D01*
X417750Y585701D02*
Y583702D01*
X414751Y580703D02*
X415751D01*
Y579703D01*
X414751D01*
Y580703D01*
X419750Y575705D02*
X420749Y574705D01*
Y572706D01*
X419750Y571706D01*
X415751D01*
X414751Y572706D01*
Y574705D01*
X415751Y575705D01*
X419750D01*
Y569707D02*
X420749Y568707D01*
Y566708D01*
X419750Y565708D01*
X415751D01*
X414751Y566708D01*
Y568707D01*
X415751Y569707D01*
X419750D01*
X638788Y553053D02*
X637788Y552054D01*
X635789D01*
X634789Y553053D01*
Y557052D01*
X635789Y558052D01*
X637788D01*
X638788Y557052D01*
Y553053D01*
X632790Y558052D02*
Y557052D01*
X631790D01*
Y558052D01*
X632790D01*
X627791Y553053D02*
X626792Y552054D01*
X624792D01*
X623793Y553053D01*
Y557052D01*
X624792Y558052D01*
X626792D01*
X627791Y557052D01*
Y553053D01*
X621793D02*
X620793Y552054D01*
X618794D01*
X617795Y553053D01*
Y557052D01*
X618794Y558052D01*
X620793D01*
X621793Y557052D01*
Y553053D01*
X638788Y541242D02*
X637788Y540243D01*
X635789D01*
X634789Y541242D01*
Y542242D01*
X635789Y543242D01*
X636788D01*
X635789D01*
X634789Y544241D01*
Y545241D01*
X635789Y546241D01*
X637788D01*
X638788Y545241D01*
X632790Y546241D02*
Y545241D01*
X631790D01*
Y546241D01*
X632790D01*
X627791Y541242D02*
X626792Y540243D01*
X624792D01*
X623793Y541242D01*
Y545241D01*
X624792Y546241D01*
X626792D01*
X627791Y545241D01*
Y541242D01*
X621793D02*
X620793Y540243D01*
X618794D01*
X617795Y541242D01*
Y545241D01*
X618794Y546241D01*
X620793D01*
X621793Y545241D01*
Y541242D01*
X643786Y483249D02*
X641787D01*
X642786D01*
Y477251D01*
X643786Y478250D01*
X638788Y482249D02*
X637788Y483249D01*
X635789D01*
X634789Y482249D01*
Y478250D01*
X635789Y477251D01*
X637788D01*
X638788Y478250D01*
Y479250D01*
X637788Y480250D01*
X634789D01*
X632790Y483249D02*
Y482249D01*
X631790D01*
Y483249D01*
X632790D01*
X627791Y478250D02*
X626792Y477251D01*
X624792D01*
X623793Y478250D01*
Y482249D01*
X624792Y483249D01*
X626792D01*
X627791Y482249D01*
Y478250D01*
X621793D02*
X620793Y477251D01*
X618794D01*
X617795Y478250D01*
Y482249D01*
X618794Y483249D01*
X620793D01*
X621793Y482249D01*
Y478250D01*
X640787Y471438D02*
X644786D01*
X640787Y467439D01*
Y466439D01*
X641787Y465440D01*
X643786D01*
X644786Y466439D01*
X634789Y471438D02*
X638788D01*
X634789Y467439D01*
Y466439D01*
X635789Y465440D01*
X637788D01*
X638788Y466439D01*
X632790Y471438D02*
Y470438D01*
X631790D01*
Y471438D01*
X632790D01*
X627791Y466439D02*
X626792Y465440D01*
X624792D01*
X623793Y466439D01*
Y470438D01*
X624792Y471438D01*
X626792D01*
X627791Y470438D01*
Y466439D01*
X621793D02*
X620793Y465440D01*
X618794D01*
X617795Y466439D01*
Y470438D01*
X618794Y471438D01*
X620793D01*
X621793Y470438D01*
Y466439D01*
X657987Y568715D02*
Y562717D01*
X660986Y565717D01*
X656987D01*
X654988D02*
X650989D01*
X648990Y568715D02*
Y562717D01*
X645991D01*
X644991Y563717D01*
Y565717D01*
X645991Y566716D01*
X648990D01*
X646991D02*
X644991Y568715D01*
X642992D02*
X640992D01*
X641992D01*
Y562717D01*
X642992Y563717D01*
X637993Y568715D02*
Y567716D01*
X636994D01*
Y568715D01*
X637993D01*
X632995Y563717D02*
X631995Y562717D01*
X629996D01*
X628996Y563717D01*
Y567716D01*
X629996Y568715D01*
X631995D01*
X632995Y567716D01*
Y563717D01*
X626997D02*
X625997Y562717D01*
X623998D01*
X622998Y563717D01*
Y567716D01*
X623998Y568715D01*
X625997D01*
X626997Y567716D01*
Y563717D01*
X559371Y474767D02*
Y468769D01*
X562370Y471768D01*
X558372D01*
X556372D02*
X552374D01*
X550374Y474767D02*
Y468769D01*
X547375D01*
X546376Y469768D01*
Y471768D01*
X547375Y472767D01*
X550374D01*
X548375D02*
X546376Y474767D01*
X544376D02*
X542377D01*
X543376D01*
Y468769D01*
X544376Y469768D01*
X539378Y474767D02*
Y473767D01*
X538378D01*
Y474767D01*
X539378D01*
X530381Y468769D02*
X532380Y469768D01*
X534379Y471768D01*
Y473767D01*
X533380Y474767D01*
X531380D01*
X530381Y473767D01*
Y472767D01*
X531380Y471768D01*
X534379D01*
X528381Y469768D02*
X527382Y468769D01*
X525382D01*
X524383Y469768D01*
Y473767D01*
X525382Y474767D01*
X527382D01*
X528381Y473767D01*
Y469768D01*
X608726Y492213D02*
X609726Y491213D01*
Y489214D01*
X608726Y488214D01*
X604727D01*
X603728Y489214D01*
Y491213D01*
X604727Y492213D01*
X608726D01*
X603728Y486215D02*
X604727D01*
Y485215D01*
X603728D01*
Y486215D01*
X608726Y481216D02*
X609726Y480217D01*
Y478217D01*
X608726Y477218D01*
X604727D01*
X603728Y478217D01*
Y480217D01*
X604727Y481216D01*
X608726D01*
Y475218D02*
X609726Y474219D01*
Y472219D01*
X608726Y471220D01*
X604727D01*
X603728Y472219D01*
Y474219D01*
X604727Y475218D01*
X608726D01*
X596915Y492213D02*
X597915Y491213D01*
Y489214D01*
X596915Y488214D01*
X595915D01*
X594916Y489214D01*
Y490214D01*
Y489214D01*
X593916Y488214D01*
X592916D01*
X591917Y489214D01*
Y491213D01*
X592916Y492213D01*
X591917Y486215D02*
X592916D01*
Y485215D01*
X591917D01*
Y486215D01*
X596915Y481216D02*
X597915Y480217D01*
Y478217D01*
X596915Y477218D01*
X592916D01*
X591917Y478217D01*
Y480217D01*
X592916Y481216D01*
X596915D01*
Y475218D02*
X597915Y474219D01*
Y472219D01*
X596915Y471220D01*
X592916D01*
X591917Y472219D01*
Y474219D01*
X592916Y475218D01*
X596915D01*
X426562Y495212D02*
X432560D01*
X429561Y498211D01*
Y494212D01*
X432560Y488214D02*
Y492213D01*
X429561D01*
X430561Y490214D01*
Y489214D01*
X429561Y488214D01*
X427562D01*
X426562Y489214D01*
Y491213D01*
X427562Y492213D01*
X426562Y486215D02*
X427562D01*
Y485215D01*
X426562D01*
Y486215D01*
X431561Y481216D02*
X432560Y480217D01*
Y478217D01*
X431561Y477218D01*
X427562D01*
X426562Y478217D01*
Y480217D01*
X427562Y481216D01*
X431561D01*
Y475218D02*
X432560Y474219D01*
Y472219D01*
X431561Y471220D01*
X427562D01*
X426562Y472219D01*
Y474219D01*
X427562Y475218D01*
X431561D01*
X414751Y495212D02*
X420749D01*
X417750Y498211D01*
Y494212D01*
X419750Y492213D02*
X420749Y491213D01*
Y489214D01*
X419750Y488214D01*
X418750D01*
X417750Y489214D01*
X416751Y488214D01*
X415751D01*
X414751Y489214D01*
Y491213D01*
X415751Y492213D01*
X416751D01*
X417750Y491213D01*
X418750Y492213D01*
X419750D01*
X417750Y491213D02*
Y489214D01*
X414751Y486215D02*
X415751D01*
Y485215D01*
X414751D01*
Y486215D01*
X419750Y481216D02*
X420749Y480217D01*
Y478217D01*
X419750Y477218D01*
X415751D01*
X414751Y478217D01*
Y480217D01*
X415751Y481216D01*
X419750D01*
Y475218D02*
X420749Y474219D01*
Y472219D01*
X419750Y471220D01*
X415751D01*
X414751Y472219D01*
Y474219D01*
X415751Y475218D01*
X419750D01*
X638788Y458565D02*
X637788Y457565D01*
X635789D01*
X634789Y458565D01*
Y462564D01*
X635789Y463564D01*
X637788D01*
X638788Y462564D01*
Y458565D01*
X632790Y463564D02*
Y462564D01*
X631790D01*
Y463564D01*
X632790D01*
X627791Y458565D02*
X626792Y457565D01*
X624792D01*
X623793Y458565D01*
Y462564D01*
X624792Y463564D01*
X626792D01*
X627791Y462564D01*
Y458565D01*
X621793D02*
X620793Y457565D01*
X618794D01*
X617795Y458565D01*
Y462564D01*
X618794Y463564D01*
X620793D01*
X621793Y462564D01*
Y458565D01*
X638788Y446754D02*
X637788Y445754D01*
X635789D01*
X634789Y446754D01*
Y447754D01*
X635789Y448753D01*
X636788D01*
X635789D01*
X634789Y449753D01*
Y450753D01*
X635789Y451753D01*
X637788D01*
X638788Y450753D01*
X632790Y451753D02*
Y450753D01*
X631790D01*
Y451753D01*
X632790D01*
X627791Y446754D02*
X626792Y445754D01*
X624792D01*
X623793Y446754D01*
Y450753D01*
X624792Y451753D01*
X626792D01*
X627791Y450753D01*
Y446754D01*
X621793D02*
X620793Y445754D01*
X618794D01*
X617795Y446754D01*
Y450753D01*
X618794Y451753D01*
X620793D01*
X621793Y450753D01*
Y446754D01*
X643786Y388760D02*
X641787D01*
X642786D01*
Y382762D01*
X643786Y383762D01*
X638788Y387761D02*
X637788Y388760D01*
X635789D01*
X634789Y387761D01*
Y383762D01*
X635789Y382762D01*
X637788D01*
X638788Y383762D01*
Y384762D01*
X637788Y385761D01*
X634789D01*
X632790Y388760D02*
Y387761D01*
X631790D01*
Y388760D01*
X632790D01*
X627791Y383762D02*
X626792Y382762D01*
X624792D01*
X623793Y383762D01*
Y387761D01*
X624792Y388760D01*
X626792D01*
X627791Y387761D01*
Y383762D01*
X621793D02*
X620793Y382762D01*
X618794D01*
X617795Y383762D01*
Y387761D01*
X618794Y388760D01*
X620793D01*
X621793Y387761D01*
Y383762D01*
X640787Y376949D02*
X644786D01*
X640787Y372951D01*
Y371951D01*
X641787Y370951D01*
X643786D01*
X644786Y371951D01*
X634789Y376949D02*
X638788D01*
X634789Y372951D01*
Y371951D01*
X635789Y370951D01*
X637788D01*
X638788Y371951D01*
X632790Y376949D02*
Y375950D01*
X631790D01*
Y376949D01*
X632790D01*
X627791Y371951D02*
X626792Y370951D01*
X624792D01*
X623793Y371951D01*
Y375950D01*
X624792Y376949D01*
X626792D01*
X627791Y375950D01*
Y371951D01*
X621793D02*
X620793Y370951D01*
X618794D01*
X617795Y371951D01*
Y375950D01*
X618794Y376949D01*
X620793D01*
X621793Y375950D01*
Y371951D01*
X657987Y474227D02*
Y468229D01*
X660986Y471228D01*
X656987D01*
X654988D02*
X650989D01*
X648990Y474227D02*
Y468229D01*
X645991D01*
X644991Y469229D01*
Y471228D01*
X645991Y472228D01*
X648990D01*
X646991D02*
X644991Y474227D01*
X642992D02*
X640992D01*
X641992D01*
Y468229D01*
X642992Y469229D01*
X637993Y474227D02*
Y473228D01*
X636994D01*
Y474227D01*
X637993D01*
X632995Y469229D02*
X631995Y468229D01*
X629996D01*
X628996Y469229D01*
Y473228D01*
X629996Y474227D01*
X631995D01*
X632995Y473228D01*
Y469229D01*
X626997D02*
X625997Y468229D01*
X623998D01*
X622998Y469229D01*
Y473228D01*
X623998Y474227D01*
X625997D01*
X626997Y473228D01*
Y469229D01*
X559371Y380279D02*
Y374281D01*
X562370Y377280D01*
X558372D01*
X556372D02*
X552374D01*
X550374Y380279D02*
Y374281D01*
X547375D01*
X546376Y375280D01*
Y377280D01*
X547375Y378279D01*
X550374D01*
X548375D02*
X546376Y380279D01*
X544376D02*
X542377D01*
X543376D01*
Y374281D01*
X544376Y375280D01*
X539378Y380279D02*
Y379279D01*
X538378D01*
Y380279D01*
X539378D01*
X530381Y374281D02*
X532380Y375280D01*
X534379Y377280D01*
Y379279D01*
X533380Y380279D01*
X531380D01*
X530381Y379279D01*
Y378279D01*
X531380Y377280D01*
X534379D01*
X528381Y375280D02*
X527382Y374281D01*
X525382D01*
X524383Y375280D01*
Y379279D01*
X525382Y380279D01*
X527382D01*
X528381Y379279D01*
Y375280D01*
X608726Y397725D02*
X609726Y396725D01*
Y394726D01*
X608726Y393726D01*
X604727D01*
X603728Y394726D01*
Y396725D01*
X604727Y397725D01*
X608726D01*
X603728Y391727D02*
X604727D01*
Y390727D01*
X603728D01*
Y391727D01*
X608726Y386728D02*
X609726Y385729D01*
Y383729D01*
X608726Y382730D01*
X604727D01*
X603728Y383729D01*
Y385729D01*
X604727Y386728D01*
X608726D01*
Y380730D02*
X609726Y379731D01*
Y377731D01*
X608726Y376731D01*
X604727D01*
X603728Y377731D01*
Y379731D01*
X604727Y380730D01*
X608726D01*
X596915Y397725D02*
X597915Y396725D01*
Y394726D01*
X596915Y393726D01*
X595915D01*
X594916Y394726D01*
Y395725D01*
Y394726D01*
X593916Y393726D01*
X592916D01*
X591917Y394726D01*
Y396725D01*
X592916Y397725D01*
X591917Y391727D02*
X592916D01*
Y390727D01*
X591917D01*
Y391727D01*
X596915Y386728D02*
X597915Y385729D01*
Y383729D01*
X596915Y382730D01*
X592916D01*
X591917Y383729D01*
Y385729D01*
X592916Y386728D01*
X596915D01*
Y380730D02*
X597915Y379731D01*
Y377731D01*
X596915Y376731D01*
X592916D01*
X591917Y377731D01*
Y379731D01*
X592916Y380730D01*
X596915D01*
X426562Y400724D02*
X432560D01*
X429561Y403723D01*
Y399724D01*
X432560Y393726D02*
Y397725D01*
X429561D01*
X430561Y395725D01*
Y394726D01*
X429561Y393726D01*
X427562D01*
X426562Y394726D01*
Y396725D01*
X427562Y397725D01*
X426562Y391727D02*
X427562D01*
Y390727D01*
X426562D01*
Y391727D01*
X431561Y386728D02*
X432560Y385729D01*
Y383729D01*
X431561Y382730D01*
X427562D01*
X426562Y383729D01*
Y385729D01*
X427562Y386728D01*
X431561D01*
Y380730D02*
X432560Y379731D01*
Y377731D01*
X431561Y376731D01*
X427562D01*
X426562Y377731D01*
Y379731D01*
X427562Y380730D01*
X431561D01*
X414751Y400724D02*
X420749D01*
X417750Y403723D01*
Y399724D01*
X419750Y397725D02*
X420749Y396725D01*
Y394726D01*
X419750Y393726D01*
X418750D01*
X417750Y394726D01*
X416751Y393726D01*
X415751D01*
X414751Y394726D01*
Y396725D01*
X415751Y397725D01*
X416751D01*
X417750Y396725D01*
X418750Y397725D01*
X419750D01*
X417750Y396725D02*
Y394726D01*
X414751Y391727D02*
X415751D01*
Y390727D01*
X414751D01*
Y391727D01*
X419750Y386728D02*
X420749Y385729D01*
Y383729D01*
X419750Y382730D01*
X415751D01*
X414751Y383729D01*
Y385729D01*
X415751Y386728D01*
X419750D01*
Y380730D02*
X420749Y379731D01*
Y377731D01*
X419750Y376731D01*
X415751D01*
X414751Y377731D01*
Y379731D01*
X415751Y380730D01*
X419750D01*
X638788Y364077D02*
X637788Y363077D01*
X635789D01*
X634789Y364077D01*
Y368076D01*
X635789Y369075D01*
X637788D01*
X638788Y368076D01*
Y364077D01*
X632790Y369075D02*
Y368076D01*
X631790D01*
Y369075D01*
X632790D01*
X627791Y364077D02*
X626792Y363077D01*
X624792D01*
X623793Y364077D01*
Y368076D01*
X624792Y369075D01*
X626792D01*
X627791Y368076D01*
Y364077D01*
X621793D02*
X620793Y363077D01*
X618794D01*
X617795Y364077D01*
Y368076D01*
X618794Y369075D01*
X620793D01*
X621793Y368076D01*
Y364077D01*
X638788Y352266D02*
X637788Y351266D01*
X635789D01*
X634789Y352266D01*
Y353266D01*
X635789Y354265D01*
X636788D01*
X635789D01*
X634789Y355265D01*
Y356265D01*
X635789Y357264D01*
X637788D01*
X638788Y356265D01*
X632790Y357264D02*
Y356265D01*
X631790D01*
Y357264D01*
X632790D01*
X627791Y352266D02*
X626792Y351266D01*
X624792D01*
X623793Y352266D01*
Y356265D01*
X624792Y357264D01*
X626792D01*
X627791Y356265D01*
Y352266D01*
X621793D02*
X620793Y351266D01*
X618794D01*
X617795Y352266D01*
Y356265D01*
X618794Y357264D01*
X620793D01*
X621793Y356265D01*
Y352266D01*
X643786Y294272D02*
X641787D01*
X642786D01*
Y288274D01*
X643786Y289274D01*
X638788Y293273D02*
X637788Y294272D01*
X635789D01*
X634789Y293273D01*
Y289274D01*
X635789Y288274D01*
X637788D01*
X638788Y289274D01*
Y290273D01*
X637788Y291273D01*
X634789D01*
X632790Y294272D02*
Y293273D01*
X631790D01*
Y294272D01*
X632790D01*
X627791Y289274D02*
X626792Y288274D01*
X624792D01*
X623793Y289274D01*
Y293273D01*
X624792Y294272D01*
X626792D01*
X627791Y293273D01*
Y289274D01*
X621793D02*
X620793Y288274D01*
X618794D01*
X617795Y289274D01*
Y293273D01*
X618794Y294272D01*
X620793D01*
X621793Y293273D01*
Y289274D01*
X640787Y282461D02*
X644786D01*
X640787Y278463D01*
Y277463D01*
X641787Y276463D01*
X643786D01*
X644786Y277463D01*
X634789Y282461D02*
X638788D01*
X634789Y278463D01*
Y277463D01*
X635789Y276463D01*
X637788D01*
X638788Y277463D01*
X632790Y282461D02*
Y281462D01*
X631790D01*
Y282461D01*
X632790D01*
X627791Y277463D02*
X626792Y276463D01*
X624792D01*
X623793Y277463D01*
Y281462D01*
X624792Y282461D01*
X626792D01*
X627791Y281462D01*
Y277463D01*
X621793D02*
X620793Y276463D01*
X618794D01*
X617795Y277463D01*
Y281462D01*
X618794Y282461D01*
X620793D01*
X621793Y281462D01*
Y277463D01*
X657987Y379739D02*
Y373741D01*
X660986Y376740D01*
X656987D01*
X654988D02*
X650989D01*
X648990Y379739D02*
Y373741D01*
X645991D01*
X644991Y374741D01*
Y376740D01*
X645991Y377740D01*
X648990D01*
X646991D02*
X644991Y379739D01*
X642992D02*
X640992D01*
X641992D01*
Y373741D01*
X642992Y374741D01*
X637993Y379739D02*
Y378740D01*
X636994D01*
Y379739D01*
X637993D01*
X632995Y374741D02*
X631995Y373741D01*
X629996D01*
X628996Y374741D01*
Y378740D01*
X629996Y379739D01*
X631995D01*
X632995Y378740D01*
Y374741D01*
X626997D02*
X625997Y373741D01*
X623998D01*
X622998Y374741D01*
Y378740D01*
X623998Y379739D01*
X625997D01*
X626997Y378740D01*
Y374741D01*
X559371Y285790D02*
Y279792D01*
X562370Y282791D01*
X558372D01*
X556372D02*
X552374D01*
X550374Y285790D02*
Y279792D01*
X547375D01*
X546376Y280792D01*
Y282791D01*
X547375Y283791D01*
X550374D01*
X548375D02*
X546376Y285790D01*
X544376D02*
X542377D01*
X543376D01*
Y279792D01*
X544376Y280792D01*
X539378Y285790D02*
Y284791D01*
X538378D01*
Y285790D01*
X539378D01*
X530381Y279792D02*
X532380Y280792D01*
X534379Y282791D01*
Y284791D01*
X533380Y285790D01*
X531380D01*
X530381Y284791D01*
Y283791D01*
X531380Y282791D01*
X534379D01*
X528381Y280792D02*
X527382Y279792D01*
X525382D01*
X524383Y280792D01*
Y284791D01*
X525382Y285790D01*
X527382D01*
X528381Y284791D01*
Y280792D01*
X608726Y303237D02*
X609726Y302237D01*
Y300237D01*
X608726Y299238D01*
X604727D01*
X603728Y300237D01*
Y302237D01*
X604727Y303237D01*
X608726D01*
X603728Y297238D02*
X604727D01*
Y296239D01*
X603728D01*
Y297238D01*
X608726Y292240D02*
X609726Y291240D01*
Y289241D01*
X608726Y288241D01*
X604727D01*
X603728Y289241D01*
Y291240D01*
X604727Y292240D01*
X608726D01*
Y286242D02*
X609726Y285242D01*
Y283243D01*
X608726Y282243D01*
X604727D01*
X603728Y283243D01*
Y285242D01*
X604727Y286242D01*
X608726D01*
X596915Y303237D02*
X597915Y302237D01*
Y300237D01*
X596915Y299238D01*
X595915D01*
X594916Y300237D01*
Y301237D01*
Y300237D01*
X593916Y299238D01*
X592916D01*
X591917Y300237D01*
Y302237D01*
X592916Y303237D01*
X591917Y297238D02*
X592916D01*
Y296239D01*
X591917D01*
Y297238D01*
X596915Y292240D02*
X597915Y291240D01*
Y289241D01*
X596915Y288241D01*
X592916D01*
X591917Y289241D01*
Y291240D01*
X592916Y292240D01*
X596915D01*
Y286242D02*
X597915Y285242D01*
Y283243D01*
X596915Y282243D01*
X592916D01*
X591917Y283243D01*
Y285242D01*
X592916Y286242D01*
X596915D01*
X426562Y306236D02*
X432560D01*
X429561Y309235D01*
Y305236D01*
X432560Y299238D02*
Y303237D01*
X429561D01*
X430561Y301237D01*
Y300237D01*
X429561Y299238D01*
X427562D01*
X426562Y300237D01*
Y302237D01*
X427562Y303237D01*
X426562Y297238D02*
X427562D01*
Y296239D01*
X426562D01*
Y297238D01*
X431561Y292240D02*
X432560Y291240D01*
Y289241D01*
X431561Y288241D01*
X427562D01*
X426562Y289241D01*
Y291240D01*
X427562Y292240D01*
X431561D01*
Y286242D02*
X432560Y285242D01*
Y283243D01*
X431561Y282243D01*
X427562D01*
X426562Y283243D01*
Y285242D01*
X427562Y286242D01*
X431561D01*
X414751Y306236D02*
X420749D01*
X417750Y309235D01*
Y305236D01*
X419750Y303237D02*
X420749Y302237D01*
Y300237D01*
X419750Y299238D01*
X418750D01*
X417750Y300237D01*
X416751Y299238D01*
X415751D01*
X414751Y300237D01*
Y302237D01*
X415751Y303237D01*
X416751D01*
X417750Y302237D01*
X418750Y303237D01*
X419750D01*
X417750Y302237D02*
Y300237D01*
X414751Y297238D02*
X415751D01*
Y296239D01*
X414751D01*
Y297238D01*
X419750Y292240D02*
X420749Y291240D01*
Y289241D01*
X419750Y288241D01*
X415751D01*
X414751Y289241D01*
Y291240D01*
X415751Y292240D01*
X419750D01*
Y286242D02*
X420749Y285242D01*
Y283243D01*
X419750Y282243D01*
X415751D01*
X414751Y283243D01*
Y285242D01*
X415751Y286242D01*
X419750D01*
X638788Y269589D02*
X637788Y268589D01*
X635789D01*
X634789Y269589D01*
Y273587D01*
X635789Y274587D01*
X637788D01*
X638788Y273587D01*
Y269589D01*
X632790Y274587D02*
Y273587D01*
X631790D01*
Y274587D01*
X632790D01*
X627791Y269589D02*
X626792Y268589D01*
X624792D01*
X623793Y269589D01*
Y273587D01*
X624792Y274587D01*
X626792D01*
X627791Y273587D01*
Y269589D01*
X621793D02*
X620793Y268589D01*
X618794D01*
X617795Y269589D01*
Y273587D01*
X618794Y274587D01*
X620793D01*
X621793Y273587D01*
Y269589D01*
X638788Y257778D02*
X637788Y256778D01*
X635789D01*
X634789Y257778D01*
Y258777D01*
X635789Y259777D01*
X636788D01*
X635789D01*
X634789Y260777D01*
Y261776D01*
X635789Y262776D01*
X637788D01*
X638788Y261776D01*
X632790Y262776D02*
Y261776D01*
X631790D01*
Y262776D01*
X632790D01*
X627791Y257778D02*
X626792Y256778D01*
X624792D01*
X623793Y257778D01*
Y261776D01*
X624792Y262776D01*
X626792D01*
X627791Y261776D01*
Y257778D01*
X621793D02*
X620793Y256778D01*
X618794D01*
X617795Y257778D01*
Y261776D01*
X618794Y262776D01*
X620793D01*
X621793Y261776D01*
Y257778D01*
X643786Y199784D02*
X641787D01*
X642786D01*
Y193786D01*
X643786Y194786D01*
X638788Y198784D02*
X637788Y199784D01*
X635789D01*
X634789Y198784D01*
Y194786D01*
X635789Y193786D01*
X637788D01*
X638788Y194786D01*
Y195785D01*
X637788Y196785D01*
X634789D01*
X632790Y199784D02*
Y198784D01*
X631790D01*
Y199784D01*
X632790D01*
X627791Y194786D02*
X626792Y193786D01*
X624792D01*
X623793Y194786D01*
Y198784D01*
X624792Y199784D01*
X626792D01*
X627791Y198784D01*
Y194786D01*
X621793D02*
X620793Y193786D01*
X618794D01*
X617795Y194786D01*
Y198784D01*
X618794Y199784D01*
X620793D01*
X621793Y198784D01*
Y194786D01*
X640787Y187973D02*
X644786D01*
X640787Y183974D01*
Y182975D01*
X641787Y181975D01*
X643786D01*
X644786Y182975D01*
X634789Y187973D02*
X638788D01*
X634789Y183974D01*
Y182975D01*
X635789Y181975D01*
X637788D01*
X638788Y182975D01*
X632790Y187973D02*
Y186973D01*
X631790D01*
Y187973D01*
X632790D01*
X627791Y182975D02*
X626792Y181975D01*
X624792D01*
X623793Y182975D01*
Y186973D01*
X624792Y187973D01*
X626792D01*
X627791Y186973D01*
Y182975D01*
X621793D02*
X620793Y181975D01*
X618794D01*
X617795Y182975D01*
Y186973D01*
X618794Y187973D01*
X620793D01*
X621793Y186973D01*
Y182975D01*
X657987Y285251D02*
Y279253D01*
X660986Y282252D01*
X656987D01*
X654988D02*
X650989D01*
X648990Y285251D02*
Y279253D01*
X645991D01*
X644991Y280253D01*
Y282252D01*
X645991Y283252D01*
X648990D01*
X646991D02*
X644991Y285251D01*
X642992D02*
X640992D01*
X641992D01*
Y279253D01*
X642992Y280253D01*
X637993Y285251D02*
Y284251D01*
X636994D01*
Y285251D01*
X637993D01*
X632995Y280253D02*
X631995Y279253D01*
X629996D01*
X628996Y280253D01*
Y284251D01*
X629996Y285251D01*
X631995D01*
X632995Y284251D01*
Y280253D01*
X626997D02*
X625997Y279253D01*
X623998D01*
X622998Y280253D01*
Y284251D01*
X623998Y285251D01*
X625997D01*
X626997Y284251D01*
Y280253D01*
X269456Y169572D02*
Y175570D01*
X266457Y172571D01*
X270455D01*
X272455D02*
X276453D01*
X278453Y169572D02*
Y175570D01*
X281452D01*
X282451Y174570D01*
Y172571D01*
X281452Y171571D01*
X278453D01*
X280452D02*
X282451Y169572D01*
X284451D02*
X286450D01*
X285450D01*
Y175570D01*
X284451Y174570D01*
X289449Y169572D02*
Y170571D01*
X290449D01*
Y169572D01*
X289449D01*
X298446Y175570D02*
X296447Y174570D01*
X294447Y172571D01*
Y170571D01*
X295447Y169572D01*
X297446D01*
X298446Y170571D01*
Y171571D01*
X297446Y172571D01*
X294447D01*
X300446Y174570D02*
X301445Y175570D01*
X303445D01*
X304444Y174570D01*
Y170571D01*
X303445Y169572D01*
X301445D01*
X300446Y170571D01*
Y174570D01*
X220101Y152126D02*
X219101Y153125D01*
Y155125D01*
X220101Y156124D01*
X224099D01*
X225099Y155125D01*
Y153125D01*
X224099Y152126D01*
X220101D01*
X225099Y158124D02*
X224099D01*
Y159123D01*
X225099D01*
Y158124D01*
X220101Y163122D02*
X219101Y164122D01*
Y166121D01*
X220101Y167121D01*
X224099D01*
X225099Y166121D01*
Y164122D01*
X224099Y163122D01*
X220101D01*
Y169120D02*
X219101Y170120D01*
Y172119D01*
X220101Y173119D01*
X224099D01*
X225099Y172119D01*
Y170120D01*
X224099Y169120D01*
X220101D01*
X231912Y152126D02*
X230912Y153125D01*
Y155125D01*
X231912Y156124D01*
X232911D01*
X233911Y155125D01*
Y154125D01*
Y155125D01*
X234911Y156124D01*
X235910D01*
X236910Y155125D01*
Y153125D01*
X235910Y152126D01*
X236910Y158124D02*
X235910D01*
Y159123D01*
X236910D01*
Y158124D01*
X231912Y163122D02*
X230912Y164122D01*
Y166121D01*
X231912Y167121D01*
X235910D01*
X236910Y166121D01*
Y164122D01*
X235910Y163122D01*
X231912D01*
Y169120D02*
X230912Y170120D01*
Y172119D01*
X231912Y173119D01*
X235910D01*
X236910Y172119D01*
Y170120D01*
X235910Y169120D01*
X231912D01*
X402264Y149127D02*
X396266D01*
X399265Y146128D01*
Y150126D01*
X396266Y156124D02*
Y152126D01*
X399265D01*
X398266Y154125D01*
Y155125D01*
X399265Y156124D01*
X401265D01*
X402264Y155125D01*
Y153125D01*
X401265Y152126D01*
X402264Y158124D02*
X401265D01*
Y159123D01*
X402264D01*
Y158124D01*
X397266Y163122D02*
X396266Y164122D01*
Y166121D01*
X397266Y167121D01*
X401265D01*
X402264Y166121D01*
Y164122D01*
X401265Y163122D01*
X397266D01*
Y169120D02*
X396266Y170120D01*
Y172119D01*
X397266Y173119D01*
X401265D01*
X402264Y172119D01*
Y170120D01*
X401265Y169120D01*
X397266D01*
X414075Y149127D02*
X408077D01*
X411076Y146128D01*
Y150126D01*
X409077Y152126D02*
X408077Y153125D01*
Y155125D01*
X409077Y156124D01*
X410077D01*
X411076Y155125D01*
X412076Y156124D01*
X413076D01*
X414075Y155125D01*
Y153125D01*
X413076Y152126D01*
X412076D01*
X411076Y153125D01*
X410077Y152126D01*
X409077D01*
X411076Y153125D02*
Y155125D01*
X414075Y158124D02*
X413076D01*
Y159123D01*
X414075D01*
Y158124D01*
X409077Y163122D02*
X408077Y164122D01*
Y166121D01*
X409077Y167121D01*
X413076D01*
X414075Y166121D01*
Y164122D01*
X413076Y163122D01*
X409077D01*
Y169120D02*
X408077Y170120D01*
Y172119D01*
X409077Y173119D01*
X413076D01*
X414075Y172119D01*
Y170120D01*
X413076Y169120D01*
X409077D01*
X190039Y185773D02*
X191039Y186773D01*
X193038D01*
X194038Y185773D01*
Y181775D01*
X193038Y180775D01*
X191039D01*
X190039Y181775D01*
Y185773D01*
X196037Y180775D02*
Y181775D01*
X197037D01*
Y180775D01*
X196037D01*
X201035Y185773D02*
X202035Y186773D01*
X204034D01*
X205034Y185773D01*
Y181775D01*
X204034Y180775D01*
X202035D01*
X201035Y181775D01*
Y185773D01*
X207034D02*
X208033Y186773D01*
X210033D01*
X211032Y185773D01*
Y181775D01*
X210033Y180775D01*
X208033D01*
X207034Y181775D01*
Y185773D01*
X190039Y197584D02*
X191039Y198584D01*
X193038D01*
X194038Y197584D01*
Y196585D01*
X193038Y195585D01*
X192038D01*
X193038D01*
X194038Y194585D01*
Y193586D01*
X193038Y192586D01*
X191039D01*
X190039Y193586D01*
X196037Y192586D02*
Y193586D01*
X197037D01*
Y192586D01*
X196037D01*
X201035Y197584D02*
X202035Y198584D01*
X204034D01*
X205034Y197584D01*
Y193586D01*
X204034Y192586D01*
X202035D01*
X201035Y193586D01*
Y197584D01*
X207034D02*
X208033Y198584D01*
X210033D01*
X211032Y197584D01*
Y193586D01*
X210033Y192586D01*
X208033D01*
X207034Y193586D01*
Y197584D01*
X185041Y255578D02*
X187040D01*
X186040D01*
Y261576D01*
X185041Y260577D01*
X190039Y256578D02*
X191039Y255578D01*
X193038D01*
X194038Y256578D01*
Y260577D01*
X193038Y261576D01*
X191039D01*
X190039Y260577D01*
Y259577D01*
X191039Y258577D01*
X194038D01*
X196037Y255578D02*
Y256578D01*
X197037D01*
Y255578D01*
X196037D01*
X201035Y260577D02*
X202035Y261576D01*
X204034D01*
X205034Y260577D01*
Y256578D01*
X204034Y255578D01*
X202035D01*
X201035Y256578D01*
Y260577D01*
X207034D02*
X208033Y261576D01*
X210033D01*
X211032Y260577D01*
Y256578D01*
X210033Y255578D01*
X208033D01*
X207034Y256578D01*
Y260577D01*
X188040Y267389D02*
X184041D01*
X188040Y271388D01*
Y272388D01*
X187040Y273387D01*
X185041D01*
X184041Y272388D01*
X194038Y267389D02*
X190039D01*
X194038Y271388D01*
Y272388D01*
X193038Y273387D01*
X191039D01*
X190039Y272388D01*
X196037Y267389D02*
Y268389D01*
X197037D01*
Y267389D01*
X196037D01*
X201035Y272388D02*
X202035Y273387D01*
X204034D01*
X205034Y272388D01*
Y268389D01*
X204034Y267389D01*
X202035D01*
X201035Y268389D01*
Y272388D01*
X207034D02*
X208033Y273387D01*
X210033D01*
X211032Y272388D01*
Y268389D01*
X210033Y267389D01*
X208033D01*
X207034Y268389D01*
Y272388D01*
X170840Y170111D02*
Y176109D01*
X167841Y173110D01*
X171839D01*
X173839D02*
X177838D01*
X179837Y170111D02*
Y176109D01*
X182836D01*
X183836Y175110D01*
Y173110D01*
X182836Y172111D01*
X179837D01*
X181836D02*
X183836Y170111D01*
X185835D02*
X187834D01*
X186835D01*
Y176109D01*
X185835Y175110D01*
X190833Y170111D02*
Y171111D01*
X191833D01*
Y170111D01*
X190833D01*
X195832Y175110D02*
X196831Y176109D01*
X198831D01*
X199830Y175110D01*
Y171111D01*
X198831Y170111D01*
X196831D01*
X195832Y171111D01*
Y175110D01*
X201830D02*
X202829Y176109D01*
X204829D01*
X205828Y175110D01*
Y171111D01*
X204829Y170111D01*
X202829D01*
X201830Y171111D01*
Y175110D01*
X269456Y264060D02*
Y270058D01*
X266457Y267059D01*
X270455D01*
X272455D02*
X276453D01*
X278453Y264060D02*
Y270058D01*
X281452D01*
X282451Y269058D01*
Y267059D01*
X281452Y266059D01*
X278453D01*
X280452D02*
X282451Y264060D01*
X284451D02*
X286450D01*
X285450D01*
Y270058D01*
X284451Y269058D01*
X289449Y264060D02*
Y265060D01*
X290449D01*
Y264060D01*
X289449D01*
X298446Y270058D02*
X296447Y269058D01*
X294447Y267059D01*
Y265060D01*
X295447Y264060D01*
X297446D01*
X298446Y265060D01*
Y266059D01*
X297446Y267059D01*
X294447D01*
X300446Y269058D02*
X301445Y270058D01*
X303445D01*
X304444Y269058D01*
Y265060D01*
X303445Y264060D01*
X301445D01*
X300446Y265060D01*
Y269058D01*
X220101Y246614D02*
X219101Y247614D01*
Y249613D01*
X220101Y250613D01*
X224099D01*
X225099Y249613D01*
Y247614D01*
X224099Y246614D01*
X220101D01*
X225099Y252612D02*
X224099D01*
Y253612D01*
X225099D01*
Y252612D01*
X220101Y257610D02*
X219101Y258610D01*
Y260609D01*
X220101Y261609D01*
X224099D01*
X225099Y260609D01*
Y258610D01*
X224099Y257610D01*
X220101D01*
Y263608D02*
X219101Y264608D01*
Y266607D01*
X220101Y267607D01*
X224099D01*
X225099Y266607D01*
Y264608D01*
X224099Y263608D01*
X220101D01*
X231912Y246614D02*
X230912Y247614D01*
Y249613D01*
X231912Y250613D01*
X232911D01*
X233911Y249613D01*
Y248613D01*
Y249613D01*
X234911Y250613D01*
X235910D01*
X236910Y249613D01*
Y247614D01*
X235910Y246614D01*
X236910Y252612D02*
X235910D01*
Y253612D01*
X236910D01*
Y252612D01*
X231912Y257610D02*
X230912Y258610D01*
Y260609D01*
X231912Y261609D01*
X235910D01*
X236910Y260609D01*
Y258610D01*
X235910Y257610D01*
X231912D01*
Y263608D02*
X230912Y264608D01*
Y266607D01*
X231912Y267607D01*
X235910D01*
X236910Y266607D01*
Y264608D01*
X235910Y263608D01*
X231912D01*
X402264Y243615D02*
X396266D01*
X399265Y240616D01*
Y244615D01*
X396266Y250613D02*
Y246614D01*
X399265D01*
X398266Y248613D01*
Y249613D01*
X399265Y250613D01*
X401265D01*
X402264Y249613D01*
Y247614D01*
X401265Y246614D01*
X402264Y252612D02*
X401265D01*
Y253612D01*
X402264D01*
Y252612D01*
X397266Y257610D02*
X396266Y258610D01*
Y260609D01*
X397266Y261609D01*
X401265D01*
X402264Y260609D01*
Y258610D01*
X401265Y257610D01*
X397266D01*
Y263608D02*
X396266Y264608D01*
Y266607D01*
X397266Y267607D01*
X401265D01*
X402264Y266607D01*
Y264608D01*
X401265Y263608D01*
X397266D01*
X414075Y243615D02*
X408077D01*
X411076Y240616D01*
Y244615D01*
X409077Y246614D02*
X408077Y247614D01*
Y249613D01*
X409077Y250613D01*
X410077D01*
X411076Y249613D01*
X412076Y250613D01*
X413076D01*
X414075Y249613D01*
Y247614D01*
X413076Y246614D01*
X412076D01*
X411076Y247614D01*
X410077Y246614D01*
X409077D01*
X411076Y247614D02*
Y249613D01*
X414075Y252612D02*
X413076D01*
Y253612D01*
X414075D01*
Y252612D01*
X409077Y257610D02*
X408077Y258610D01*
Y260609D01*
X409077Y261609D01*
X413076D01*
X414075Y260609D01*
Y258610D01*
X413076Y257610D01*
X409077D01*
Y263608D02*
X408077Y264608D01*
Y266607D01*
X409077Y267607D01*
X413076D01*
X414075Y266607D01*
Y264608D01*
X413076Y263608D01*
X409077D01*
X190039Y280262D02*
X191039Y281261D01*
X193038D01*
X194038Y280262D01*
Y276263D01*
X193038Y275263D01*
X191039D01*
X190039Y276263D01*
Y280262D01*
X196037Y275263D02*
Y276263D01*
X197037D01*
Y275263D01*
X196037D01*
X201035Y280262D02*
X202035Y281261D01*
X204034D01*
X205034Y280262D01*
Y276263D01*
X204034Y275263D01*
X202035D01*
X201035Y276263D01*
Y280262D01*
X207034D02*
X208033Y281261D01*
X210033D01*
X211032Y280262D01*
Y276263D01*
X210033Y275263D01*
X208033D01*
X207034Y276263D01*
Y280262D01*
X190039Y292073D02*
X191039Y293072D01*
X193038D01*
X194038Y292073D01*
Y291073D01*
X193038Y290073D01*
X192038D01*
X193038D01*
X194038Y289073D01*
Y288074D01*
X193038Y287074D01*
X191039D01*
X190039Y288074D01*
X196037Y287074D02*
Y288074D01*
X197037D01*
Y287074D01*
X196037D01*
X201035Y292073D02*
X202035Y293072D01*
X204034D01*
X205034Y292073D01*
Y288074D01*
X204034Y287074D01*
X202035D01*
X201035Y288074D01*
Y292073D01*
X207034D02*
X208033Y293072D01*
X210033D01*
X211032Y292073D01*
Y288074D01*
X210033Y287074D01*
X208033D01*
X207034Y288074D01*
Y292073D01*
X185041Y350066D02*
X187040D01*
X186040D01*
Y356064D01*
X185041Y355065D01*
X190039Y351066D02*
X191039Y350066D01*
X193038D01*
X194038Y351066D01*
Y355065D01*
X193038Y356064D01*
X191039D01*
X190039Y355065D01*
Y354065D01*
X191039Y353065D01*
X194038D01*
X196037Y350066D02*
Y351066D01*
X197037D01*
Y350066D01*
X196037D01*
X201035Y355065D02*
X202035Y356064D01*
X204034D01*
X205034Y355065D01*
Y351066D01*
X204034Y350066D01*
X202035D01*
X201035Y351066D01*
Y355065D01*
X207034D02*
X208033Y356064D01*
X210033D01*
X211032Y355065D01*
Y351066D01*
X210033Y350066D01*
X208033D01*
X207034Y351066D01*
Y355065D01*
X188040Y361877D02*
X184041D01*
X188040Y365876D01*
Y366876D01*
X187040Y367875D01*
X185041D01*
X184041Y366876D01*
X194038Y361877D02*
X190039D01*
X194038Y365876D01*
Y366876D01*
X193038Y367875D01*
X191039D01*
X190039Y366876D01*
X196037Y361877D02*
Y362877D01*
X197037D01*
Y361877D01*
X196037D01*
X201035Y366876D02*
X202035Y367875D01*
X204034D01*
X205034Y366876D01*
Y362877D01*
X204034Y361877D01*
X202035D01*
X201035Y362877D01*
Y366876D01*
X207034D02*
X208033Y367875D01*
X210033D01*
X211032Y366876D01*
Y362877D01*
X210033Y361877D01*
X208033D01*
X207034Y362877D01*
Y366876D01*
X170840Y264599D02*
Y270598D01*
X167841Y267599D01*
X171839D01*
X173839D02*
X177838D01*
X179837Y264599D02*
Y270598D01*
X182836D01*
X183836Y269598D01*
Y267599D01*
X182836Y266599D01*
X179837D01*
X181836D02*
X183836Y264599D01*
X185835D02*
X187834D01*
X186835D01*
Y270598D01*
X185835Y269598D01*
X190833Y264599D02*
Y265599D01*
X191833D01*
Y264599D01*
X190833D01*
X195832Y269598D02*
X196831Y270598D01*
X198831D01*
X199830Y269598D01*
Y265599D01*
X198831Y264599D01*
X196831D01*
X195832Y265599D01*
Y269598D01*
X201830D02*
X202829Y270598D01*
X204829D01*
X205828Y269598D01*
Y265599D01*
X204829Y264599D01*
X202829D01*
X201830Y265599D01*
Y269598D01*
X269456Y358548D02*
Y364546D01*
X266457Y361547D01*
X270455D01*
X272455D02*
X276453D01*
X278453Y358548D02*
Y364546D01*
X281452D01*
X282451Y363546D01*
Y361547D01*
X281452Y360547D01*
X278453D01*
X280452D02*
X282451Y358548D01*
X284451D02*
X286450D01*
X285450D01*
Y364546D01*
X284451Y363546D01*
X289449Y358548D02*
Y359548D01*
X290449D01*
Y358548D01*
X289449D01*
X298446Y364546D02*
X296447Y363546D01*
X294447Y361547D01*
Y359548D01*
X295447Y358548D01*
X297446D01*
X298446Y359548D01*
Y360547D01*
X297446Y361547D01*
X294447D01*
X300446Y363546D02*
X301445Y364546D01*
X303445D01*
X304444Y363546D01*
Y359548D01*
X303445Y358548D01*
X301445D01*
X300446Y359548D01*
Y363546D01*
X220101Y341102D02*
X219101Y342102D01*
Y344101D01*
X220101Y345101D01*
X224099D01*
X225099Y344101D01*
Y342102D01*
X224099Y341102D01*
X220101D01*
X225099Y347100D02*
X224099D01*
Y348100D01*
X225099D01*
Y347100D01*
X220101Y352098D02*
X219101Y353098D01*
Y355098D01*
X220101Y356097D01*
X224099D01*
X225099Y355098D01*
Y353098D01*
X224099Y352098D01*
X220101D01*
Y358097D02*
X219101Y359096D01*
Y361096D01*
X220101Y362095D01*
X224099D01*
X225099Y361096D01*
Y359096D01*
X224099Y358097D01*
X220101D01*
X231912Y341102D02*
X230912Y342102D01*
Y344101D01*
X231912Y345101D01*
X232911D01*
X233911Y344101D01*
Y343101D01*
Y344101D01*
X234911Y345101D01*
X235910D01*
X236910Y344101D01*
Y342102D01*
X235910Y341102D01*
X236910Y347100D02*
X235910D01*
Y348100D01*
X236910D01*
Y347100D01*
X231912Y352098D02*
X230912Y353098D01*
Y355098D01*
X231912Y356097D01*
X235910D01*
X236910Y355098D01*
Y353098D01*
X235910Y352098D01*
X231912D01*
Y358097D02*
X230912Y359096D01*
Y361096D01*
X231912Y362095D01*
X235910D01*
X236910Y361096D01*
Y359096D01*
X235910Y358097D01*
X231912D01*
X402264Y338103D02*
X396266D01*
X399265Y335104D01*
Y339103D01*
X396266Y345101D02*
Y341102D01*
X399265D01*
X398266Y343101D01*
Y344101D01*
X399265Y345101D01*
X401265D01*
X402264Y344101D01*
Y342102D01*
X401265Y341102D01*
X402264Y347100D02*
X401265D01*
Y348100D01*
X402264D01*
Y347100D01*
X397266Y352098D02*
X396266Y353098D01*
Y355098D01*
X397266Y356097D01*
X401265D01*
X402264Y355098D01*
Y353098D01*
X401265Y352098D01*
X397266D01*
Y358097D02*
X396266Y359096D01*
Y361096D01*
X397266Y362095D01*
X401265D01*
X402264Y361096D01*
Y359096D01*
X401265Y358097D01*
X397266D01*
X414075Y338103D02*
X408077D01*
X411076Y335104D01*
Y339103D01*
X409077Y341102D02*
X408077Y342102D01*
Y344101D01*
X409077Y345101D01*
X410077D01*
X411076Y344101D01*
X412076Y345101D01*
X413076D01*
X414075Y344101D01*
Y342102D01*
X413076Y341102D01*
X412076D01*
X411076Y342102D01*
X410077Y341102D01*
X409077D01*
X411076Y342102D02*
Y344101D01*
X414075Y347100D02*
X413076D01*
Y348100D01*
X414075D01*
Y347100D01*
X409077Y352098D02*
X408077Y353098D01*
Y355098D01*
X409077Y356097D01*
X413076D01*
X414075Y355098D01*
Y353098D01*
X413076Y352098D01*
X409077D01*
Y358097D02*
X408077Y359096D01*
Y361096D01*
X409077Y362095D01*
X413076D01*
X414075Y361096D01*
Y359096D01*
X413076Y358097D01*
X409077D01*
X190039Y374750D02*
X191039Y375749D01*
X193038D01*
X194038Y374750D01*
Y370751D01*
X193038Y369751D01*
X191039D01*
X190039Y370751D01*
Y374750D01*
X196037Y369751D02*
Y370751D01*
X197037D01*
Y369751D01*
X196037D01*
X201035Y374750D02*
X202035Y375749D01*
X204034D01*
X205034Y374750D01*
Y370751D01*
X204034Y369751D01*
X202035D01*
X201035Y370751D01*
Y374750D01*
X207034D02*
X208033Y375749D01*
X210033D01*
X211032Y374750D01*
Y370751D01*
X210033Y369751D01*
X208033D01*
X207034Y370751D01*
Y374750D01*
X190039Y386561D02*
X191039Y387560D01*
X193038D01*
X194038Y386561D01*
Y385561D01*
X193038Y384561D01*
X192038D01*
X193038D01*
X194038Y383562D01*
Y382562D01*
X193038Y381562D01*
X191039D01*
X190039Y382562D01*
X196037Y381562D02*
Y382562D01*
X197037D01*
Y381562D01*
X196037D01*
X201035Y386561D02*
X202035Y387560D01*
X204034D01*
X205034Y386561D01*
Y382562D01*
X204034Y381562D01*
X202035D01*
X201035Y382562D01*
Y386561D01*
X207034D02*
X208033Y387560D01*
X210033D01*
X211032Y386561D01*
Y382562D01*
X210033Y381562D01*
X208033D01*
X207034Y382562D01*
Y386561D01*
X185041Y444555D02*
X187040D01*
X186040D01*
Y450553D01*
X185041Y449553D01*
X190039Y445554D02*
X191039Y444555D01*
X193038D01*
X194038Y445554D01*
Y449553D01*
X193038Y450553D01*
X191039D01*
X190039Y449553D01*
Y448553D01*
X191039Y447553D01*
X194038D01*
X196037Y444555D02*
Y445554D01*
X197037D01*
Y444555D01*
X196037D01*
X201035Y449553D02*
X202035Y450553D01*
X204034D01*
X205034Y449553D01*
Y445554D01*
X204034Y444555D01*
X202035D01*
X201035Y445554D01*
Y449553D01*
X207034D02*
X208033Y450553D01*
X210033D01*
X211032Y449553D01*
Y445554D01*
X210033Y444555D01*
X208033D01*
X207034Y445554D01*
Y449553D01*
X188040Y456365D02*
X184041D01*
X188040Y460364D01*
Y461364D01*
X187040Y462364D01*
X185041D01*
X184041Y461364D01*
X194038Y456365D02*
X190039D01*
X194038Y460364D01*
Y461364D01*
X193038Y462364D01*
X191039D01*
X190039Y461364D01*
X196037Y456365D02*
Y457365D01*
X197037D01*
Y456365D01*
X196037D01*
X201035Y461364D02*
X202035Y462364D01*
X204034D01*
X205034Y461364D01*
Y457365D01*
X204034Y456365D01*
X202035D01*
X201035Y457365D01*
Y461364D01*
X207034D02*
X208033Y462364D01*
X210033D01*
X211032Y461364D01*
Y457365D01*
X210033Y456365D01*
X208033D01*
X207034Y457365D01*
Y461364D01*
X170840Y359088D02*
Y365086D01*
X167841Y362087D01*
X171839D01*
X173839D02*
X177838D01*
X179837Y359088D02*
Y365086D01*
X182836D01*
X183836Y364086D01*
Y362087D01*
X182836Y361087D01*
X179837D01*
X181836D02*
X183836Y359088D01*
X185835D02*
X187834D01*
X186835D01*
Y365086D01*
X185835Y364086D01*
X190833Y359088D02*
Y360087D01*
X191833D01*
Y359088D01*
X190833D01*
X195832Y364086D02*
X196831Y365086D01*
X198831D01*
X199830Y364086D01*
Y360087D01*
X198831Y359088D01*
X196831D01*
X195832Y360087D01*
Y364086D01*
X201830D02*
X202829Y365086D01*
X204829D01*
X205828Y364086D01*
Y360087D01*
X204829Y359088D01*
X202829D01*
X201830Y360087D01*
Y364086D01*
X269456Y453036D02*
Y459034D01*
X266457Y456035D01*
X270455D01*
X272455D02*
X276453D01*
X278453Y453036D02*
Y459034D01*
X281452D01*
X282451Y458035D01*
Y456035D01*
X281452Y455036D01*
X278453D01*
X280452D02*
X282451Y453036D01*
X284451D02*
X286450D01*
X285450D01*
Y459034D01*
X284451Y458035D01*
X289449Y453036D02*
Y454036D01*
X290449D01*
Y453036D01*
X289449D01*
X298446Y459034D02*
X296447Y458035D01*
X294447Y456035D01*
Y454036D01*
X295447Y453036D01*
X297446D01*
X298446Y454036D01*
Y455036D01*
X297446Y456035D01*
X294447D01*
X300446Y458035D02*
X301445Y459034D01*
X303445D01*
X304444Y458035D01*
Y454036D01*
X303445Y453036D01*
X301445D01*
X300446Y454036D01*
Y458035D01*
X220101Y435590D02*
X219101Y436590D01*
Y438589D01*
X220101Y439589D01*
X224099D01*
X225099Y438589D01*
Y436590D01*
X224099Y435590D01*
X220101D01*
X225099Y441588D02*
X224099D01*
Y442588D01*
X225099D01*
Y441588D01*
X220101Y446587D02*
X219101Y447586D01*
Y449586D01*
X220101Y450585D01*
X224099D01*
X225099Y449586D01*
Y447586D01*
X224099Y446587D01*
X220101D01*
Y452585D02*
X219101Y453584D01*
Y455584D01*
X220101Y456583D01*
X224099D01*
X225099Y455584D01*
Y453584D01*
X224099Y452585D01*
X220101D01*
X231912Y435590D02*
X230912Y436590D01*
Y438589D01*
X231912Y439589D01*
X232911D01*
X233911Y438589D01*
Y437590D01*
Y438589D01*
X234911Y439589D01*
X235910D01*
X236910Y438589D01*
Y436590D01*
X235910Y435590D01*
X236910Y441588D02*
X235910D01*
Y442588D01*
X236910D01*
Y441588D01*
X231912Y446587D02*
X230912Y447586D01*
Y449586D01*
X231912Y450585D01*
X235910D01*
X236910Y449586D01*
Y447586D01*
X235910Y446587D01*
X231912D01*
Y452585D02*
X230912Y453584D01*
Y455584D01*
X231912Y456583D01*
X235910D01*
X236910Y455584D01*
Y453584D01*
X235910Y452585D01*
X231912D01*
X402264Y432591D02*
X396266D01*
X399265Y429592D01*
Y433591D01*
X396266Y439589D02*
Y435590D01*
X399265D01*
X398266Y437590D01*
Y438589D01*
X399265Y439589D01*
X401265D01*
X402264Y438589D01*
Y436590D01*
X401265Y435590D01*
X402264Y441588D02*
X401265D01*
Y442588D01*
X402264D01*
Y441588D01*
X397266Y446587D02*
X396266Y447586D01*
Y449586D01*
X397266Y450585D01*
X401265D01*
X402264Y449586D01*
Y447586D01*
X401265Y446587D01*
X397266D01*
Y452585D02*
X396266Y453584D01*
Y455584D01*
X397266Y456583D01*
X401265D01*
X402264Y455584D01*
Y453584D01*
X401265Y452585D01*
X397266D01*
X414075Y432591D02*
X408077D01*
X411076Y429592D01*
Y433591D01*
X409077Y435590D02*
X408077Y436590D01*
Y438589D01*
X409077Y439589D01*
X410077D01*
X411076Y438589D01*
X412076Y439589D01*
X413076D01*
X414075Y438589D01*
Y436590D01*
X413076Y435590D01*
X412076D01*
X411076Y436590D01*
X410077Y435590D01*
X409077D01*
X411076Y436590D02*
Y438589D01*
X414075Y441588D02*
X413076D01*
Y442588D01*
X414075D01*
Y441588D01*
X409077Y446587D02*
X408077Y447586D01*
Y449586D01*
X409077Y450585D01*
X413076D01*
X414075Y449586D01*
Y447586D01*
X413076Y446587D01*
X409077D01*
Y452585D02*
X408077Y453584D01*
Y455584D01*
X409077Y456583D01*
X413076D01*
X414075Y455584D01*
Y453584D01*
X413076Y452585D01*
X409077D01*
X190039Y469238D02*
X191039Y470238D01*
X193038D01*
X194038Y469238D01*
Y465239D01*
X193038Y464240D01*
X191039D01*
X190039Y465239D01*
Y469238D01*
X196037Y464240D02*
Y465239D01*
X197037D01*
Y464240D01*
X196037D01*
X201035Y469238D02*
X202035Y470238D01*
X204034D01*
X205034Y469238D01*
Y465239D01*
X204034Y464240D01*
X202035D01*
X201035Y465239D01*
Y469238D01*
X207034D02*
X208033Y470238D01*
X210033D01*
X211032Y469238D01*
Y465239D01*
X210033Y464240D01*
X208033D01*
X207034Y465239D01*
Y469238D01*
X190039Y481049D02*
X191039Y482049D01*
X193038D01*
X194038Y481049D01*
Y480049D01*
X193038Y479050D01*
X192038D01*
X193038D01*
X194038Y478050D01*
Y477050D01*
X193038Y476051D01*
X191039D01*
X190039Y477050D01*
X196037Y476051D02*
Y477050D01*
X197037D01*
Y476051D01*
X196037D01*
X201035Y481049D02*
X202035Y482049D01*
X204034D01*
X205034Y481049D01*
Y477050D01*
X204034Y476051D01*
X202035D01*
X201035Y477050D01*
Y481049D01*
X207034D02*
X208033Y482049D01*
X210033D01*
X211032Y481049D01*
Y477050D01*
X210033Y476051D01*
X208033D01*
X207034Y477050D01*
Y481049D01*
X185041Y539043D02*
X187040D01*
X186040D01*
Y545041D01*
X185041Y544041D01*
X190039Y540042D02*
X191039Y539043D01*
X193038D01*
X194038Y540042D01*
Y544041D01*
X193038Y545041D01*
X191039D01*
X190039Y544041D01*
Y543041D01*
X191039Y542042D01*
X194038D01*
X196037Y539043D02*
Y540042D01*
X197037D01*
Y539043D01*
X196037D01*
X201035Y544041D02*
X202035Y545041D01*
X204034D01*
X205034Y544041D01*
Y540042D01*
X204034Y539043D01*
X202035D01*
X201035Y540042D01*
Y544041D01*
X207034D02*
X208033Y545041D01*
X210033D01*
X211032Y544041D01*
Y540042D01*
X210033Y539043D01*
X208033D01*
X207034Y540042D01*
Y544041D01*
X188040Y550854D02*
X184041D01*
X188040Y554852D01*
Y555852D01*
X187040Y556852D01*
X185041D01*
X184041Y555852D01*
X194038Y550854D02*
X190039D01*
X194038Y554852D01*
Y555852D01*
X193038Y556852D01*
X191039D01*
X190039Y555852D01*
X196037Y550854D02*
Y551853D01*
X197037D01*
Y550854D01*
X196037D01*
X201035Y555852D02*
X202035Y556852D01*
X204034D01*
X205034Y555852D01*
Y551853D01*
X204034Y550854D01*
X202035D01*
X201035Y551853D01*
Y555852D01*
X207034D02*
X208033Y556852D01*
X210033D01*
X211032Y555852D01*
Y551853D01*
X210033Y550854D01*
X208033D01*
X207034Y551853D01*
Y555852D01*
X170840Y453576D02*
Y459574D01*
X167841Y456575D01*
X171839D01*
X173839D02*
X177838D01*
X179837Y453576D02*
Y459574D01*
X182836D01*
X183836Y458574D01*
Y456575D01*
X182836Y455575D01*
X179837D01*
X181836D02*
X183836Y453576D01*
X185835D02*
X187834D01*
X186835D01*
Y459574D01*
X185835Y458574D01*
X190833Y453576D02*
Y454575D01*
X191833D01*
Y453576D01*
X190833D01*
X195832Y458574D02*
X196831Y459574D01*
X198831D01*
X199830Y458574D01*
Y454575D01*
X198831Y453576D01*
X196831D01*
X195832Y454575D01*
Y458574D01*
X201830D02*
X202829Y459574D01*
X204829D01*
X205828Y458574D01*
Y454575D01*
X204829Y453576D01*
X202829D01*
X201830Y454575D01*
Y458574D01*
M02*
