G04*
G04 #@! TF.GenerationSoftware,Altium Limited,Altium Designer,18.0.7 (293)*
G04*
G04 Layer_Color=128*
%FSLAX25Y25*%
%MOIN*%
G70*
G01*
G75*
%ADD21C,0.00787*%
G54D21*
X264020Y554453D02*
X263575Y555376D01*
X262576Y555604D01*
X261774Y554965D01*
Y553940D01*
X262576Y553301D01*
X263575Y553529D01*
X264020Y554453D01*
X283705D02*
X283260Y555376D01*
X282261Y555604D01*
X281459Y554965D01*
Y553940D01*
X282261Y553301D01*
X283260Y553529D01*
X283705Y554453D01*
X567169D02*
X566725Y555376D01*
X565725Y555604D01*
X564924Y554965D01*
Y553940D01*
X565725Y553301D01*
X566725Y553529D01*
X567169Y554453D01*
X480555D02*
X480110Y555376D01*
X479111Y555604D01*
X478310Y554965D01*
Y553940D01*
X479111Y553301D01*
X480110Y553529D01*
X480555Y554453D01*
X283705Y459965D02*
X283260Y460888D01*
X282261Y461116D01*
X281459Y460477D01*
Y459452D01*
X282261Y458813D01*
X283260Y459041D01*
X283705Y459965D01*
Y467839D02*
X283260Y468762D01*
X282261Y468990D01*
X281459Y468351D01*
Y467326D01*
X282261Y466687D01*
X283260Y466915D01*
X283705Y467839D01*
X370319Y459965D02*
X369874Y460888D01*
X368875Y461116D01*
X368074Y460477D01*
Y459452D01*
X368875Y458813D01*
X369874Y459041D01*
X370319Y459965D01*
Y467839D02*
X369874Y468762D01*
X368875Y468990D01*
X368074Y468351D01*
Y467326D01*
X368875Y466687D01*
X369874Y466915D01*
X370319Y467839D01*
X480555Y459965D02*
X480110Y460888D01*
X479111Y461116D01*
X478310Y460477D01*
Y459452D01*
X479111Y458813D01*
X480110Y459041D01*
X480555Y459965D01*
Y467839D02*
X480110Y468762D01*
X479111Y468990D01*
X478310Y468351D01*
Y467326D01*
X479111Y466687D01*
X480110Y466915D01*
X480555Y467839D01*
X567169Y459965D02*
X566725Y460888D01*
X565725Y461116D01*
X564924Y460477D01*
Y459452D01*
X565725Y458813D01*
X566725Y459041D01*
X567169Y459965D01*
Y467839D02*
X566725Y468762D01*
X565725Y468990D01*
X564924Y468351D01*
Y467326D01*
X565725Y466687D01*
X566725Y466915D01*
X567169Y467839D01*
Y365476D02*
X566725Y366400D01*
X565725Y366628D01*
X564924Y365989D01*
Y364964D01*
X565725Y364325D01*
X566725Y364553D01*
X567169Y365476D01*
Y373350D02*
X566725Y374274D01*
X565725Y374502D01*
X564924Y373863D01*
Y372838D01*
X565725Y372199D01*
X566725Y372427D01*
X567169Y373350D01*
X480555Y365476D02*
X480110Y366400D01*
X479111Y366628D01*
X478310Y365989D01*
Y364964D01*
X479111Y364325D01*
X480110Y364553D01*
X480555Y365476D01*
Y373350D02*
X480110Y374274D01*
X479111Y374502D01*
X478310Y373863D01*
Y372838D01*
X479111Y372199D01*
X480110Y372427D01*
X480555Y373350D01*
X370319Y365476D02*
X369874Y366400D01*
X368875Y366628D01*
X368074Y365989D01*
Y364964D01*
X368875Y364325D01*
X369874Y364553D01*
X370319Y365476D01*
Y373350D02*
X369874Y374274D01*
X368875Y374502D01*
X368074Y373863D01*
Y372838D01*
X368875Y372199D01*
X369874Y372427D01*
X370319Y373350D01*
X283705Y365476D02*
X283260Y366400D01*
X282261Y366628D01*
X281459Y365989D01*
Y364964D01*
X282261Y364325D01*
X283260Y364553D01*
X283705Y365476D01*
Y373350D02*
X283260Y374274D01*
X282261Y374502D01*
X281459Y373863D01*
Y372838D01*
X282261Y372199D01*
X283260Y372427D01*
X283705Y373350D01*
X370319Y270988D02*
X369874Y271912D01*
X368875Y272140D01*
X368074Y271501D01*
Y270476D01*
X368875Y269837D01*
X369874Y270065D01*
X370319Y270988D01*
Y278862D02*
X369874Y279786D01*
X368875Y280014D01*
X368074Y279375D01*
Y278350D01*
X368875Y277711D01*
X369874Y277939D01*
X370319Y278862D01*
X283705Y270988D02*
X283260Y271912D01*
X282261Y272140D01*
X281459Y271501D01*
Y270476D01*
X282261Y269837D01*
X283260Y270065D01*
X283705Y270988D01*
Y278862D02*
X283260Y279786D01*
X282261Y280014D01*
X281459Y279375D01*
Y278350D01*
X282261Y277711D01*
X283260Y277939D01*
X283705Y278862D01*
X480555Y270988D02*
X480110Y271912D01*
X479111Y272140D01*
X478310Y271501D01*
Y270476D01*
X479111Y269837D01*
X480110Y270065D01*
X480555Y270988D01*
Y278862D02*
X480110Y279786D01*
X479111Y280014D01*
X478310Y279375D01*
Y278350D01*
X479111Y277711D01*
X480110Y277939D01*
X480555Y278862D01*
X567169Y270988D02*
X566725Y271912D01*
X565725Y272140D01*
X564924Y271501D01*
Y270476D01*
X565725Y269837D01*
X566725Y270065D01*
X567169Y270988D01*
Y278862D02*
X566725Y279786D01*
X565725Y280014D01*
X564924Y279375D01*
Y278350D01*
X565725Y277711D01*
X566725Y277939D01*
X567169Y278862D01*
Y184374D02*
X566725Y185297D01*
X565725Y185526D01*
X564924Y184887D01*
Y183862D01*
X565725Y183222D01*
X566725Y183451D01*
X567169Y184374D01*
X480555D02*
X480110Y185297D01*
X479111Y185526D01*
X478310Y184887D01*
Y183862D01*
X479111Y183222D01*
X480110Y183451D01*
X480555Y184374D01*
X370319D02*
X369874Y185297D01*
X368875Y185526D01*
X368074Y184887D01*
Y183862D01*
X368875Y183222D01*
X369874Y183451D01*
X370319Y184374D01*
X283705D02*
X283260Y185297D01*
X282261Y185526D01*
X281459Y184887D01*
Y183862D01*
X282261Y183222D01*
X283260Y183451D01*
X283705Y184374D01*
X547484D02*
X547040Y185297D01*
X546040Y185526D01*
X545239Y184887D01*
Y183862D01*
X546040Y183222D01*
X547040Y183451D01*
X547484Y184374D01*
X476618D02*
X476173Y185297D01*
X475174Y185526D01*
X474373Y184887D01*
Y183862D01*
X475174Y183222D01*
X476173Y183451D01*
X476618Y184374D01*
X547484Y270988D02*
X547040Y271912D01*
X546040Y272140D01*
X545239Y271501D01*
Y270476D01*
X546040Y269837D01*
X547040Y270065D01*
X547484Y270988D01*
Y278862D02*
X547040Y279786D01*
X546040Y280014D01*
X545239Y279375D01*
Y278350D01*
X546040Y277711D01*
X547040Y277939D01*
X547484Y278862D01*
X476618Y270988D02*
X476173Y271912D01*
X475174Y272140D01*
X474373Y271501D01*
Y270476D01*
X475174Y269837D01*
X476173Y270065D01*
X476618Y270988D01*
Y278862D02*
X476173Y279786D01*
X475174Y280014D01*
X474373Y279375D01*
Y278350D01*
X475174Y277711D01*
X476173Y277939D01*
X476618Y278862D01*
X547484Y365476D02*
X547040Y366400D01*
X546040Y366628D01*
X545239Y365989D01*
Y364964D01*
X546040Y364325D01*
X547040Y364553D01*
X547484Y365476D01*
Y373350D02*
X547040Y374274D01*
X546040Y374502D01*
X545239Y373863D01*
Y372838D01*
X546040Y372199D01*
X547040Y372427D01*
X547484Y373350D01*
X476618Y365476D02*
X476173Y366400D01*
X475174Y366628D01*
X474373Y365989D01*
Y364964D01*
X475174Y364325D01*
X476173Y364553D01*
X476618Y365476D01*
Y373350D02*
X476173Y374274D01*
X475174Y374502D01*
X474373Y373863D01*
Y372838D01*
X475174Y372199D01*
X476173Y372427D01*
X476618Y373350D01*
X547484Y467839D02*
X547040Y468762D01*
X546040Y468990D01*
X545239Y468351D01*
Y467326D01*
X546040Y466687D01*
X547040Y466915D01*
X547484Y467839D01*
Y459965D02*
X547040Y460888D01*
X546040Y461116D01*
X545239Y460477D01*
Y459452D01*
X546040Y458813D01*
X547040Y459041D01*
X547484Y459965D01*
X476618D02*
X476173Y460888D01*
X475174Y461116D01*
X474373Y460477D01*
Y459452D01*
X475174Y458813D01*
X476173Y459041D01*
X476618Y459965D01*
Y467839D02*
X476173Y468762D01*
X475174Y468990D01*
X474373Y468351D01*
Y467326D01*
X475174Y466687D01*
X476173Y466915D01*
X476618Y467839D01*
X547484Y554453D02*
X547040Y555376D01*
X546040Y555604D01*
X545239Y554965D01*
Y553940D01*
X546040Y553301D01*
X547040Y553529D01*
X547484Y554453D01*
X476618D02*
X476173Y555376D01*
X475174Y555604D01*
X474373Y554965D01*
Y553940D01*
X475174Y553301D01*
X476173Y553529D01*
X476618Y554453D01*
X350634D02*
X350189Y555376D01*
X349190Y555604D01*
X348389Y554965D01*
Y553940D01*
X349190Y553301D01*
X350189Y553529D01*
X350634Y554453D01*
X279768D02*
X279323Y555376D01*
X278324Y555604D01*
X277522Y554965D01*
Y553940D01*
X278324Y553301D01*
X279323Y553529D01*
X279768Y554453D01*
X350634Y459965D02*
X350189Y460888D01*
X349190Y461116D01*
X348389Y460477D01*
Y459452D01*
X349190Y458813D01*
X350189Y459041D01*
X350634Y459965D01*
Y467839D02*
X350189Y468762D01*
X349190Y468990D01*
X348389Y468351D01*
Y467326D01*
X349190Y466687D01*
X350189Y466915D01*
X350634Y467839D01*
X279768Y459965D02*
X279323Y460888D01*
X278324Y461116D01*
X277522Y460477D01*
Y459452D01*
X278324Y458813D01*
X279323Y459041D01*
X279768Y459965D01*
Y467839D02*
X279323Y468762D01*
X278324Y468990D01*
X277522Y468351D01*
Y467326D01*
X278324Y466687D01*
X279323Y466915D01*
X279768Y467839D01*
X350634Y365476D02*
X350189Y366400D01*
X349190Y366628D01*
X348389Y365989D01*
Y364964D01*
X349190Y364325D01*
X350189Y364553D01*
X350634Y365476D01*
Y373350D02*
X350189Y374274D01*
X349190Y374502D01*
X348389Y373863D01*
Y372838D01*
X349190Y372199D01*
X350189Y372427D01*
X350634Y373350D01*
X279768Y365476D02*
X279323Y366400D01*
X278324Y366628D01*
X277522Y365989D01*
Y364964D01*
X278324Y364325D01*
X279323Y364553D01*
X279768Y365476D01*
Y373350D02*
X279323Y374274D01*
X278324Y374502D01*
X277522Y373863D01*
Y372838D01*
X278324Y372199D01*
X279323Y372427D01*
X279768Y373350D01*
X350634Y270988D02*
X350189Y271912D01*
X349190Y272140D01*
X348389Y271501D01*
Y270476D01*
X349190Y269837D01*
X350189Y270065D01*
X350634Y270988D01*
Y278862D02*
X350189Y279786D01*
X349190Y280014D01*
X348389Y279375D01*
Y278350D01*
X349190Y277711D01*
X350189Y277939D01*
X350634Y278862D01*
X279768Y270988D02*
X279323Y271912D01*
X278324Y272140D01*
X277522Y271501D01*
Y270476D01*
X278324Y269837D01*
X279323Y270065D01*
X279768Y270988D01*
Y278862D02*
X279323Y279786D01*
X278324Y280014D01*
X277522Y279375D01*
Y278350D01*
X278324Y277711D01*
X279323Y277939D01*
X279768Y278862D01*
X350634Y184374D02*
X350189Y185297D01*
X349190Y185526D01*
X348389Y184887D01*
Y183862D01*
X349190Y183222D01*
X350189Y183451D01*
X350634Y184374D01*
X279768D02*
X279323Y185297D01*
X278324Y185526D01*
X277522Y184887D01*
Y183862D01*
X278324Y183222D01*
X279323Y183451D01*
X279768Y184374D01*
X551421Y270988D02*
X550977Y271912D01*
X549977Y272140D01*
X549176Y271501D01*
Y270476D01*
X549977Y269837D01*
X550977Y270065D01*
X551421Y270988D01*
X555358D02*
X554914Y271912D01*
X553914Y272140D01*
X553113Y271501D01*
Y270476D01*
X553914Y269837D01*
X554914Y270065D01*
X555358Y270988D01*
X559295D02*
X558851Y271912D01*
X557851Y272140D01*
X557050Y271501D01*
Y270476D01*
X557851Y269837D01*
X558851Y270065D01*
X559295Y270988D01*
X563232D02*
X562788Y271912D01*
X561788Y272140D01*
X560987Y271501D01*
Y270476D01*
X561788Y269837D01*
X562788Y270065D01*
X563232Y270988D01*
X551421Y278862D02*
X550977Y279786D01*
X549977Y280014D01*
X549176Y279375D01*
Y278350D01*
X549977Y277711D01*
X550977Y277939D01*
X551421Y278862D01*
X555358D02*
X554914Y279786D01*
X553914Y280014D01*
X553113Y279375D01*
Y278350D01*
X553914Y277711D01*
X554914Y277939D01*
X555358Y278862D01*
X559295D02*
X558851Y279786D01*
X557851Y280014D01*
X557050Y279375D01*
Y278350D01*
X557851Y277711D01*
X558851Y277939D01*
X559295Y278862D01*
X563232D02*
X562788Y279786D01*
X561788Y280014D01*
X560987Y279375D01*
Y278350D01*
X561788Y277711D01*
X562788Y277939D01*
X563232Y278862D01*
X460870Y270988D02*
X460425Y271912D01*
X459426Y272140D01*
X458625Y271501D01*
Y270476D01*
X459426Y269837D01*
X460425Y270065D01*
X460870Y270988D01*
X464807D02*
X464362Y271912D01*
X463363Y272140D01*
X462562Y271501D01*
Y270476D01*
X463363Y269837D01*
X464362Y270065D01*
X464807Y270988D01*
X468744D02*
X468299Y271912D01*
X467300Y272140D01*
X466499Y271501D01*
Y270476D01*
X467300Y269837D01*
X468299Y270065D01*
X468744Y270988D01*
X472681D02*
X472236Y271912D01*
X471237Y272140D01*
X470436Y271501D01*
Y270476D01*
X471237Y269837D01*
X472236Y270065D01*
X472681Y270988D01*
X460870Y278862D02*
X460425Y279786D01*
X459426Y280014D01*
X458625Y279375D01*
Y278350D01*
X459426Y277711D01*
X460425Y277939D01*
X460870Y278862D01*
X464807D02*
X464362Y279786D01*
X463363Y280014D01*
X462562Y279375D01*
Y278350D01*
X463363Y277711D01*
X464362Y277939D01*
X464807Y278862D01*
X468744D02*
X468299Y279786D01*
X467300Y280014D01*
X466499Y279375D01*
Y278350D01*
X467300Y277711D01*
X468299Y277939D01*
X468744Y278862D01*
X472681D02*
X472236Y279786D01*
X471237Y280014D01*
X470436Y279375D01*
Y278350D01*
X471237Y277711D01*
X472236Y277939D01*
X472681Y278862D01*
X551421Y365476D02*
X550977Y366400D01*
X549977Y366628D01*
X549176Y365989D01*
Y364964D01*
X549977Y364325D01*
X550977Y364553D01*
X551421Y365476D01*
X555358D02*
X554914Y366400D01*
X553914Y366628D01*
X553113Y365989D01*
Y364964D01*
X553914Y364325D01*
X554914Y364553D01*
X555358Y365476D01*
X559295D02*
X558851Y366400D01*
X557851Y366628D01*
X557050Y365989D01*
Y364964D01*
X557851Y364325D01*
X558851Y364553D01*
X559295Y365476D01*
X563232D02*
X562788Y366400D01*
X561788Y366628D01*
X560987Y365989D01*
Y364964D01*
X561788Y364325D01*
X562788Y364553D01*
X563232Y365476D01*
X551421Y373350D02*
X550977Y374274D01*
X549977Y374502D01*
X549176Y373863D01*
Y372838D01*
X549977Y372199D01*
X550977Y372427D01*
X551421Y373350D01*
X555358D02*
X554914Y374274D01*
X553914Y374502D01*
X553113Y373863D01*
Y372838D01*
X553914Y372199D01*
X554914Y372427D01*
X555358Y373350D01*
X559295D02*
X558851Y374274D01*
X557851Y374502D01*
X557050Y373863D01*
Y372838D01*
X557851Y372199D01*
X558851Y372427D01*
X559295Y373350D01*
X563232D02*
X562788Y374274D01*
X561788Y374502D01*
X560987Y373863D01*
Y372838D01*
X561788Y372199D01*
X562788Y372427D01*
X563232Y373350D01*
X460870Y365476D02*
X460425Y366400D01*
X459426Y366628D01*
X458625Y365989D01*
Y364964D01*
X459426Y364325D01*
X460425Y364553D01*
X460870Y365476D01*
X464807D02*
X464362Y366400D01*
X463363Y366628D01*
X462562Y365989D01*
Y364964D01*
X463363Y364325D01*
X464362Y364553D01*
X464807Y365476D01*
X468744D02*
X468299Y366400D01*
X467300Y366628D01*
X466499Y365989D01*
Y364964D01*
X467300Y364325D01*
X468299Y364553D01*
X468744Y365476D01*
X472681D02*
X472236Y366400D01*
X471237Y366628D01*
X470436Y365989D01*
Y364964D01*
X471237Y364325D01*
X472236Y364553D01*
X472681Y365476D01*
X460870Y373350D02*
X460425Y374274D01*
X459426Y374502D01*
X458625Y373863D01*
Y372838D01*
X459426Y372199D01*
X460425Y372427D01*
X460870Y373350D01*
X464807D02*
X464362Y374274D01*
X463363Y374502D01*
X462562Y373863D01*
Y372838D01*
X463363Y372199D01*
X464362Y372427D01*
X464807Y373350D01*
X468744D02*
X468299Y374274D01*
X467300Y374502D01*
X466499Y373863D01*
Y372838D01*
X467300Y372199D01*
X468299Y372427D01*
X468744Y373350D01*
X472681D02*
X472236Y374274D01*
X471237Y374502D01*
X470436Y373863D01*
Y372838D01*
X471237Y372199D01*
X472236Y372427D01*
X472681Y373350D01*
X551421Y459965D02*
X550977Y460888D01*
X549977Y461116D01*
X549176Y460477D01*
Y459452D01*
X549977Y458813D01*
X550977Y459041D01*
X551421Y459965D01*
X555358D02*
X554914Y460888D01*
X553914Y461116D01*
X553113Y460477D01*
Y459452D01*
X553914Y458813D01*
X554914Y459041D01*
X555358Y459965D01*
X559295D02*
X558851Y460888D01*
X557851Y461116D01*
X557050Y460477D01*
Y459452D01*
X557851Y458813D01*
X558851Y459041D01*
X559295Y459965D01*
X563232D02*
X562788Y460888D01*
X561788Y461116D01*
X560987Y460477D01*
Y459452D01*
X561788Y458813D01*
X562788Y459041D01*
X563232Y459965D01*
X551421Y467839D02*
X550977Y468762D01*
X549977Y468990D01*
X549176Y468351D01*
Y467326D01*
X549977Y466687D01*
X550977Y466915D01*
X551421Y467839D01*
X555358D02*
X554914Y468762D01*
X553914Y468990D01*
X553113Y468351D01*
Y467326D01*
X553914Y466687D01*
X554914Y466915D01*
X555358Y467839D01*
X559295D02*
X558851Y468762D01*
X557851Y468990D01*
X557050Y468351D01*
Y467326D01*
X557851Y466687D01*
X558851Y466915D01*
X559295Y467839D01*
X563232D02*
X562788Y468762D01*
X561788Y468990D01*
X560987Y468351D01*
Y467326D01*
X561788Y466687D01*
X562788Y466915D01*
X563232Y467839D01*
X460870Y459965D02*
X460425Y460888D01*
X459426Y461116D01*
X458625Y460477D01*
Y459452D01*
X459426Y458813D01*
X460425Y459041D01*
X460870Y459965D01*
X464807D02*
X464362Y460888D01*
X463363Y461116D01*
X462562Y460477D01*
Y459452D01*
X463363Y458813D01*
X464362Y459041D01*
X464807Y459965D01*
X468744D02*
X468299Y460888D01*
X467300Y461116D01*
X466499Y460477D01*
Y459452D01*
X467300Y458813D01*
X468299Y459041D01*
X468744Y459965D01*
X472681D02*
X472236Y460888D01*
X471237Y461116D01*
X470436Y460477D01*
Y459452D01*
X471237Y458813D01*
X472236Y459041D01*
X472681Y459965D01*
X460870Y467839D02*
X460425Y468762D01*
X459426Y468990D01*
X458625Y468351D01*
Y467326D01*
X459426Y466687D01*
X460425Y466915D01*
X460870Y467839D01*
X464807D02*
X464362Y468762D01*
X463363Y468990D01*
X462562Y468351D01*
Y467326D01*
X463363Y466687D01*
X464362Y466915D01*
X464807Y467839D01*
X468744D02*
X468299Y468762D01*
X467300Y468990D01*
X466499Y468351D01*
Y467326D01*
X467300Y466687D01*
X468299Y466915D01*
X468744Y467839D01*
X472681D02*
X472236Y468762D01*
X471237Y468990D01*
X470436Y468351D01*
Y467326D01*
X471237Y466687D01*
X472236Y466915D01*
X472681Y467839D01*
X551421Y554453D02*
X550977Y555376D01*
X549977Y555604D01*
X549176Y554965D01*
Y553940D01*
X549977Y553301D01*
X550977Y553529D01*
X551421Y554453D01*
X555358D02*
X554914Y555376D01*
X553914Y555604D01*
X553113Y554965D01*
Y553940D01*
X553914Y553301D01*
X554914Y553529D01*
X555358Y554453D01*
X559295D02*
X558851Y555376D01*
X557851Y555604D01*
X557050Y554965D01*
Y553940D01*
X557851Y553301D01*
X558851Y553529D01*
X559295Y554453D01*
X563232D02*
X562788Y555376D01*
X561788Y555604D01*
X560987Y554965D01*
Y553940D01*
X561788Y553301D01*
X562788Y553529D01*
X563232Y554453D01*
X460870D02*
X460425Y555376D01*
X459426Y555604D01*
X458625Y554965D01*
Y553940D01*
X459426Y553301D01*
X460425Y553529D01*
X460870Y554453D01*
X464807D02*
X464362Y555376D01*
X463363Y555604D01*
X462562Y554965D01*
Y553940D01*
X463363Y553301D01*
X464362Y553529D01*
X464807Y554453D01*
X468744D02*
X468299Y555376D01*
X467300Y555604D01*
X466499Y554965D01*
Y553940D01*
X467300Y553301D01*
X468299Y553529D01*
X468744Y554453D01*
X472681D02*
X472236Y555376D01*
X471237Y555604D01*
X470436Y554965D01*
Y553940D01*
X471237Y553301D01*
X472236Y553529D01*
X472681Y554453D01*
X354571D02*
X354126Y555376D01*
X353127Y555604D01*
X352326Y554965D01*
Y553940D01*
X353127Y553301D01*
X354126Y553529D01*
X354571Y554453D01*
X358508D02*
X358063Y555376D01*
X357064Y555604D01*
X356263Y554965D01*
Y553940D01*
X357064Y553301D01*
X358063Y553529D01*
X358508Y554453D01*
X362445D02*
X362000Y555376D01*
X361001Y555604D01*
X360200Y554965D01*
Y553940D01*
X361001Y553301D01*
X362000Y553529D01*
X362445Y554453D01*
X366382D02*
X365937Y555376D01*
X364938Y555604D01*
X364137Y554965D01*
Y553940D01*
X364938Y553301D01*
X365937Y553529D01*
X366382Y554453D01*
X267957D02*
X267512Y555376D01*
X266513Y555604D01*
X265711Y554965D01*
Y553940D01*
X266513Y553301D01*
X267512Y553529D01*
X267957Y554453D01*
X271894D02*
X271449Y555376D01*
X270450Y555604D01*
X269649Y554965D01*
Y553940D01*
X270450Y553301D01*
X271449Y553529D01*
X271894Y554453D01*
X275831D02*
X275386Y555376D01*
X274387Y555604D01*
X273586Y554965D01*
Y553940D01*
X274387Y553301D01*
X275386Y553529D01*
X275831Y554453D01*
X354571Y459965D02*
X354126Y460888D01*
X353127Y461116D01*
X352326Y460477D01*
Y459452D01*
X353127Y458813D01*
X354126Y459041D01*
X354571Y459965D01*
X358508D02*
X358063Y460888D01*
X357064Y461116D01*
X356263Y460477D01*
Y459452D01*
X357064Y458813D01*
X358063Y459041D01*
X358508Y459965D01*
X362445D02*
X362000Y460888D01*
X361001Y461116D01*
X360200Y460477D01*
Y459452D01*
X361001Y458813D01*
X362000Y459041D01*
X362445Y459965D01*
X366382D02*
X365937Y460888D01*
X364938Y461116D01*
X364137Y460477D01*
Y459452D01*
X364938Y458813D01*
X365937Y459041D01*
X366382Y459965D01*
X354571Y467839D02*
X354126Y468762D01*
X353127Y468990D01*
X352326Y468351D01*
Y467326D01*
X353127Y466687D01*
X354126Y466915D01*
X354571Y467839D01*
X358508D02*
X358063Y468762D01*
X357064Y468990D01*
X356263Y468351D01*
Y467326D01*
X357064Y466687D01*
X358063Y466915D01*
X358508Y467839D01*
X362445D02*
X362000Y468762D01*
X361001Y468990D01*
X360200Y468351D01*
Y467326D01*
X361001Y466687D01*
X362000Y466915D01*
X362445Y467839D01*
X366382D02*
X365937Y468762D01*
X364938Y468990D01*
X364137Y468351D01*
Y467326D01*
X364938Y466687D01*
X365937Y466915D01*
X366382Y467839D01*
X264020Y459965D02*
X263575Y460888D01*
X262576Y461116D01*
X261774Y460477D01*
Y459452D01*
X262576Y458813D01*
X263575Y459041D01*
X264020Y459965D01*
X267957D02*
X267512Y460888D01*
X266513Y461116D01*
X265711Y460477D01*
Y459452D01*
X266513Y458813D01*
X267512Y459041D01*
X267957Y459965D01*
X271894D02*
X271449Y460888D01*
X270450Y461116D01*
X269649Y460477D01*
Y459452D01*
X270450Y458813D01*
X271449Y459041D01*
X271894Y459965D01*
X275831D02*
X275386Y460888D01*
X274387Y461116D01*
X273586Y460477D01*
Y459452D01*
X274387Y458813D01*
X275386Y459041D01*
X275831Y459965D01*
X264020Y467839D02*
X263575Y468762D01*
X262576Y468990D01*
X261774Y468351D01*
Y467326D01*
X262576Y466687D01*
X263575Y466915D01*
X264020Y467839D01*
X267957D02*
X267512Y468762D01*
X266513Y468990D01*
X265711Y468351D01*
Y467326D01*
X266513Y466687D01*
X267512Y466915D01*
X267957Y467839D01*
X271894D02*
X271449Y468762D01*
X270450Y468990D01*
X269649Y468351D01*
Y467326D01*
X270450Y466687D01*
X271449Y466915D01*
X271894Y467839D01*
X275831D02*
X275386Y468762D01*
X274387Y468990D01*
X273586Y468351D01*
Y467326D01*
X274387Y466687D01*
X275386Y466915D01*
X275831Y467839D01*
X354571Y365476D02*
X354126Y366400D01*
X353127Y366628D01*
X352326Y365989D01*
Y364964D01*
X353127Y364325D01*
X354126Y364553D01*
X354571Y365476D01*
X358508D02*
X358063Y366400D01*
X357064Y366628D01*
X356263Y365989D01*
Y364964D01*
X357064Y364325D01*
X358063Y364553D01*
X358508Y365476D01*
X362445D02*
X362000Y366400D01*
X361001Y366628D01*
X360200Y365989D01*
Y364964D01*
X361001Y364325D01*
X362000Y364553D01*
X362445Y365476D01*
X366382D02*
X365937Y366400D01*
X364938Y366628D01*
X364137Y365989D01*
Y364964D01*
X364938Y364325D01*
X365937Y364553D01*
X366382Y365476D01*
X354571Y373350D02*
X354126Y374274D01*
X353127Y374502D01*
X352326Y373863D01*
Y372838D01*
X353127Y372199D01*
X354126Y372427D01*
X354571Y373350D01*
X358508D02*
X358063Y374274D01*
X357064Y374502D01*
X356263Y373863D01*
Y372838D01*
X357064Y372199D01*
X358063Y372427D01*
X358508Y373350D01*
X362445D02*
X362000Y374274D01*
X361001Y374502D01*
X360200Y373863D01*
Y372838D01*
X361001Y372199D01*
X362000Y372427D01*
X362445Y373350D01*
X366382D02*
X365937Y374274D01*
X364938Y374502D01*
X364137Y373863D01*
Y372838D01*
X364938Y372199D01*
X365937Y372427D01*
X366382Y373350D01*
X264020Y365476D02*
X263575Y366400D01*
X262576Y366628D01*
X261774Y365989D01*
Y364964D01*
X262576Y364325D01*
X263575Y364553D01*
X264020Y365476D01*
X267957D02*
X267512Y366400D01*
X266513Y366628D01*
X265711Y365989D01*
Y364964D01*
X266513Y364325D01*
X267512Y364553D01*
X267957Y365476D01*
X271894D02*
X271449Y366400D01*
X270450Y366628D01*
X269649Y365989D01*
Y364964D01*
X270450Y364325D01*
X271449Y364553D01*
X271894Y365476D01*
X275831D02*
X275386Y366400D01*
X274387Y366628D01*
X273586Y365989D01*
Y364964D01*
X274387Y364325D01*
X275386Y364553D01*
X275831Y365476D01*
X264020Y373350D02*
X263575Y374274D01*
X262576Y374502D01*
X261774Y373863D01*
Y372838D01*
X262576Y372199D01*
X263575Y372427D01*
X264020Y373350D01*
X267957D02*
X267512Y374274D01*
X266513Y374502D01*
X265711Y373863D01*
Y372838D01*
X266513Y372199D01*
X267512Y372427D01*
X267957Y373350D01*
X271894D02*
X271449Y374274D01*
X270450Y374502D01*
X269649Y373863D01*
Y372838D01*
X270450Y372199D01*
X271449Y372427D01*
X271894Y373350D01*
X275831D02*
X275386Y374274D01*
X274387Y374502D01*
X273586Y373863D01*
Y372838D01*
X274387Y372199D01*
X275386Y372427D01*
X275831Y373350D01*
X354571Y270988D02*
X354126Y271912D01*
X353127Y272140D01*
X352326Y271501D01*
Y270476D01*
X353127Y269837D01*
X354126Y270065D01*
X354571Y270988D01*
X358508D02*
X358063Y271912D01*
X357064Y272140D01*
X356263Y271501D01*
Y270476D01*
X357064Y269837D01*
X358063Y270065D01*
X358508Y270988D01*
X362445D02*
X362000Y271912D01*
X361001Y272140D01*
X360200Y271501D01*
Y270476D01*
X361001Y269837D01*
X362000Y270065D01*
X362445Y270988D01*
X366382D02*
X365937Y271912D01*
X364938Y272140D01*
X364137Y271501D01*
Y270476D01*
X364938Y269837D01*
X365937Y270065D01*
X366382Y270988D01*
X354571Y278862D02*
X354126Y279786D01*
X353127Y280014D01*
X352326Y279375D01*
Y278350D01*
X353127Y277711D01*
X354126Y277939D01*
X354571Y278862D01*
X358508D02*
X358063Y279786D01*
X357064Y280014D01*
X356263Y279375D01*
Y278350D01*
X357064Y277711D01*
X358063Y277939D01*
X358508Y278862D01*
X362445D02*
X362000Y279786D01*
X361001Y280014D01*
X360200Y279375D01*
Y278350D01*
X361001Y277711D01*
X362000Y277939D01*
X362445Y278862D01*
X366382D02*
X365937Y279786D01*
X364938Y280014D01*
X364137Y279375D01*
Y278350D01*
X364938Y277711D01*
X365937Y277939D01*
X366382Y278862D01*
X264020D02*
X263575Y279786D01*
X262576Y280014D01*
X261774Y279375D01*
Y278350D01*
X262576Y277711D01*
X263575Y277939D01*
X264020Y278862D01*
X267957D02*
X267512Y279786D01*
X266513Y280014D01*
X265711Y279375D01*
Y278350D01*
X266513Y277711D01*
X267512Y277939D01*
X267957Y278862D01*
X271894D02*
X271449Y279786D01*
X270450Y280014D01*
X269649Y279375D01*
Y278350D01*
X270450Y277711D01*
X271449Y277939D01*
X271894Y278862D01*
X275831D02*
X275386Y279786D01*
X274387Y280014D01*
X273586Y279375D01*
Y278350D01*
X274387Y277711D01*
X275386Y277939D01*
X275831Y278862D01*
X264020Y270988D02*
X263575Y271912D01*
X262576Y272140D01*
X261774Y271501D01*
Y270476D01*
X262576Y269837D01*
X263575Y270065D01*
X264020Y270988D01*
X267957D02*
X267512Y271912D01*
X266513Y272140D01*
X265711Y271501D01*
Y270476D01*
X266513Y269837D01*
X267512Y270065D01*
X267957Y270988D01*
X271894D02*
X271449Y271912D01*
X270450Y272140D01*
X269649Y271501D01*
Y270476D01*
X270450Y269837D01*
X271449Y270065D01*
X271894Y270988D01*
X275831D02*
X275386Y271912D01*
X274387Y272140D01*
X273586Y271501D01*
Y270476D01*
X274387Y269837D01*
X275386Y270065D01*
X275831Y270988D01*
X551421Y184374D02*
X550977Y185297D01*
X549977Y185526D01*
X549176Y184887D01*
Y183862D01*
X549977Y183222D01*
X550977Y183451D01*
X551421Y184374D01*
X555358D02*
X554914Y185297D01*
X553914Y185526D01*
X553113Y184887D01*
Y183862D01*
X553914Y183222D01*
X554914Y183451D01*
X555358Y184374D01*
X559295D02*
X558851Y185297D01*
X557851Y185526D01*
X557050Y184887D01*
Y183862D01*
X557851Y183222D01*
X558851Y183451D01*
X559295Y184374D01*
X563232D02*
X562788Y185297D01*
X561788Y185526D01*
X560987Y184887D01*
Y183862D01*
X561788Y183222D01*
X562788Y183451D01*
X563232Y184374D01*
X460870D02*
X460425Y185297D01*
X459426Y185526D01*
X458625Y184887D01*
Y183862D01*
X459426Y183222D01*
X460425Y183451D01*
X460870Y184374D01*
X464807D02*
X464362Y185297D01*
X463363Y185526D01*
X462562Y184887D01*
Y183862D01*
X463363Y183222D01*
X464362Y183451D01*
X464807Y184374D01*
X468744D02*
X468299Y185297D01*
X467300Y185526D01*
X466499Y184887D01*
Y183862D01*
X467300Y183222D01*
X468299Y183451D01*
X468744Y184374D01*
X472681D02*
X472236Y185297D01*
X471237Y185526D01*
X470436Y184887D01*
Y183862D01*
X471237Y183222D01*
X472236Y183451D01*
X472681Y184374D01*
X366382D02*
X365937Y185297D01*
X364938Y185526D01*
X364137Y184887D01*
Y183862D01*
X364938Y183222D01*
X365937Y183451D01*
X366382Y184374D01*
X362445D02*
X362000Y185297D01*
X361001Y185526D01*
X360200Y184887D01*
Y183862D01*
X361001Y183222D01*
X362000Y183451D01*
X362445Y184374D01*
X358508D02*
X358063Y185297D01*
X357064Y185526D01*
X356263Y184887D01*
Y183862D01*
X357064Y183222D01*
X358063Y183451D01*
X358508Y184374D01*
X354571D02*
X354126Y185297D01*
X353127Y185526D01*
X352326Y184887D01*
Y183862D01*
X353127Y183222D01*
X354126Y183451D01*
X354571Y184374D01*
X275831D02*
X275386Y185297D01*
X274387Y185526D01*
X273586Y184887D01*
Y183862D01*
X274387Y183222D01*
X275386Y183451D01*
X275831Y184374D01*
X271894D02*
X271449Y185297D01*
X270450Y185526D01*
X269649Y184887D01*
Y183862D01*
X270450Y183222D01*
X271449Y183451D01*
X271894Y184374D01*
X267957D02*
X267512Y185297D01*
X266513Y185526D01*
X265711Y184887D01*
Y183862D01*
X266513Y183222D01*
X267512Y183451D01*
X267957Y184374D01*
X264020D02*
X263575Y185297D01*
X262576Y185526D01*
X261774Y184887D01*
Y183862D01*
X262576Y183222D01*
X263575Y183451D01*
X264020Y184374D01*
X418350Y188311D02*
X418484Y187292D01*
X418878Y186343D01*
X419503Y185527D01*
X420319Y184901D01*
X421268Y184508D01*
X422287Y184374D01*
X406539D02*
X407558Y184508D01*
X408508Y184901D01*
X409323Y185527D01*
X409949Y186343D01*
X410342Y187292D01*
X410476Y188311D01*
X603390Y184374D02*
X604409Y184508D01*
X605358Y184901D01*
X606174Y185527D01*
X606799Y186343D01*
X607193Y187292D01*
X607327Y188311D01*
X603390Y278862D02*
X604409Y278996D01*
X605358Y279390D01*
X606174Y280015D01*
X606799Y280831D01*
X607193Y281780D01*
X607327Y282799D01*
X607327Y267051D02*
X607193Y268070D01*
X606799Y269020D01*
X606174Y269835D01*
X605358Y270461D01*
X604409Y270854D01*
X603390Y270988D01*
Y373350D02*
X604409Y373484D01*
X605358Y373878D01*
X606174Y374503D01*
X606799Y375319D01*
X607193Y376268D01*
X607327Y377287D01*
X607327Y361539D02*
X607193Y362558D01*
X606799Y363508D01*
X606174Y364323D01*
X605358Y364949D01*
X604409Y365342D01*
X603390Y365476D01*
Y467839D02*
X604409Y467973D01*
X605358Y468366D01*
X606174Y468992D01*
X606799Y469807D01*
X607193Y470757D01*
X607327Y471776D01*
X607327Y456028D02*
X607193Y457047D01*
X606799Y457996D01*
X606174Y458811D01*
X605358Y459437D01*
X604409Y459830D01*
X603390Y459965D01*
X607327Y550516D02*
X607193Y551535D01*
X606799Y552484D01*
X606174Y553300D01*
X605358Y553925D01*
X604409Y554319D01*
X603390Y554453D01*
X225437D02*
X224418Y554319D01*
X223468Y553925D01*
X222653Y553300D01*
X222027Y552484D01*
X221634Y551535D01*
X221500Y550516D01*
Y282799D02*
X221634Y281780D01*
X222027Y280831D01*
X222653Y280015D01*
X223468Y279390D01*
X224418Y278996D01*
X225437Y278862D01*
Y270988D02*
X224418Y270854D01*
X223468Y270461D01*
X222653Y269835D01*
X222027Y269020D01*
X221634Y268070D01*
X221500Y267051D01*
Y377287D02*
X221634Y376268D01*
X222027Y375319D01*
X222653Y374503D01*
X223468Y373878D01*
X224418Y373484D01*
X225437Y373350D01*
Y365476D02*
X224418Y365342D01*
X223468Y364949D01*
X222653Y364323D01*
X222027Y363508D01*
X221634Y362558D01*
X221500Y361539D01*
Y471776D02*
X221634Y470757D01*
X222027Y469807D01*
X222653Y468992D01*
X223468Y468366D01*
X224418Y467973D01*
X225437Y467839D01*
Y459965D02*
X224418Y459830D01*
X223468Y459437D01*
X222653Y458811D01*
X222027Y457996D01*
X221634Y457047D01*
X221500Y456028D01*
X410476Y550516D02*
X410342Y551535D01*
X409949Y552484D01*
X409323Y553300D01*
X408508Y553925D01*
X407558Y554319D01*
X406539Y554453D01*
X422287D02*
X421268Y554319D01*
X420319Y553925D01*
X419503Y553300D01*
X418878Y552484D01*
X418484Y551535D01*
X418350Y550516D01*
X406539Y467839D02*
X407558Y467973D01*
X408508Y468366D01*
X409323Y468992D01*
X409949Y469807D01*
X410342Y470757D01*
X410476Y471776D01*
X418350D02*
X418484Y470757D01*
X418878Y469807D01*
X419503Y468992D01*
X420319Y468366D01*
X421268Y467973D01*
X422287Y467839D01*
X410476Y456028D02*
X410342Y457047D01*
X409949Y457996D01*
X409323Y458811D01*
X408508Y459437D01*
X407558Y459830D01*
X406539Y459965D01*
X422287D02*
X421268Y459830D01*
X420319Y459437D01*
X419503Y458811D01*
X418878Y457996D01*
X418484Y457047D01*
X418350Y456028D01*
X406539Y373350D02*
X407558Y373484D01*
X408508Y373878D01*
X409323Y374503D01*
X409949Y375319D01*
X410342Y376268D01*
X410476Y377287D01*
X418350D02*
X418484Y376268D01*
X418878Y375319D01*
X419503Y374503D01*
X420319Y373878D01*
X421268Y373484D01*
X422287Y373350D01*
X410476Y361539D02*
X410342Y362558D01*
X409949Y363508D01*
X409323Y364323D01*
X408508Y364949D01*
X407558Y365342D01*
X406539Y365476D01*
X422287D02*
X421268Y365342D01*
X420319Y364949D01*
X419503Y364323D01*
X418878Y363508D01*
X418484Y362558D01*
X418350Y361539D01*
X422287Y270988D02*
X421268Y270854D01*
X420319Y270461D01*
X419503Y269835D01*
X418878Y269020D01*
X418484Y268070D01*
X418350Y267051D01*
X410476D02*
X410342Y268070D01*
X409949Y269020D01*
X409323Y269835D01*
X408508Y270461D01*
X407558Y270854D01*
X406539Y270988D01*
X418350Y282799D02*
X418484Y281780D01*
X418878Y280831D01*
X419503Y280015D01*
X420319Y279390D01*
X421268Y278996D01*
X422287Y278862D01*
X406539D02*
X407558Y278996D01*
X408508Y279390D01*
X409323Y280015D01*
X409949Y280831D01*
X410342Y281780D01*
X410476Y282799D01*
X457721Y270988D02*
X458739Y271122D01*
X459689Y271516D01*
X460504Y272141D01*
X461130Y272957D01*
X461523Y273906D01*
X461657Y274925D01*
X461523Y275944D01*
X461130Y276894D01*
X460504Y277709D01*
X459689Y278335D01*
X458739Y278728D01*
X457721Y278862D01*
X481343D02*
X480324Y278728D01*
X479374Y278335D01*
X478559Y277709D01*
X477933Y276894D01*
X477540Y275944D01*
X477406Y274925D01*
X477540Y273906D01*
X477933Y272957D01*
X478559Y272141D01*
X479374Y271516D01*
X480324Y271122D01*
X481343Y270988D01*
X544335D02*
X545354Y271122D01*
X546303Y271516D01*
X547119Y272141D01*
X547744Y272957D01*
X548138Y273906D01*
X548272Y274925D01*
X548138Y275944D01*
X547744Y276894D01*
X547119Y277709D01*
X546303Y278335D01*
X545354Y278728D01*
X544335Y278862D01*
X567957D02*
X566938Y278728D01*
X565988Y278335D01*
X565173Y277709D01*
X564547Y276894D01*
X564154Y275944D01*
X564020Y274925D01*
X564154Y273906D01*
X564547Y272957D01*
X565173Y272141D01*
X565988Y271516D01*
X566938Y271122D01*
X567957Y270988D01*
X457721Y365476D02*
X458739Y365611D01*
X459689Y366004D01*
X460504Y366630D01*
X461130Y367445D01*
X461523Y368394D01*
X461657Y369413D01*
X461523Y370432D01*
X461130Y371382D01*
X460504Y372197D01*
X459689Y372823D01*
X458739Y373216D01*
X457721Y373350D01*
X481343D02*
X480324Y373216D01*
X479374Y372823D01*
X478559Y372197D01*
X477933Y371382D01*
X477540Y370432D01*
X477406Y369413D01*
X477540Y368394D01*
X477933Y367445D01*
X478559Y366630D01*
X479374Y366004D01*
X480324Y365611D01*
X481343Y365476D01*
X544335D02*
X545354Y365611D01*
X546303Y366004D01*
X547119Y366630D01*
X547744Y367445D01*
X548138Y368394D01*
X548272Y369413D01*
X548138Y370432D01*
X547744Y371382D01*
X547119Y372197D01*
X546303Y372823D01*
X545354Y373216D01*
X544335Y373350D01*
X567957D02*
X566938Y373216D01*
X565988Y372823D01*
X565173Y372197D01*
X564547Y371382D01*
X564154Y370432D01*
X564020Y369413D01*
X564154Y368394D01*
X564547Y367445D01*
X565173Y366630D01*
X565988Y366004D01*
X566938Y365611D01*
X567957Y365476D01*
X457721Y459965D02*
X458739Y460099D01*
X459689Y460492D01*
X460504Y461118D01*
X461130Y461933D01*
X461523Y462883D01*
X461657Y463902D01*
X461523Y464921D01*
X461130Y465870D01*
X460504Y466685D01*
X459689Y467311D01*
X458739Y467704D01*
X457721Y467839D01*
X481343D02*
X480324Y467704D01*
X479374Y467311D01*
X478559Y466685D01*
X477933Y465870D01*
X477540Y464921D01*
X477406Y463902D01*
X477540Y462883D01*
X477933Y461933D01*
X478559Y461118D01*
X479374Y460492D01*
X480324Y460099D01*
X481343Y459965D01*
X544335D02*
X545354Y460099D01*
X546303Y460492D01*
X547119Y461118D01*
X547744Y461933D01*
X548138Y462883D01*
X548272Y463902D01*
X548138Y464921D01*
X547744Y465870D01*
X547119Y466685D01*
X546303Y467311D01*
X545354Y467704D01*
X544335Y467839D01*
X567957D02*
X566938Y467704D01*
X565988Y467311D01*
X565173Y466685D01*
X564547Y465870D01*
X564154Y464921D01*
X564020Y463902D01*
X564154Y462883D01*
X564547Y461933D01*
X565173Y461118D01*
X565988Y460492D01*
X566938Y460099D01*
X567957Y459965D01*
X457721Y554453D02*
X458739Y554587D01*
X459689Y554980D01*
X460504Y555606D01*
X461130Y556421D01*
X461523Y557371D01*
X461657Y558390D01*
X461523Y559409D01*
X461130Y560358D01*
X460504Y561174D01*
X459689Y561799D01*
X458739Y562193D01*
X457721Y562327D01*
X481343D02*
X480324Y562193D01*
X479374Y561799D01*
X478559Y561174D01*
X477933Y560358D01*
X477540Y559409D01*
X477406Y558390D01*
X477540Y557371D01*
X477933Y556421D01*
X478559Y555606D01*
X479374Y554980D01*
X480324Y554587D01*
X481343Y554453D01*
X544335D02*
X545354Y554587D01*
X546303Y554980D01*
X547119Y555606D01*
X547744Y556421D01*
X548138Y557371D01*
X548272Y558390D01*
X548138Y559409D01*
X547744Y560358D01*
X547119Y561174D01*
X546303Y561799D01*
X545354Y562193D01*
X544335Y562327D01*
X567957D02*
X566938Y562193D01*
X565988Y561799D01*
X565173Y561174D01*
X564547Y560358D01*
X564154Y559409D01*
X564020Y558390D01*
X564154Y557371D01*
X564547Y556421D01*
X565173Y555606D01*
X565988Y554980D01*
X566938Y554587D01*
X567957Y554453D01*
X260870D02*
X261889Y554587D01*
X262839Y554980D01*
X263654Y555606D01*
X264280Y556421D01*
X264673Y557371D01*
X264807Y558390D01*
X264673Y559409D01*
X264280Y560358D01*
X263654Y561174D01*
X262839Y561799D01*
X261889Y562193D01*
X260870Y562327D01*
X284492D02*
X283473Y562193D01*
X282524Y561799D01*
X281708Y561174D01*
X281083Y560358D01*
X280689Y559409D01*
X280555Y558390D01*
X280689Y557371D01*
X281083Y556421D01*
X281708Y555606D01*
X282524Y554980D01*
X283473Y554587D01*
X284492Y554453D01*
X347484D02*
X348503Y554587D01*
X349453Y554980D01*
X350268Y555606D01*
X350894Y556421D01*
X351287Y557371D01*
X351421Y558390D01*
X351287Y559409D01*
X350894Y560358D01*
X350268Y561174D01*
X349453Y561799D01*
X348503Y562193D01*
X347484Y562327D01*
X371106D02*
X370087Y562193D01*
X369138Y561799D01*
X368322Y561174D01*
X367697Y560358D01*
X367303Y559409D01*
X367169Y558390D01*
X367303Y557371D01*
X367697Y556421D01*
X368322Y555606D01*
X369138Y554980D01*
X370087Y554587D01*
X371106Y554453D01*
X260870Y459965D02*
X261889Y460099D01*
X262839Y460492D01*
X263654Y461118D01*
X264280Y461933D01*
X264673Y462883D01*
X264807Y463902D01*
X264673Y464921D01*
X264280Y465870D01*
X263654Y466685D01*
X262839Y467311D01*
X261889Y467704D01*
X260870Y467839D01*
X284492D02*
X283473Y467704D01*
X282524Y467311D01*
X281708Y466685D01*
X281083Y465870D01*
X280689Y464921D01*
X280555Y463902D01*
X280689Y462883D01*
X281083Y461933D01*
X281708Y461118D01*
X282524Y460492D01*
X283473Y460099D01*
X284492Y459965D01*
X347484D02*
X348503Y460099D01*
X349453Y460492D01*
X350268Y461118D01*
X350894Y461933D01*
X351287Y462883D01*
X351421Y463902D01*
X351287Y464921D01*
X350894Y465870D01*
X350268Y466685D01*
X349453Y467311D01*
X348503Y467704D01*
X347484Y467839D01*
X371106D02*
X370087Y467704D01*
X369138Y467311D01*
X368322Y466685D01*
X367697Y465870D01*
X367303Y464921D01*
X367169Y463902D01*
X367303Y462883D01*
X367697Y461933D01*
X368322Y461118D01*
X369138Y460492D01*
X370087Y460099D01*
X371106Y459965D01*
X260870Y365476D02*
X261889Y365611D01*
X262839Y366004D01*
X263654Y366630D01*
X264280Y367445D01*
X264673Y368394D01*
X264807Y369413D01*
X264673Y370432D01*
X264280Y371382D01*
X263654Y372197D01*
X262839Y372823D01*
X261889Y373216D01*
X260870Y373350D01*
X284492D02*
X283473Y373216D01*
X282524Y372823D01*
X281708Y372197D01*
X281083Y371382D01*
X280689Y370432D01*
X280555Y369413D01*
X280689Y368394D01*
X281083Y367445D01*
X281708Y366630D01*
X282524Y366004D01*
X283473Y365611D01*
X284492Y365476D01*
X347484D02*
X348503Y365611D01*
X349453Y366004D01*
X350268Y366630D01*
X350894Y367445D01*
X351287Y368394D01*
X351421Y369413D01*
X351287Y370432D01*
X350894Y371382D01*
X350268Y372197D01*
X349453Y372823D01*
X348503Y373216D01*
X347484Y373350D01*
X371106D02*
X370087Y373216D01*
X369138Y372823D01*
X368322Y372197D01*
X367697Y371382D01*
X367303Y370432D01*
X367169Y369413D01*
X367303Y368394D01*
X367697Y367445D01*
X368322Y366630D01*
X369138Y366004D01*
X370087Y365611D01*
X371106Y365476D01*
X260870Y270988D02*
X261889Y271122D01*
X262839Y271516D01*
X263654Y272141D01*
X264280Y272957D01*
X264673Y273906D01*
X264807Y274925D01*
X264673Y275944D01*
X264280Y276894D01*
X263654Y277709D01*
X262839Y278335D01*
X261889Y278728D01*
X260870Y278862D01*
X284492D02*
X283473Y278728D01*
X282524Y278335D01*
X281708Y277709D01*
X281083Y276894D01*
X280689Y275944D01*
X280555Y274925D01*
X280689Y273906D01*
X281083Y272957D01*
X281708Y272141D01*
X282524Y271516D01*
X283473Y271122D01*
X284492Y270988D01*
X347484D02*
X348503Y271122D01*
X349453Y271516D01*
X350268Y272141D01*
X350894Y272957D01*
X351287Y273906D01*
X351421Y274925D01*
X351287Y275944D01*
X350894Y276894D01*
X350268Y277709D01*
X349453Y278335D01*
X348503Y278728D01*
X347484Y278862D01*
X371106D02*
X370087Y278728D01*
X369138Y278335D01*
X368322Y277709D01*
X367697Y276894D01*
X367303Y275944D01*
X367169Y274925D01*
X367303Y273906D01*
X367697Y272957D01*
X368322Y272141D01*
X369138Y271516D01*
X370087Y271122D01*
X371106Y270988D01*
X221500Y188311D02*
X221634Y187292D01*
X222027Y186343D01*
X222653Y185527D01*
X223468Y184901D01*
X224418Y184508D01*
X225437Y184374D01*
X567957D02*
X566938Y184240D01*
X565988Y183847D01*
X565173Y183221D01*
X564547Y182405D01*
X564154Y181456D01*
X564020Y180437D01*
X564154Y179418D01*
X564547Y178469D01*
X565173Y177653D01*
X565988Y177027D01*
X566938Y176634D01*
X567957Y176500D01*
X544335D02*
X545354Y176634D01*
X546303Y177027D01*
X547119Y177653D01*
X547744Y178469D01*
X548138Y179418D01*
X548272Y180437D01*
X548138Y181456D01*
X547744Y182405D01*
X547119Y183221D01*
X546303Y183847D01*
X545354Y184240D01*
X544335Y184374D01*
X481343D02*
X480324Y184240D01*
X479374Y183847D01*
X478559Y183221D01*
X477933Y182405D01*
X477540Y181456D01*
X477406Y180437D01*
X477540Y179418D01*
X477933Y178469D01*
X478559Y177653D01*
X479374Y177027D01*
X480324Y176634D01*
X481343Y176500D01*
X457721D02*
X458739Y176634D01*
X459689Y177027D01*
X460504Y177653D01*
X461130Y178469D01*
X461523Y179418D01*
X461657Y180437D01*
X461523Y181456D01*
X461130Y182405D01*
X460504Y183221D01*
X459689Y183847D01*
X458739Y184240D01*
X457721Y184374D01*
X371106D02*
X370087Y184240D01*
X369138Y183847D01*
X368322Y183221D01*
X367697Y182405D01*
X367303Y181456D01*
X367169Y180437D01*
X367303Y179418D01*
X367697Y178469D01*
X368322Y177653D01*
X369138Y177027D01*
X370087Y176634D01*
X371106Y176500D01*
X347484D02*
X348503Y176634D01*
X349453Y177027D01*
X350268Y177653D01*
X350894Y178469D01*
X351287Y179418D01*
X351421Y180437D01*
X351287Y181456D01*
X350894Y182405D01*
X350268Y183221D01*
X349453Y183847D01*
X348503Y184240D01*
X347484Y184374D01*
X284492D02*
X283473Y184240D01*
X282524Y183847D01*
X281708Y183221D01*
X281083Y182405D01*
X280689Y181456D01*
X280555Y180437D01*
X280689Y179418D01*
X281083Y178469D01*
X281708Y177653D01*
X282524Y177027D01*
X283473Y176634D01*
X284492Y176500D01*
X260870D02*
X261889Y176634D01*
X262839Y177027D01*
X263654Y177653D01*
X264280Y178469D01*
X264673Y179418D01*
X264807Y180437D01*
X264673Y181456D01*
X264280Y182405D01*
X263654Y183221D01*
X262839Y183847D01*
X261889Y184240D01*
X260870Y184374D01*
X571894Y572169D02*
X571770Y573148D01*
X571407Y574066D01*
X570827Y574864D01*
X570066Y575493D01*
X569173Y575914D01*
X568204Y576098D01*
X567219Y576037D01*
X566280Y575732D01*
X565447Y575203D01*
X564772Y574483D01*
X564296Y573619D01*
X564051Y572663D01*
Y571676D01*
X564296Y570720D01*
X564772Y569855D01*
X565447Y569136D01*
X566280Y568607D01*
X567219Y568302D01*
X568204Y568240D01*
X569173Y568425D01*
X570066Y568845D01*
X570827Y569474D01*
X571407Y570273D01*
X571770Y571190D01*
X571894Y572169D01*
X264807Y572169D02*
X264683Y573148D01*
X264320Y574066D01*
X263740Y574864D01*
X262980Y575493D01*
X262087Y575914D01*
X261117Y576098D01*
X260132Y576037D01*
X259194Y575732D01*
X258361Y575203D01*
X257685Y574483D01*
X257209Y573619D01*
X256964Y572663D01*
Y571676D01*
X257209Y570720D01*
X257685Y569855D01*
X258361Y569136D01*
X259194Y568607D01*
X260132Y568302D01*
X261117Y568240D01*
X262087Y568425D01*
X262980Y568845D01*
X263740Y569474D01*
X264320Y570273D01*
X264683Y571190D01*
X264807Y572169D01*
X571894Y166657D02*
X571770Y167637D01*
X571407Y168554D01*
X570827Y169352D01*
X570066Y169982D01*
X569173Y170402D01*
X568204Y170587D01*
X567219Y170525D01*
X566280Y170220D01*
X565447Y169691D01*
X564772Y168972D01*
X564296Y168107D01*
X564051Y167151D01*
Y166164D01*
X564296Y165208D01*
X564772Y164343D01*
X565447Y163624D01*
X566280Y163095D01*
X567219Y162790D01*
X568204Y162728D01*
X569173Y162913D01*
X570066Y163333D01*
X570827Y163962D01*
X571407Y164761D01*
X571770Y165678D01*
X571894Y166657D01*
X264807Y166657D02*
X264683Y167637D01*
X264320Y168554D01*
X263740Y169352D01*
X262980Y169982D01*
X262087Y170402D01*
X261117Y170587D01*
X260132Y170525D01*
X259194Y170220D01*
X258361Y169691D01*
X257685Y168972D01*
X257209Y168107D01*
X256964Y167151D01*
Y166164D01*
X257209Y165208D01*
X257685Y164343D01*
X258361Y163624D01*
X259194Y163095D01*
X260132Y162790D01*
X261117Y162728D01*
X262087Y162913D01*
X262980Y163333D01*
X263740Y163962D01*
X264320Y164761D01*
X264683Y165678D01*
X264807Y166657D01*
X607327Y570201D02*
X607286Y571176D01*
X607166Y572145D01*
X606965Y573100D01*
X606687Y574036D01*
X606332Y574945D01*
X605903Y575822D01*
X605404Y576661D01*
X604836Y577455D01*
X604205Y578200D01*
X603515Y578890D01*
X602770Y579521D01*
X601976Y580089D01*
X601137Y580588D01*
X600260Y581017D01*
X599351Y581372D01*
X598415Y581650D01*
X597460Y581851D01*
X596491Y581972D01*
X595516Y582012D01*
X233311D02*
X232336Y581972D01*
X231367Y581851D01*
X230412Y581650D01*
X229476Y581372D01*
X228567Y581017D01*
X227690Y580588D01*
X226851Y580089D01*
X226057Y579521D01*
X225312Y578890D01*
X224621Y578200D01*
X223991Y577455D01*
X223423Y576661D01*
X222923Y575822D01*
X222495Y574945D01*
X222140Y574036D01*
X221861Y573100D01*
X221661Y572145D01*
X221540Y571176D01*
X221500Y570201D01*
X595516Y156815D02*
X596491Y156855D01*
X597460Y156976D01*
X598415Y157176D01*
X599351Y157455D01*
X600260Y157810D01*
X601137Y158238D01*
X601976Y158738D01*
X602770Y159305D01*
X603515Y159936D01*
X604205Y160627D01*
X604836Y161372D01*
X605404Y162166D01*
X605903Y163005D01*
X606332Y163882D01*
X606687Y164791D01*
X606965Y165727D01*
X607166Y166682D01*
X607286Y167651D01*
X607327Y168626D01*
X221500D02*
X221540Y167651D01*
X221661Y166682D01*
X221861Y165726D01*
X222140Y164791D01*
X222495Y163882D01*
X222923Y163005D01*
X223423Y162166D01*
X223991Y161372D01*
X224621Y160627D01*
X225312Y159936D01*
X226057Y159305D01*
X226851Y158738D01*
X227690Y158238D01*
X228567Y157810D01*
X229476Y157455D01*
X230412Y157176D01*
X231367Y156976D01*
X232336Y156855D01*
X233311Y156815D01*
X284492Y184374D02*
X347484Y184374D01*
X371106Y562327D02*
X457721D01*
X481343Y554453D02*
X544335Y554453D01*
X481343Y562327D02*
X544335Y562327D01*
X481343Y459965D02*
X544335Y459965D01*
X481343Y467839D02*
X544335Y467839D01*
X481343Y365476D02*
X544335Y365476D01*
X481343Y373350D02*
X544335Y373350D01*
X481343Y270988D02*
X544335Y270988D01*
X481343Y278862D02*
X544335Y278862D01*
X284492Y554453D02*
X347484Y554453D01*
X284492Y562327D02*
X347484Y562327D01*
X284492Y459965D02*
X347484Y459965D01*
X284492Y467839D02*
X347484Y467839D01*
X284492Y365476D02*
X347484Y365476D01*
X284492Y373350D02*
X347484Y373350D01*
X284492Y278862D02*
X347484Y278862D01*
X284492Y270988D02*
X347484Y270988D01*
X422287D02*
X457721D01*
X422287Y278862D02*
X457721D01*
X371106Y270988D02*
X406539D01*
X371106Y278862D02*
X406539D01*
X422287Y365476D02*
X457721D01*
X422287Y373350D02*
X457721D01*
X371106Y365476D02*
X406539D01*
X371106Y373350D02*
X406539D01*
X422287Y459965D02*
X457721D01*
X422287Y467839D02*
X457721D01*
X371106Y459965D02*
X406539D01*
X371106Y467839D02*
X406539D01*
X371106Y554453D02*
X406539D01*
X422287D02*
X457721D01*
X418350Y471776D02*
Y550516D01*
X410476Y471776D02*
Y550516D01*
X418350Y377287D02*
Y456028D01*
X410476Y377287D02*
Y456028D01*
X418350Y282799D02*
Y361539D01*
X410476Y282799D02*
Y361539D01*
X418350Y188311D02*
Y267051D01*
X410476Y188311D02*
Y267051D01*
X567957Y270988D02*
X603390D01*
X567957Y278862D02*
X603390D01*
X567957Y365476D02*
X603390D01*
X567957Y373350D02*
X603390D01*
X567957Y459965D02*
X603390D01*
X567957Y467839D02*
X603390D01*
X567957Y554453D02*
X603390D01*
X567957Y562327D02*
X607327D01*
X221500D02*
X260870D01*
X225437Y554453D02*
X260870D01*
X225437Y467839D02*
X260870D01*
X225437Y459965D02*
X260870D01*
X225437Y373350D02*
X260870D01*
X225437Y365476D02*
X260870D01*
X225437Y278862D02*
X260870D01*
X225437Y270988D02*
X260870D01*
X221500Y282799D02*
Y361539D01*
Y377287D02*
Y456028D01*
Y471776D02*
Y550516D01*
X607327Y471776D02*
Y550516D01*
Y377287D02*
Y456028D01*
Y282799D02*
Y361539D01*
Y188311D02*
Y267051D01*
X221500Y188311D02*
Y267051D01*
X481343Y176500D02*
X544335Y176500D01*
X371106D02*
X457721D01*
X284492Y176500D02*
X347484Y176500D01*
X481343Y184374D02*
X544335Y184374D01*
X567957D02*
X603390D01*
X422287D02*
X457721D01*
X371106D02*
X406539D01*
X225437D02*
X260870D01*
X567957Y176500D02*
X607327D01*
X221500D02*
X260870D01*
X607327Y562327D02*
Y570201D01*
X221500Y562327D02*
Y570201D01*
X233311Y582012D02*
X595516Y582012D01*
X607327Y168626D02*
Y176500D01*
X221500Y168626D02*
Y176500D01*
X233311Y156815D02*
X595516D01*
X607327Y550516D02*
X607193Y551535D01*
X606799Y552484D01*
X606174Y553300D01*
X605358Y553925D01*
X604409Y554319D01*
X603390Y554453D01*
Y467839D02*
X604409Y467973D01*
X605358Y468366D01*
X606174Y468992D01*
X606799Y469807D01*
X607193Y470757D01*
X607327Y471776D01*
X418350D02*
X418484Y470757D01*
X418878Y469807D01*
X419503Y468992D01*
X420319Y468366D01*
X421268Y467973D01*
X422287Y467839D01*
Y554453D02*
X421268Y554319D01*
X420319Y553925D01*
X419503Y553300D01*
X418878Y552484D01*
X418484Y551535D01*
X418350Y550516D01*
X422287Y554453D02*
X421268Y554319D01*
X420319Y553925D01*
X419503Y553300D01*
X418878Y552484D01*
X418484Y551535D01*
X418350Y550516D01*
X418350Y471776D02*
X418484Y470757D01*
X418878Y469807D01*
X419503Y468992D01*
X420319Y468366D01*
X421268Y467973D01*
X422287Y467839D01*
X603390D02*
X604409Y467973D01*
X605358Y468366D01*
X606174Y468992D01*
X606799Y469807D01*
X607193Y470757D01*
X607327Y471776D01*
Y550516D02*
X607193Y551535D01*
X606799Y552484D01*
X606174Y553300D01*
X605358Y553925D01*
X604409Y554319D01*
X603390Y554453D01*
X422287D01*
X603390Y467839D02*
X422287D01*
X607327Y550516D02*
Y471776D01*
X418350Y550516D02*
Y471776D01*
Y550516D02*
Y471776D01*
X607327Y550516D02*
Y471776D01*
X603390Y467839D02*
X422287D01*
X603390Y554453D02*
X422287D01*
X607327Y456028D02*
X607193Y457047D01*
X606799Y457996D01*
X606174Y458811D01*
X605358Y459437D01*
X604409Y459830D01*
X603390Y459965D01*
Y373350D02*
X604409Y373484D01*
X605358Y373878D01*
X606174Y374503D01*
X606799Y375319D01*
X607193Y376268D01*
X607327Y377287D01*
X418350D02*
X418484Y376268D01*
X418878Y375319D01*
X419503Y374503D01*
X420319Y373878D01*
X421268Y373484D01*
X422287Y373350D01*
Y459965D02*
X421268Y459830D01*
X420319Y459437D01*
X419503Y458811D01*
X418878Y457996D01*
X418484Y457047D01*
X418350Y456028D01*
X422287Y459965D02*
X421268Y459830D01*
X420319Y459437D01*
X419503Y458811D01*
X418878Y457996D01*
X418484Y457047D01*
X418350Y456028D01*
X418350Y377287D02*
X418484Y376268D01*
X418878Y375319D01*
X419503Y374503D01*
X420319Y373878D01*
X421268Y373484D01*
X422287Y373350D01*
X603390D02*
X604409Y373484D01*
X605358Y373878D01*
X606174Y374503D01*
X606799Y375319D01*
X607193Y376268D01*
X607327Y377287D01*
Y456028D02*
X607193Y457047D01*
X606799Y457996D01*
X606174Y458811D01*
X605358Y459437D01*
X604409Y459830D01*
X603390Y459965D01*
X422287D01*
X603390Y373350D02*
X422287D01*
X607327Y456028D02*
Y377287D01*
X418350Y456028D02*
Y377287D01*
Y456028D02*
Y377287D01*
X607327Y456028D02*
Y377287D01*
X603390Y373350D02*
X422287D01*
X603390Y459965D02*
X422287D01*
X607327Y361539D02*
X607193Y362558D01*
X606799Y363508D01*
X606174Y364323D01*
X605358Y364949D01*
X604409Y365342D01*
X603390Y365476D01*
Y278862D02*
X604409Y278996D01*
X605358Y279390D01*
X606174Y280015D01*
X606799Y280831D01*
X607193Y281780D01*
X607327Y282799D01*
X418350D02*
X418484Y281780D01*
X418878Y280831D01*
X419503Y280015D01*
X420319Y279390D01*
X421268Y278996D01*
X422287Y278862D01*
Y365476D02*
X421268Y365342D01*
X420319Y364949D01*
X419503Y364323D01*
X418878Y363508D01*
X418484Y362558D01*
X418350Y361539D01*
X422287Y365476D02*
X421268Y365342D01*
X420319Y364949D01*
X419503Y364323D01*
X418878Y363508D01*
X418484Y362558D01*
X418350Y361539D01*
X418350Y282799D02*
X418484Y281780D01*
X418878Y280831D01*
X419503Y280015D01*
X420319Y279390D01*
X421268Y278996D01*
X422287Y278862D01*
X603390D02*
X604409Y278996D01*
X605358Y279390D01*
X606174Y280015D01*
X606799Y280831D01*
X607193Y281780D01*
X607327Y282799D01*
Y361539D02*
X607193Y362558D01*
X606799Y363508D01*
X606174Y364323D01*
X605358Y364949D01*
X604409Y365342D01*
X603390Y365476D01*
X422287D01*
X603390Y278862D02*
X422287D01*
X607327Y361539D02*
Y282799D01*
X418350Y361539D02*
Y282799D01*
Y361539D02*
Y282799D01*
X607327Y361539D02*
Y282799D01*
X603390Y278862D02*
X422287D01*
X603390Y365476D02*
X422287D01*
X607327Y267051D02*
X607193Y268070D01*
X606799Y269020D01*
X606174Y269835D01*
X605358Y270461D01*
X604409Y270854D01*
X603390Y270988D01*
Y184374D02*
X604409Y184508D01*
X605358Y184901D01*
X606174Y185527D01*
X606799Y186343D01*
X607193Y187292D01*
X607327Y188311D01*
X418350D02*
X418484Y187292D01*
X418878Y186343D01*
X419503Y185527D01*
X420319Y184901D01*
X421268Y184508D01*
X422287Y184374D01*
Y270988D02*
X421268Y270854D01*
X420319Y270461D01*
X419503Y269835D01*
X418878Y269020D01*
X418484Y268070D01*
X418350Y267051D01*
X422287Y270988D02*
X421268Y270854D01*
X420319Y270461D01*
X419503Y269835D01*
X418878Y269020D01*
X418484Y268070D01*
X418350Y267051D01*
X418350Y188311D02*
X418484Y187292D01*
X418878Y186343D01*
X419503Y185527D01*
X420319Y184901D01*
X421268Y184508D01*
X422287Y184374D01*
X603390D02*
X604409Y184508D01*
X605358Y184901D01*
X606174Y185527D01*
X606799Y186343D01*
X607193Y187292D01*
X607327Y188311D01*
Y267051D02*
X607193Y268070D01*
X606799Y269020D01*
X606174Y269835D01*
X605358Y270461D01*
X604409Y270854D01*
X603390Y270988D01*
X422287D01*
X603390Y184374D02*
X422287D01*
X607327Y267051D02*
Y188311D01*
X418350Y267051D02*
Y188311D01*
Y267051D02*
Y188311D01*
X607327Y267051D02*
Y188311D01*
X603390Y184374D02*
X422287D01*
X603390Y270988D02*
X422287D01*
X221500Y188311D02*
X221634Y187292D01*
X222027Y186343D01*
X222653Y185527D01*
X223468Y184901D01*
X224418Y184508D01*
X225437Y184374D01*
Y270988D02*
X224418Y270854D01*
X223468Y270461D01*
X222653Y269835D01*
X222027Y269020D01*
X221634Y268070D01*
X221500Y267051D01*
X410476D02*
X410342Y268070D01*
X409949Y269020D01*
X409323Y269835D01*
X408508Y270461D01*
X407558Y270854D01*
X406539Y270988D01*
Y184374D02*
X407558Y184508D01*
X408508Y184901D01*
X409323Y185527D01*
X409949Y186343D01*
X410342Y187292D01*
X410476Y188311D01*
X406539Y184374D02*
X407558Y184508D01*
X408508Y184901D01*
X409323Y185527D01*
X409949Y186343D01*
X410342Y187292D01*
X410476Y188311D01*
X410476Y267051D02*
X410342Y268070D01*
X409949Y269020D01*
X409323Y269835D01*
X408508Y270461D01*
X407558Y270854D01*
X406539Y270988D01*
X225437D02*
X224418Y270854D01*
X223468Y270461D01*
X222653Y269835D01*
X222027Y269020D01*
X221634Y268070D01*
X221500Y267051D01*
Y188311D02*
X221634Y187292D01*
X222027Y186343D01*
X222653Y185527D01*
X223468Y184901D01*
X224418Y184508D01*
X225437Y184374D01*
X406539D01*
X225437Y270988D02*
X406539D01*
X221500Y188311D02*
Y267051D01*
X410476Y188311D02*
Y267051D01*
Y188311D02*
Y267051D01*
X221500Y188311D02*
Y267051D01*
X225437Y270988D02*
X406539D01*
X225437Y184374D02*
X406539D01*
X221500Y282799D02*
X221634Y281780D01*
X222027Y280831D01*
X222653Y280015D01*
X223468Y279390D01*
X224418Y278996D01*
X225437Y278862D01*
Y365476D02*
X224418Y365342D01*
X223468Y364949D01*
X222653Y364323D01*
X222027Y363508D01*
X221634Y362558D01*
X221500Y361539D01*
X410476D02*
X410342Y362558D01*
X409949Y363508D01*
X409323Y364323D01*
X408508Y364949D01*
X407558Y365342D01*
X406539Y365476D01*
Y278862D02*
X407558Y278996D01*
X408508Y279390D01*
X409323Y280015D01*
X409949Y280831D01*
X410342Y281780D01*
X410476Y282799D01*
X406539Y278862D02*
X407558Y278996D01*
X408508Y279390D01*
X409323Y280015D01*
X409949Y280831D01*
X410342Y281780D01*
X410476Y282799D01*
X410476Y361539D02*
X410342Y362558D01*
X409949Y363508D01*
X409323Y364323D01*
X408508Y364949D01*
X407558Y365342D01*
X406539Y365476D01*
X225437D02*
X224418Y365342D01*
X223468Y364949D01*
X222653Y364323D01*
X222027Y363508D01*
X221634Y362558D01*
X221500Y361539D01*
Y282799D02*
X221634Y281780D01*
X222027Y280831D01*
X222653Y280015D01*
X223468Y279390D01*
X224418Y278996D01*
X225437Y278862D01*
X406539D01*
X225437Y365476D02*
X406539D01*
X221500Y282799D02*
Y361539D01*
X410476Y282799D02*
Y361539D01*
Y282799D02*
Y361539D01*
X221500Y282799D02*
Y361539D01*
X225437Y365476D02*
X406539D01*
X225437Y278862D02*
X406539D01*
X221500Y377287D02*
X221634Y376268D01*
X222027Y375319D01*
X222653Y374503D01*
X223468Y373878D01*
X224418Y373484D01*
X225437Y373350D01*
Y459965D02*
X224418Y459830D01*
X223468Y459437D01*
X222653Y458811D01*
X222027Y457996D01*
X221634Y457047D01*
X221500Y456028D01*
X410476D02*
X410342Y457047D01*
X409949Y457996D01*
X409323Y458811D01*
X408508Y459437D01*
X407558Y459830D01*
X406539Y459965D01*
Y373350D02*
X407558Y373484D01*
X408508Y373878D01*
X409323Y374503D01*
X409949Y375319D01*
X410342Y376268D01*
X410476Y377287D01*
X406539Y373350D02*
X407558Y373484D01*
X408508Y373878D01*
X409323Y374503D01*
X409949Y375319D01*
X410342Y376268D01*
X410476Y377287D01*
X410476Y456028D02*
X410342Y457047D01*
X409949Y457996D01*
X409323Y458811D01*
X408508Y459437D01*
X407558Y459830D01*
X406539Y459965D01*
X225437D02*
X224418Y459830D01*
X223468Y459437D01*
X222653Y458811D01*
X222027Y457996D01*
X221634Y457047D01*
X221500Y456028D01*
Y377287D02*
X221634Y376268D01*
X222027Y375319D01*
X222653Y374503D01*
X223468Y373878D01*
X224418Y373484D01*
X225437Y373350D01*
X406539D01*
X225437Y459965D02*
X406539D01*
X221500Y377287D02*
Y456028D01*
X410476Y377287D02*
Y456028D01*
Y377287D02*
Y456028D01*
X221500Y377287D02*
Y456028D01*
X225437Y459965D02*
X406539D01*
X225437Y373350D02*
X406539D01*
X221500Y471776D02*
X221634Y470757D01*
X222027Y469807D01*
X222653Y468992D01*
X223468Y468366D01*
X224418Y467973D01*
X225437Y467839D01*
Y554453D02*
X224418Y554319D01*
X223468Y553925D01*
X222653Y553300D01*
X222027Y552484D01*
X221634Y551535D01*
X221500Y550516D01*
X410476D02*
X410342Y551535D01*
X409949Y552484D01*
X409323Y553300D01*
X408508Y553925D01*
X407558Y554319D01*
X406539Y554453D01*
Y467839D02*
X407558Y467973D01*
X408508Y468366D01*
X409323Y468992D01*
X409949Y469807D01*
X410342Y470757D01*
X410476Y471776D01*
X406539Y467839D02*
X407558Y467973D01*
X408508Y468366D01*
X409323Y468992D01*
X409949Y469807D01*
X410342Y470757D01*
X410476Y471776D01*
X410476Y550516D02*
X410342Y551535D01*
X409949Y552484D01*
X409323Y553300D01*
X408508Y553925D01*
X407558Y554319D01*
X406539Y554453D01*
X225437D02*
X224418Y554319D01*
X223468Y553925D01*
X222653Y553300D01*
X222027Y552484D01*
X221634Y551535D01*
X221500Y550516D01*
Y471776D02*
X221634Y470757D01*
X222027Y469807D01*
X222653Y468992D01*
X223468Y468366D01*
X224418Y467973D01*
X225437Y467839D01*
X406539D01*
X225437Y554453D02*
X406539D01*
X221500Y471776D02*
Y550516D01*
X410476Y471776D02*
Y550516D01*
Y471776D02*
Y550516D01*
X221500Y471776D02*
Y550516D01*
X225437Y554453D02*
X406539D01*
X225437Y467839D02*
X406539D01*
M02*
