G04*
G04 #@! TF.GenerationSoftware,Altium Limited,Altium Designer,18.0.7 (293)*
G04*
G04 Layer_Color=128*
%FSLAX25Y25*%
%MOIN*%
G70*
G01*
G75*
%ADD21C,0.00787*%
%ADD60C,0.00200*%
G54D21*
X264020Y554453D02*
X263575Y555376D01*
X262576Y555604D01*
X261774Y554965D01*
Y553940D01*
X262576Y553301D01*
X263575Y553529D01*
X264020Y554453D01*
X283705D02*
X283260Y555376D01*
X282261Y555604D01*
X281459Y554965D01*
Y553940D01*
X282261Y553301D01*
X283260Y553529D01*
X283705Y554453D01*
X567169D02*
X566725Y555376D01*
X565725Y555604D01*
X564924Y554965D01*
Y553940D01*
X565725Y553301D01*
X566725Y553529D01*
X567169Y554453D01*
X480555D02*
X480110Y555376D01*
X479111Y555604D01*
X478310Y554965D01*
Y553940D01*
X479111Y553301D01*
X480110Y553529D01*
X480555Y554453D01*
X283705Y459965D02*
X283260Y460888D01*
X282261Y461116D01*
X281459Y460477D01*
Y459452D01*
X282261Y458813D01*
X283260Y459041D01*
X283705Y459965D01*
Y467839D02*
X283260Y468762D01*
X282261Y468990D01*
X281459Y468351D01*
Y467326D01*
X282261Y466687D01*
X283260Y466915D01*
X283705Y467839D01*
X370319Y459965D02*
X369874Y460888D01*
X368875Y461116D01*
X368074Y460477D01*
Y459452D01*
X368875Y458813D01*
X369874Y459041D01*
X370319Y459965D01*
Y467839D02*
X369874Y468762D01*
X368875Y468990D01*
X368074Y468351D01*
Y467326D01*
X368875Y466687D01*
X369874Y466915D01*
X370319Y467839D01*
X480555Y459965D02*
X480110Y460888D01*
X479111Y461116D01*
X478310Y460477D01*
Y459452D01*
X479111Y458813D01*
X480110Y459041D01*
X480555Y459965D01*
Y467839D02*
X480110Y468762D01*
X479111Y468990D01*
X478310Y468351D01*
Y467326D01*
X479111Y466687D01*
X480110Y466915D01*
X480555Y467839D01*
X567169Y459965D02*
X566725Y460888D01*
X565725Y461116D01*
X564924Y460477D01*
Y459452D01*
X565725Y458813D01*
X566725Y459041D01*
X567169Y459965D01*
Y467839D02*
X566725Y468762D01*
X565725Y468990D01*
X564924Y468351D01*
Y467326D01*
X565725Y466687D01*
X566725Y466915D01*
X567169Y467839D01*
Y365476D02*
X566725Y366400D01*
X565725Y366628D01*
X564924Y365989D01*
Y364964D01*
X565725Y364325D01*
X566725Y364553D01*
X567169Y365476D01*
Y373350D02*
X566725Y374274D01*
X565725Y374502D01*
X564924Y373863D01*
Y372838D01*
X565725Y372199D01*
X566725Y372427D01*
X567169Y373350D01*
X480555Y365476D02*
X480110Y366400D01*
X479111Y366628D01*
X478310Y365989D01*
Y364964D01*
X479111Y364325D01*
X480110Y364553D01*
X480555Y365476D01*
Y373350D02*
X480110Y374274D01*
X479111Y374502D01*
X478310Y373863D01*
Y372838D01*
X479111Y372199D01*
X480110Y372427D01*
X480555Y373350D01*
X370319Y365476D02*
X369874Y366400D01*
X368875Y366628D01*
X368074Y365989D01*
Y364964D01*
X368875Y364325D01*
X369874Y364553D01*
X370319Y365476D01*
Y373350D02*
X369874Y374274D01*
X368875Y374502D01*
X368074Y373863D01*
Y372838D01*
X368875Y372199D01*
X369874Y372427D01*
X370319Y373350D01*
X283705Y365476D02*
X283260Y366400D01*
X282261Y366628D01*
X281459Y365989D01*
Y364964D01*
X282261Y364325D01*
X283260Y364553D01*
X283705Y365476D01*
Y373350D02*
X283260Y374274D01*
X282261Y374502D01*
X281459Y373863D01*
Y372838D01*
X282261Y372199D01*
X283260Y372427D01*
X283705Y373350D01*
X370319Y270988D02*
X369874Y271912D01*
X368875Y272140D01*
X368074Y271501D01*
Y270476D01*
X368875Y269837D01*
X369874Y270065D01*
X370319Y270988D01*
Y278862D02*
X369874Y279786D01*
X368875Y280014D01*
X368074Y279375D01*
Y278350D01*
X368875Y277711D01*
X369874Y277939D01*
X370319Y278862D01*
X283705Y270988D02*
X283260Y271912D01*
X282261Y272140D01*
X281459Y271501D01*
Y270476D01*
X282261Y269837D01*
X283260Y270065D01*
X283705Y270988D01*
Y278862D02*
X283260Y279786D01*
X282261Y280014D01*
X281459Y279375D01*
Y278350D01*
X282261Y277711D01*
X283260Y277939D01*
X283705Y278862D01*
X480555Y270988D02*
X480110Y271912D01*
X479111Y272140D01*
X478310Y271501D01*
Y270476D01*
X479111Y269837D01*
X480110Y270065D01*
X480555Y270988D01*
Y278862D02*
X480110Y279786D01*
X479111Y280014D01*
X478310Y279375D01*
Y278350D01*
X479111Y277711D01*
X480110Y277939D01*
X480555Y278862D01*
X567169Y270988D02*
X566725Y271912D01*
X565725Y272140D01*
X564924Y271501D01*
Y270476D01*
X565725Y269837D01*
X566725Y270065D01*
X567169Y270988D01*
Y278862D02*
X566725Y279786D01*
X565725Y280014D01*
X564924Y279375D01*
Y278350D01*
X565725Y277711D01*
X566725Y277939D01*
X567169Y278862D01*
Y184374D02*
X566725Y185297D01*
X565725Y185526D01*
X564924Y184887D01*
Y183862D01*
X565725Y183222D01*
X566725Y183451D01*
X567169Y184374D01*
X480555D02*
X480110Y185297D01*
X479111Y185526D01*
X478310Y184887D01*
Y183862D01*
X479111Y183222D01*
X480110Y183451D01*
X480555Y184374D01*
X370319D02*
X369874Y185297D01*
X368875Y185526D01*
X368074Y184887D01*
Y183862D01*
X368875Y183222D01*
X369874Y183451D01*
X370319Y184374D01*
X283705D02*
X283260Y185297D01*
X282261Y185526D01*
X281459Y184887D01*
Y183862D01*
X282261Y183222D01*
X283260Y183451D01*
X283705Y184374D01*
X547484D02*
X547040Y185297D01*
X546040Y185526D01*
X545239Y184887D01*
Y183862D01*
X546040Y183222D01*
X547040Y183451D01*
X547484Y184374D01*
X476618D02*
X476173Y185297D01*
X475174Y185526D01*
X474373Y184887D01*
Y183862D01*
X475174Y183222D01*
X476173Y183451D01*
X476618Y184374D01*
X547484Y270988D02*
X547040Y271912D01*
X546040Y272140D01*
X545239Y271501D01*
Y270476D01*
X546040Y269837D01*
X547040Y270065D01*
X547484Y270988D01*
Y278862D02*
X547040Y279786D01*
X546040Y280014D01*
X545239Y279375D01*
Y278350D01*
X546040Y277711D01*
X547040Y277939D01*
X547484Y278862D01*
X476618Y270988D02*
X476173Y271912D01*
X475174Y272140D01*
X474373Y271501D01*
Y270476D01*
X475174Y269837D01*
X476173Y270065D01*
X476618Y270988D01*
Y278862D02*
X476173Y279786D01*
X475174Y280014D01*
X474373Y279375D01*
Y278350D01*
X475174Y277711D01*
X476173Y277939D01*
X476618Y278862D01*
X547484Y365476D02*
X547040Y366400D01*
X546040Y366628D01*
X545239Y365989D01*
Y364964D01*
X546040Y364325D01*
X547040Y364553D01*
X547484Y365476D01*
Y373350D02*
X547040Y374274D01*
X546040Y374502D01*
X545239Y373863D01*
Y372838D01*
X546040Y372199D01*
X547040Y372427D01*
X547484Y373350D01*
X476618Y365476D02*
X476173Y366400D01*
X475174Y366628D01*
X474373Y365989D01*
Y364964D01*
X475174Y364325D01*
X476173Y364553D01*
X476618Y365476D01*
Y373350D02*
X476173Y374274D01*
X475174Y374502D01*
X474373Y373863D01*
Y372838D01*
X475174Y372199D01*
X476173Y372427D01*
X476618Y373350D01*
X547484Y467839D02*
X547040Y468762D01*
X546040Y468990D01*
X545239Y468351D01*
Y467326D01*
X546040Y466687D01*
X547040Y466915D01*
X547484Y467839D01*
Y459965D02*
X547040Y460888D01*
X546040Y461116D01*
X545239Y460477D01*
Y459452D01*
X546040Y458813D01*
X547040Y459041D01*
X547484Y459965D01*
X476618D02*
X476173Y460888D01*
X475174Y461116D01*
X474373Y460477D01*
Y459452D01*
X475174Y458813D01*
X476173Y459041D01*
X476618Y459965D01*
Y467839D02*
X476173Y468762D01*
X475174Y468990D01*
X474373Y468351D01*
Y467326D01*
X475174Y466687D01*
X476173Y466915D01*
X476618Y467839D01*
X547484Y554453D02*
X547040Y555376D01*
X546040Y555604D01*
X545239Y554965D01*
Y553940D01*
X546040Y553301D01*
X547040Y553529D01*
X547484Y554453D01*
X476618D02*
X476173Y555376D01*
X475174Y555604D01*
X474373Y554965D01*
Y553940D01*
X475174Y553301D01*
X476173Y553529D01*
X476618Y554453D01*
X350634D02*
X350189Y555376D01*
X349190Y555604D01*
X348389Y554965D01*
Y553940D01*
X349190Y553301D01*
X350189Y553529D01*
X350634Y554453D01*
X279768D02*
X279323Y555376D01*
X278324Y555604D01*
X277522Y554965D01*
Y553940D01*
X278324Y553301D01*
X279323Y553529D01*
X279768Y554453D01*
X350634Y459965D02*
X350189Y460888D01*
X349190Y461116D01*
X348389Y460477D01*
Y459452D01*
X349190Y458813D01*
X350189Y459041D01*
X350634Y459965D01*
Y467839D02*
X350189Y468762D01*
X349190Y468990D01*
X348389Y468351D01*
Y467326D01*
X349190Y466687D01*
X350189Y466915D01*
X350634Y467839D01*
X279768Y459965D02*
X279323Y460888D01*
X278324Y461116D01*
X277522Y460477D01*
Y459452D01*
X278324Y458813D01*
X279323Y459041D01*
X279768Y459965D01*
Y467839D02*
X279323Y468762D01*
X278324Y468990D01*
X277522Y468351D01*
Y467326D01*
X278324Y466687D01*
X279323Y466915D01*
X279768Y467839D01*
X350634Y365476D02*
X350189Y366400D01*
X349190Y366628D01*
X348389Y365989D01*
Y364964D01*
X349190Y364325D01*
X350189Y364553D01*
X350634Y365476D01*
Y373350D02*
X350189Y374274D01*
X349190Y374502D01*
X348389Y373863D01*
Y372838D01*
X349190Y372199D01*
X350189Y372427D01*
X350634Y373350D01*
X279768Y365476D02*
X279323Y366400D01*
X278324Y366628D01*
X277522Y365989D01*
Y364964D01*
X278324Y364325D01*
X279323Y364553D01*
X279768Y365476D01*
Y373350D02*
X279323Y374274D01*
X278324Y374502D01*
X277522Y373863D01*
Y372838D01*
X278324Y372199D01*
X279323Y372427D01*
X279768Y373350D01*
X350634Y270988D02*
X350189Y271912D01*
X349190Y272140D01*
X348389Y271501D01*
Y270476D01*
X349190Y269837D01*
X350189Y270065D01*
X350634Y270988D01*
Y278862D02*
X350189Y279786D01*
X349190Y280014D01*
X348389Y279375D01*
Y278350D01*
X349190Y277711D01*
X350189Y277939D01*
X350634Y278862D01*
X279768Y270988D02*
X279323Y271912D01*
X278324Y272140D01*
X277522Y271501D01*
Y270476D01*
X278324Y269837D01*
X279323Y270065D01*
X279768Y270988D01*
Y278862D02*
X279323Y279786D01*
X278324Y280014D01*
X277522Y279375D01*
Y278350D01*
X278324Y277711D01*
X279323Y277939D01*
X279768Y278862D01*
X350634Y184374D02*
X350189Y185297D01*
X349190Y185526D01*
X348389Y184887D01*
Y183862D01*
X349190Y183222D01*
X350189Y183451D01*
X350634Y184374D01*
X279768D02*
X279323Y185297D01*
X278324Y185526D01*
X277522Y184887D01*
Y183862D01*
X278324Y183222D01*
X279323Y183451D01*
X279768Y184374D01*
X551421Y270988D02*
X550977Y271912D01*
X549977Y272140D01*
X549176Y271501D01*
Y270476D01*
X549977Y269837D01*
X550977Y270065D01*
X551421Y270988D01*
X555358D02*
X554914Y271912D01*
X553914Y272140D01*
X553113Y271501D01*
Y270476D01*
X553914Y269837D01*
X554914Y270065D01*
X555358Y270988D01*
X559295D02*
X558851Y271912D01*
X557851Y272140D01*
X557050Y271501D01*
Y270476D01*
X557851Y269837D01*
X558851Y270065D01*
X559295Y270988D01*
X563232D02*
X562788Y271912D01*
X561788Y272140D01*
X560987Y271501D01*
Y270476D01*
X561788Y269837D01*
X562788Y270065D01*
X563232Y270988D01*
X551421Y278862D02*
X550977Y279786D01*
X549977Y280014D01*
X549176Y279375D01*
Y278350D01*
X549977Y277711D01*
X550977Y277939D01*
X551421Y278862D01*
X555358D02*
X554914Y279786D01*
X553914Y280014D01*
X553113Y279375D01*
Y278350D01*
X553914Y277711D01*
X554914Y277939D01*
X555358Y278862D01*
X559295D02*
X558851Y279786D01*
X557851Y280014D01*
X557050Y279375D01*
Y278350D01*
X557851Y277711D01*
X558851Y277939D01*
X559295Y278862D01*
X563232D02*
X562788Y279786D01*
X561788Y280014D01*
X560987Y279375D01*
Y278350D01*
X561788Y277711D01*
X562788Y277939D01*
X563232Y278862D01*
X460870Y270988D02*
X460425Y271912D01*
X459426Y272140D01*
X458625Y271501D01*
Y270476D01*
X459426Y269837D01*
X460425Y270065D01*
X460870Y270988D01*
X464807D02*
X464362Y271912D01*
X463363Y272140D01*
X462562Y271501D01*
Y270476D01*
X463363Y269837D01*
X464362Y270065D01*
X464807Y270988D01*
X468744D02*
X468299Y271912D01*
X467300Y272140D01*
X466499Y271501D01*
Y270476D01*
X467300Y269837D01*
X468299Y270065D01*
X468744Y270988D01*
X472681D02*
X472236Y271912D01*
X471237Y272140D01*
X470436Y271501D01*
Y270476D01*
X471237Y269837D01*
X472236Y270065D01*
X472681Y270988D01*
X460870Y278862D02*
X460425Y279786D01*
X459426Y280014D01*
X458625Y279375D01*
Y278350D01*
X459426Y277711D01*
X460425Y277939D01*
X460870Y278862D01*
X464807D02*
X464362Y279786D01*
X463363Y280014D01*
X462562Y279375D01*
Y278350D01*
X463363Y277711D01*
X464362Y277939D01*
X464807Y278862D01*
X468744D02*
X468299Y279786D01*
X467300Y280014D01*
X466499Y279375D01*
Y278350D01*
X467300Y277711D01*
X468299Y277939D01*
X468744Y278862D01*
X472681D02*
X472236Y279786D01*
X471237Y280014D01*
X470436Y279375D01*
Y278350D01*
X471237Y277711D01*
X472236Y277939D01*
X472681Y278862D01*
X551421Y365476D02*
X550977Y366400D01*
X549977Y366628D01*
X549176Y365989D01*
Y364964D01*
X549977Y364325D01*
X550977Y364553D01*
X551421Y365476D01*
X555358D02*
X554914Y366400D01*
X553914Y366628D01*
X553113Y365989D01*
Y364964D01*
X553914Y364325D01*
X554914Y364553D01*
X555358Y365476D01*
X559295D02*
X558851Y366400D01*
X557851Y366628D01*
X557050Y365989D01*
Y364964D01*
X557851Y364325D01*
X558851Y364553D01*
X559295Y365476D01*
X563232D02*
X562788Y366400D01*
X561788Y366628D01*
X560987Y365989D01*
Y364964D01*
X561788Y364325D01*
X562788Y364553D01*
X563232Y365476D01*
X551421Y373350D02*
X550977Y374274D01*
X549977Y374502D01*
X549176Y373863D01*
Y372838D01*
X549977Y372199D01*
X550977Y372427D01*
X551421Y373350D01*
X555358D02*
X554914Y374274D01*
X553914Y374502D01*
X553113Y373863D01*
Y372838D01*
X553914Y372199D01*
X554914Y372427D01*
X555358Y373350D01*
X559295D02*
X558851Y374274D01*
X557851Y374502D01*
X557050Y373863D01*
Y372838D01*
X557851Y372199D01*
X558851Y372427D01*
X559295Y373350D01*
X563232D02*
X562788Y374274D01*
X561788Y374502D01*
X560987Y373863D01*
Y372838D01*
X561788Y372199D01*
X562788Y372427D01*
X563232Y373350D01*
X460870Y365476D02*
X460425Y366400D01*
X459426Y366628D01*
X458625Y365989D01*
Y364964D01*
X459426Y364325D01*
X460425Y364553D01*
X460870Y365476D01*
X464807D02*
X464362Y366400D01*
X463363Y366628D01*
X462562Y365989D01*
Y364964D01*
X463363Y364325D01*
X464362Y364553D01*
X464807Y365476D01*
X468744D02*
X468299Y366400D01*
X467300Y366628D01*
X466499Y365989D01*
Y364964D01*
X467300Y364325D01*
X468299Y364553D01*
X468744Y365476D01*
X472681D02*
X472236Y366400D01*
X471237Y366628D01*
X470436Y365989D01*
Y364964D01*
X471237Y364325D01*
X472236Y364553D01*
X472681Y365476D01*
X460870Y373350D02*
X460425Y374274D01*
X459426Y374502D01*
X458625Y373863D01*
Y372838D01*
X459426Y372199D01*
X460425Y372427D01*
X460870Y373350D01*
X464807D02*
X464362Y374274D01*
X463363Y374502D01*
X462562Y373863D01*
Y372838D01*
X463363Y372199D01*
X464362Y372427D01*
X464807Y373350D01*
X468744D02*
X468299Y374274D01*
X467300Y374502D01*
X466499Y373863D01*
Y372838D01*
X467300Y372199D01*
X468299Y372427D01*
X468744Y373350D01*
X472681D02*
X472236Y374274D01*
X471237Y374502D01*
X470436Y373863D01*
Y372838D01*
X471237Y372199D01*
X472236Y372427D01*
X472681Y373350D01*
X551421Y459965D02*
X550977Y460888D01*
X549977Y461116D01*
X549176Y460477D01*
Y459452D01*
X549977Y458813D01*
X550977Y459041D01*
X551421Y459965D01*
X555358D02*
X554914Y460888D01*
X553914Y461116D01*
X553113Y460477D01*
Y459452D01*
X553914Y458813D01*
X554914Y459041D01*
X555358Y459965D01*
X559295D02*
X558851Y460888D01*
X557851Y461116D01*
X557050Y460477D01*
Y459452D01*
X557851Y458813D01*
X558851Y459041D01*
X559295Y459965D01*
X563232D02*
X562788Y460888D01*
X561788Y461116D01*
X560987Y460477D01*
Y459452D01*
X561788Y458813D01*
X562788Y459041D01*
X563232Y459965D01*
X551421Y467839D02*
X550977Y468762D01*
X549977Y468990D01*
X549176Y468351D01*
Y467326D01*
X549977Y466687D01*
X550977Y466915D01*
X551421Y467839D01*
X555358D02*
X554914Y468762D01*
X553914Y468990D01*
X553113Y468351D01*
Y467326D01*
X553914Y466687D01*
X554914Y466915D01*
X555358Y467839D01*
X559295D02*
X558851Y468762D01*
X557851Y468990D01*
X557050Y468351D01*
Y467326D01*
X557851Y466687D01*
X558851Y466915D01*
X559295Y467839D01*
X563232D02*
X562788Y468762D01*
X561788Y468990D01*
X560987Y468351D01*
Y467326D01*
X561788Y466687D01*
X562788Y466915D01*
X563232Y467839D01*
X460870Y459965D02*
X460425Y460888D01*
X459426Y461116D01*
X458625Y460477D01*
Y459452D01*
X459426Y458813D01*
X460425Y459041D01*
X460870Y459965D01*
X464807D02*
X464362Y460888D01*
X463363Y461116D01*
X462562Y460477D01*
Y459452D01*
X463363Y458813D01*
X464362Y459041D01*
X464807Y459965D01*
X468744D02*
X468299Y460888D01*
X467300Y461116D01*
X466499Y460477D01*
Y459452D01*
X467300Y458813D01*
X468299Y459041D01*
X468744Y459965D01*
X472681D02*
X472236Y460888D01*
X471237Y461116D01*
X470436Y460477D01*
Y459452D01*
X471237Y458813D01*
X472236Y459041D01*
X472681Y459965D01*
X460870Y467839D02*
X460425Y468762D01*
X459426Y468990D01*
X458625Y468351D01*
Y467326D01*
X459426Y466687D01*
X460425Y466915D01*
X460870Y467839D01*
X464807D02*
X464362Y468762D01*
X463363Y468990D01*
X462562Y468351D01*
Y467326D01*
X463363Y466687D01*
X464362Y466915D01*
X464807Y467839D01*
X468744D02*
X468299Y468762D01*
X467300Y468990D01*
X466499Y468351D01*
Y467326D01*
X467300Y466687D01*
X468299Y466915D01*
X468744Y467839D01*
X472681D02*
X472236Y468762D01*
X471237Y468990D01*
X470436Y468351D01*
Y467326D01*
X471237Y466687D01*
X472236Y466915D01*
X472681Y467839D01*
X551421Y554453D02*
X550977Y555376D01*
X549977Y555604D01*
X549176Y554965D01*
Y553940D01*
X549977Y553301D01*
X550977Y553529D01*
X551421Y554453D01*
X555358D02*
X554914Y555376D01*
X553914Y555604D01*
X553113Y554965D01*
Y553940D01*
X553914Y553301D01*
X554914Y553529D01*
X555358Y554453D01*
X559295D02*
X558851Y555376D01*
X557851Y555604D01*
X557050Y554965D01*
Y553940D01*
X557851Y553301D01*
X558851Y553529D01*
X559295Y554453D01*
X563232D02*
X562788Y555376D01*
X561788Y555604D01*
X560987Y554965D01*
Y553940D01*
X561788Y553301D01*
X562788Y553529D01*
X563232Y554453D01*
X460870D02*
X460425Y555376D01*
X459426Y555604D01*
X458625Y554965D01*
Y553940D01*
X459426Y553301D01*
X460425Y553529D01*
X460870Y554453D01*
X464807D02*
X464362Y555376D01*
X463363Y555604D01*
X462562Y554965D01*
Y553940D01*
X463363Y553301D01*
X464362Y553529D01*
X464807Y554453D01*
X468744D02*
X468299Y555376D01*
X467300Y555604D01*
X466499Y554965D01*
Y553940D01*
X467300Y553301D01*
X468299Y553529D01*
X468744Y554453D01*
X472681D02*
X472236Y555376D01*
X471237Y555604D01*
X470436Y554965D01*
Y553940D01*
X471237Y553301D01*
X472236Y553529D01*
X472681Y554453D01*
X354571D02*
X354126Y555376D01*
X353127Y555604D01*
X352326Y554965D01*
Y553940D01*
X353127Y553301D01*
X354126Y553529D01*
X354571Y554453D01*
X358508D02*
X358063Y555376D01*
X357064Y555604D01*
X356263Y554965D01*
Y553940D01*
X357064Y553301D01*
X358063Y553529D01*
X358508Y554453D01*
X362445D02*
X362000Y555376D01*
X361001Y555604D01*
X360200Y554965D01*
Y553940D01*
X361001Y553301D01*
X362000Y553529D01*
X362445Y554453D01*
X366382D02*
X365937Y555376D01*
X364938Y555604D01*
X364137Y554965D01*
Y553940D01*
X364938Y553301D01*
X365937Y553529D01*
X366382Y554453D01*
X267957D02*
X267512Y555376D01*
X266513Y555604D01*
X265711Y554965D01*
Y553940D01*
X266513Y553301D01*
X267512Y553529D01*
X267957Y554453D01*
X271894D02*
X271449Y555376D01*
X270450Y555604D01*
X269649Y554965D01*
Y553940D01*
X270450Y553301D01*
X271449Y553529D01*
X271894Y554453D01*
X275831D02*
X275386Y555376D01*
X274387Y555604D01*
X273586Y554965D01*
Y553940D01*
X274387Y553301D01*
X275386Y553529D01*
X275831Y554453D01*
X354571Y459965D02*
X354126Y460888D01*
X353127Y461116D01*
X352326Y460477D01*
Y459452D01*
X353127Y458813D01*
X354126Y459041D01*
X354571Y459965D01*
X358508D02*
X358063Y460888D01*
X357064Y461116D01*
X356263Y460477D01*
Y459452D01*
X357064Y458813D01*
X358063Y459041D01*
X358508Y459965D01*
X362445D02*
X362000Y460888D01*
X361001Y461116D01*
X360200Y460477D01*
Y459452D01*
X361001Y458813D01*
X362000Y459041D01*
X362445Y459965D01*
X366382D02*
X365937Y460888D01*
X364938Y461116D01*
X364137Y460477D01*
Y459452D01*
X364938Y458813D01*
X365937Y459041D01*
X366382Y459965D01*
X354571Y467839D02*
X354126Y468762D01*
X353127Y468990D01*
X352326Y468351D01*
Y467326D01*
X353127Y466687D01*
X354126Y466915D01*
X354571Y467839D01*
X358508D02*
X358063Y468762D01*
X357064Y468990D01*
X356263Y468351D01*
Y467326D01*
X357064Y466687D01*
X358063Y466915D01*
X358508Y467839D01*
X362445D02*
X362000Y468762D01*
X361001Y468990D01*
X360200Y468351D01*
Y467326D01*
X361001Y466687D01*
X362000Y466915D01*
X362445Y467839D01*
X366382D02*
X365937Y468762D01*
X364938Y468990D01*
X364137Y468351D01*
Y467326D01*
X364938Y466687D01*
X365937Y466915D01*
X366382Y467839D01*
X264020Y459965D02*
X263575Y460888D01*
X262576Y461116D01*
X261774Y460477D01*
Y459452D01*
X262576Y458813D01*
X263575Y459041D01*
X264020Y459965D01*
X267957D02*
X267512Y460888D01*
X266513Y461116D01*
X265711Y460477D01*
Y459452D01*
X266513Y458813D01*
X267512Y459041D01*
X267957Y459965D01*
X271894D02*
X271449Y460888D01*
X270450Y461116D01*
X269649Y460477D01*
Y459452D01*
X270450Y458813D01*
X271449Y459041D01*
X271894Y459965D01*
X275831D02*
X275386Y460888D01*
X274387Y461116D01*
X273586Y460477D01*
Y459452D01*
X274387Y458813D01*
X275386Y459041D01*
X275831Y459965D01*
X264020Y467839D02*
X263575Y468762D01*
X262576Y468990D01*
X261774Y468351D01*
Y467326D01*
X262576Y466687D01*
X263575Y466915D01*
X264020Y467839D01*
X267957D02*
X267512Y468762D01*
X266513Y468990D01*
X265711Y468351D01*
Y467326D01*
X266513Y466687D01*
X267512Y466915D01*
X267957Y467839D01*
X271894D02*
X271449Y468762D01*
X270450Y468990D01*
X269649Y468351D01*
Y467326D01*
X270450Y466687D01*
X271449Y466915D01*
X271894Y467839D01*
X275831D02*
X275386Y468762D01*
X274387Y468990D01*
X273586Y468351D01*
Y467326D01*
X274387Y466687D01*
X275386Y466915D01*
X275831Y467839D01*
X354571Y365476D02*
X354126Y366400D01*
X353127Y366628D01*
X352326Y365989D01*
Y364964D01*
X353127Y364325D01*
X354126Y364553D01*
X354571Y365476D01*
X358508D02*
X358063Y366400D01*
X357064Y366628D01*
X356263Y365989D01*
Y364964D01*
X357064Y364325D01*
X358063Y364553D01*
X358508Y365476D01*
X362445D02*
X362000Y366400D01*
X361001Y366628D01*
X360200Y365989D01*
Y364964D01*
X361001Y364325D01*
X362000Y364553D01*
X362445Y365476D01*
X366382D02*
X365937Y366400D01*
X364938Y366628D01*
X364137Y365989D01*
Y364964D01*
X364938Y364325D01*
X365937Y364553D01*
X366382Y365476D01*
X354571Y373350D02*
X354126Y374274D01*
X353127Y374502D01*
X352326Y373863D01*
Y372838D01*
X353127Y372199D01*
X354126Y372427D01*
X354571Y373350D01*
X358508D02*
X358063Y374274D01*
X357064Y374502D01*
X356263Y373863D01*
Y372838D01*
X357064Y372199D01*
X358063Y372427D01*
X358508Y373350D01*
X362445D02*
X362000Y374274D01*
X361001Y374502D01*
X360200Y373863D01*
Y372838D01*
X361001Y372199D01*
X362000Y372427D01*
X362445Y373350D01*
X366382D02*
X365937Y374274D01*
X364938Y374502D01*
X364137Y373863D01*
Y372838D01*
X364938Y372199D01*
X365937Y372427D01*
X366382Y373350D01*
X264020Y365476D02*
X263575Y366400D01*
X262576Y366628D01*
X261774Y365989D01*
Y364964D01*
X262576Y364325D01*
X263575Y364553D01*
X264020Y365476D01*
X267957D02*
X267512Y366400D01*
X266513Y366628D01*
X265711Y365989D01*
Y364964D01*
X266513Y364325D01*
X267512Y364553D01*
X267957Y365476D01*
X271894D02*
X271449Y366400D01*
X270450Y366628D01*
X269649Y365989D01*
Y364964D01*
X270450Y364325D01*
X271449Y364553D01*
X271894Y365476D01*
X275831D02*
X275386Y366400D01*
X274387Y366628D01*
X273586Y365989D01*
Y364964D01*
X274387Y364325D01*
X275386Y364553D01*
X275831Y365476D01*
X264020Y373350D02*
X263575Y374274D01*
X262576Y374502D01*
X261774Y373863D01*
Y372838D01*
X262576Y372199D01*
X263575Y372427D01*
X264020Y373350D01*
X267957D02*
X267512Y374274D01*
X266513Y374502D01*
X265711Y373863D01*
Y372838D01*
X266513Y372199D01*
X267512Y372427D01*
X267957Y373350D01*
X271894D02*
X271449Y374274D01*
X270450Y374502D01*
X269649Y373863D01*
Y372838D01*
X270450Y372199D01*
X271449Y372427D01*
X271894Y373350D01*
X275831D02*
X275386Y374274D01*
X274387Y374502D01*
X273586Y373863D01*
Y372838D01*
X274387Y372199D01*
X275386Y372427D01*
X275831Y373350D01*
X354571Y270988D02*
X354126Y271912D01*
X353127Y272140D01*
X352326Y271501D01*
Y270476D01*
X353127Y269837D01*
X354126Y270065D01*
X354571Y270988D01*
X358508D02*
X358063Y271912D01*
X357064Y272140D01*
X356263Y271501D01*
Y270476D01*
X357064Y269837D01*
X358063Y270065D01*
X358508Y270988D01*
X362445D02*
X362000Y271912D01*
X361001Y272140D01*
X360200Y271501D01*
Y270476D01*
X361001Y269837D01*
X362000Y270065D01*
X362445Y270988D01*
X366382D02*
X365937Y271912D01*
X364938Y272140D01*
X364137Y271501D01*
Y270476D01*
X364938Y269837D01*
X365937Y270065D01*
X366382Y270988D01*
X354571Y278862D02*
X354126Y279786D01*
X353127Y280014D01*
X352326Y279375D01*
Y278350D01*
X353127Y277711D01*
X354126Y277939D01*
X354571Y278862D01*
X358508D02*
X358063Y279786D01*
X357064Y280014D01*
X356263Y279375D01*
Y278350D01*
X357064Y277711D01*
X358063Y277939D01*
X358508Y278862D01*
X362445D02*
X362000Y279786D01*
X361001Y280014D01*
X360200Y279375D01*
Y278350D01*
X361001Y277711D01*
X362000Y277939D01*
X362445Y278862D01*
X366382D02*
X365937Y279786D01*
X364938Y280014D01*
X364137Y279375D01*
Y278350D01*
X364938Y277711D01*
X365937Y277939D01*
X366382Y278862D01*
X264020D02*
X263575Y279786D01*
X262576Y280014D01*
X261774Y279375D01*
Y278350D01*
X262576Y277711D01*
X263575Y277939D01*
X264020Y278862D01*
X267957D02*
X267512Y279786D01*
X266513Y280014D01*
X265711Y279375D01*
Y278350D01*
X266513Y277711D01*
X267512Y277939D01*
X267957Y278862D01*
X271894D02*
X271449Y279786D01*
X270450Y280014D01*
X269649Y279375D01*
Y278350D01*
X270450Y277711D01*
X271449Y277939D01*
X271894Y278862D01*
X275831D02*
X275386Y279786D01*
X274387Y280014D01*
X273586Y279375D01*
Y278350D01*
X274387Y277711D01*
X275386Y277939D01*
X275831Y278862D01*
X264020Y270988D02*
X263575Y271912D01*
X262576Y272140D01*
X261774Y271501D01*
Y270476D01*
X262576Y269837D01*
X263575Y270065D01*
X264020Y270988D01*
X267957D02*
X267512Y271912D01*
X266513Y272140D01*
X265711Y271501D01*
Y270476D01*
X266513Y269837D01*
X267512Y270065D01*
X267957Y270988D01*
X271894D02*
X271449Y271912D01*
X270450Y272140D01*
X269649Y271501D01*
Y270476D01*
X270450Y269837D01*
X271449Y270065D01*
X271894Y270988D01*
X275831D02*
X275386Y271912D01*
X274387Y272140D01*
X273586Y271501D01*
Y270476D01*
X274387Y269837D01*
X275386Y270065D01*
X275831Y270988D01*
X551421Y184374D02*
X550977Y185297D01*
X549977Y185526D01*
X549176Y184887D01*
Y183862D01*
X549977Y183222D01*
X550977Y183451D01*
X551421Y184374D01*
X555358D02*
X554914Y185297D01*
X553914Y185526D01*
X553113Y184887D01*
Y183862D01*
X553914Y183222D01*
X554914Y183451D01*
X555358Y184374D01*
X559295D02*
X558851Y185297D01*
X557851Y185526D01*
X557050Y184887D01*
Y183862D01*
X557851Y183222D01*
X558851Y183451D01*
X559295Y184374D01*
X563232D02*
X562788Y185297D01*
X561788Y185526D01*
X560987Y184887D01*
Y183862D01*
X561788Y183222D01*
X562788Y183451D01*
X563232Y184374D01*
X460870D02*
X460425Y185297D01*
X459426Y185526D01*
X458625Y184887D01*
Y183862D01*
X459426Y183222D01*
X460425Y183451D01*
X460870Y184374D01*
X464807D02*
X464362Y185297D01*
X463363Y185526D01*
X462562Y184887D01*
Y183862D01*
X463363Y183222D01*
X464362Y183451D01*
X464807Y184374D01*
X468744D02*
X468299Y185297D01*
X467300Y185526D01*
X466499Y184887D01*
Y183862D01*
X467300Y183222D01*
X468299Y183451D01*
X468744Y184374D01*
X472681D02*
X472236Y185297D01*
X471237Y185526D01*
X470436Y184887D01*
Y183862D01*
X471237Y183222D01*
X472236Y183451D01*
X472681Y184374D01*
X366382D02*
X365937Y185297D01*
X364938Y185526D01*
X364137Y184887D01*
Y183862D01*
X364938Y183222D01*
X365937Y183451D01*
X366382Y184374D01*
X362445D02*
X362000Y185297D01*
X361001Y185526D01*
X360200Y184887D01*
Y183862D01*
X361001Y183222D01*
X362000Y183451D01*
X362445Y184374D01*
X358508D02*
X358063Y185297D01*
X357064Y185526D01*
X356263Y184887D01*
Y183862D01*
X357064Y183222D01*
X358063Y183451D01*
X358508Y184374D01*
X354571D02*
X354126Y185297D01*
X353127Y185526D01*
X352326Y184887D01*
Y183862D01*
X353127Y183222D01*
X354126Y183451D01*
X354571Y184374D01*
X275831D02*
X275386Y185297D01*
X274387Y185526D01*
X273586Y184887D01*
Y183862D01*
X274387Y183222D01*
X275386Y183451D01*
X275831Y184374D01*
X271894D02*
X271449Y185297D01*
X270450Y185526D01*
X269649Y184887D01*
Y183862D01*
X270450Y183222D01*
X271449Y183451D01*
X271894Y184374D01*
X267957D02*
X267512Y185297D01*
X266513Y185526D01*
X265711Y184887D01*
Y183862D01*
X266513Y183222D01*
X267512Y183451D01*
X267957Y184374D01*
X264020D02*
X263575Y185297D01*
X262576Y185526D01*
X261774Y184887D01*
Y183862D01*
X262576Y183222D01*
X263575Y183451D01*
X264020Y184374D01*
X418350Y188311D02*
X418484Y187292D01*
X418878Y186343D01*
X419503Y185527D01*
X420319Y184901D01*
X421268Y184508D01*
X422287Y184374D01*
X406539D02*
X407558Y184508D01*
X408508Y184901D01*
X409323Y185527D01*
X409949Y186343D01*
X410342Y187292D01*
X410476Y188311D01*
X603390Y184374D02*
X604409Y184508D01*
X605358Y184901D01*
X606174Y185527D01*
X606799Y186343D01*
X607193Y187292D01*
X607327Y188311D01*
X603390Y278862D02*
X604409Y278996D01*
X605358Y279390D01*
X606174Y280015D01*
X606799Y280831D01*
X607193Y281780D01*
X607327Y282799D01*
X607327Y267051D02*
X607193Y268070D01*
X606799Y269020D01*
X606174Y269835D01*
X605358Y270461D01*
X604409Y270854D01*
X603390Y270988D01*
Y373350D02*
X604409Y373484D01*
X605358Y373878D01*
X606174Y374503D01*
X606799Y375319D01*
X607193Y376268D01*
X607327Y377287D01*
X607327Y361539D02*
X607193Y362558D01*
X606799Y363508D01*
X606174Y364323D01*
X605358Y364949D01*
X604409Y365342D01*
X603390Y365476D01*
Y467839D02*
X604409Y467973D01*
X605358Y468366D01*
X606174Y468992D01*
X606799Y469807D01*
X607193Y470757D01*
X607327Y471776D01*
X607327Y456028D02*
X607193Y457047D01*
X606799Y457996D01*
X606174Y458811D01*
X605358Y459437D01*
X604409Y459830D01*
X603390Y459965D01*
X607327Y550516D02*
X607193Y551535D01*
X606799Y552484D01*
X606174Y553300D01*
X605358Y553925D01*
X604409Y554319D01*
X603390Y554453D01*
X225437D02*
X224418Y554319D01*
X223468Y553925D01*
X222653Y553300D01*
X222027Y552484D01*
X221634Y551535D01*
X221500Y550516D01*
Y282799D02*
X221634Y281780D01*
X222027Y280831D01*
X222653Y280015D01*
X223468Y279390D01*
X224418Y278996D01*
X225437Y278862D01*
Y270988D02*
X224418Y270854D01*
X223468Y270461D01*
X222653Y269835D01*
X222027Y269020D01*
X221634Y268070D01*
X221500Y267051D01*
Y377287D02*
X221634Y376268D01*
X222027Y375319D01*
X222653Y374503D01*
X223468Y373878D01*
X224418Y373484D01*
X225437Y373350D01*
Y365476D02*
X224418Y365342D01*
X223468Y364949D01*
X222653Y364323D01*
X222027Y363508D01*
X221634Y362558D01*
X221500Y361539D01*
Y471776D02*
X221634Y470757D01*
X222027Y469807D01*
X222653Y468992D01*
X223468Y468366D01*
X224418Y467973D01*
X225437Y467839D01*
Y459965D02*
X224418Y459830D01*
X223468Y459437D01*
X222653Y458811D01*
X222027Y457996D01*
X221634Y457047D01*
X221500Y456028D01*
X410476Y550516D02*
X410342Y551535D01*
X409949Y552484D01*
X409323Y553300D01*
X408508Y553925D01*
X407558Y554319D01*
X406539Y554453D01*
X422287D02*
X421268Y554319D01*
X420319Y553925D01*
X419503Y553300D01*
X418878Y552484D01*
X418484Y551535D01*
X418350Y550516D01*
X406539Y467839D02*
X407558Y467973D01*
X408508Y468366D01*
X409323Y468992D01*
X409949Y469807D01*
X410342Y470757D01*
X410476Y471776D01*
X418350D02*
X418484Y470757D01*
X418878Y469807D01*
X419503Y468992D01*
X420319Y468366D01*
X421268Y467973D01*
X422287Y467839D01*
X410476Y456028D02*
X410342Y457047D01*
X409949Y457996D01*
X409323Y458811D01*
X408508Y459437D01*
X407558Y459830D01*
X406539Y459965D01*
X422287D02*
X421268Y459830D01*
X420319Y459437D01*
X419503Y458811D01*
X418878Y457996D01*
X418484Y457047D01*
X418350Y456028D01*
X406539Y373350D02*
X407558Y373484D01*
X408508Y373878D01*
X409323Y374503D01*
X409949Y375319D01*
X410342Y376268D01*
X410476Y377287D01*
X418350D02*
X418484Y376268D01*
X418878Y375319D01*
X419503Y374503D01*
X420319Y373878D01*
X421268Y373484D01*
X422287Y373350D01*
X410476Y361539D02*
X410342Y362558D01*
X409949Y363508D01*
X409323Y364323D01*
X408508Y364949D01*
X407558Y365342D01*
X406539Y365476D01*
X422287D02*
X421268Y365342D01*
X420319Y364949D01*
X419503Y364323D01*
X418878Y363508D01*
X418484Y362558D01*
X418350Y361539D01*
X422287Y270988D02*
X421268Y270854D01*
X420319Y270461D01*
X419503Y269835D01*
X418878Y269020D01*
X418484Y268070D01*
X418350Y267051D01*
X410476D02*
X410342Y268070D01*
X409949Y269020D01*
X409323Y269835D01*
X408508Y270461D01*
X407558Y270854D01*
X406539Y270988D01*
X418350Y282799D02*
X418484Y281780D01*
X418878Y280831D01*
X419503Y280015D01*
X420319Y279390D01*
X421268Y278996D01*
X422287Y278862D01*
X406539D02*
X407558Y278996D01*
X408508Y279390D01*
X409323Y280015D01*
X409949Y280831D01*
X410342Y281780D01*
X410476Y282799D01*
X457721Y270988D02*
X458739Y271122D01*
X459689Y271516D01*
X460504Y272141D01*
X461130Y272957D01*
X461523Y273906D01*
X461657Y274925D01*
X461523Y275944D01*
X461130Y276894D01*
X460504Y277709D01*
X459689Y278335D01*
X458739Y278728D01*
X457721Y278862D01*
X481343D02*
X480324Y278728D01*
X479374Y278335D01*
X478559Y277709D01*
X477933Y276894D01*
X477540Y275944D01*
X477406Y274925D01*
X477540Y273906D01*
X477933Y272957D01*
X478559Y272141D01*
X479374Y271516D01*
X480324Y271122D01*
X481343Y270988D01*
X544335D02*
X545354Y271122D01*
X546303Y271516D01*
X547119Y272141D01*
X547744Y272957D01*
X548138Y273906D01*
X548272Y274925D01*
X548138Y275944D01*
X547744Y276894D01*
X547119Y277709D01*
X546303Y278335D01*
X545354Y278728D01*
X544335Y278862D01*
X567957D02*
X566938Y278728D01*
X565988Y278335D01*
X565173Y277709D01*
X564547Y276894D01*
X564154Y275944D01*
X564020Y274925D01*
X564154Y273906D01*
X564547Y272957D01*
X565173Y272141D01*
X565988Y271516D01*
X566938Y271122D01*
X567957Y270988D01*
X457721Y365476D02*
X458739Y365611D01*
X459689Y366004D01*
X460504Y366630D01*
X461130Y367445D01*
X461523Y368394D01*
X461657Y369413D01*
X461523Y370432D01*
X461130Y371382D01*
X460504Y372197D01*
X459689Y372823D01*
X458739Y373216D01*
X457721Y373350D01*
X481343D02*
X480324Y373216D01*
X479374Y372823D01*
X478559Y372197D01*
X477933Y371382D01*
X477540Y370432D01*
X477406Y369413D01*
X477540Y368394D01*
X477933Y367445D01*
X478559Y366630D01*
X479374Y366004D01*
X480324Y365611D01*
X481343Y365476D01*
X544335D02*
X545354Y365611D01*
X546303Y366004D01*
X547119Y366630D01*
X547744Y367445D01*
X548138Y368394D01*
X548272Y369413D01*
X548138Y370432D01*
X547744Y371382D01*
X547119Y372197D01*
X546303Y372823D01*
X545354Y373216D01*
X544335Y373350D01*
X567957D02*
X566938Y373216D01*
X565988Y372823D01*
X565173Y372197D01*
X564547Y371382D01*
X564154Y370432D01*
X564020Y369413D01*
X564154Y368394D01*
X564547Y367445D01*
X565173Y366630D01*
X565988Y366004D01*
X566938Y365611D01*
X567957Y365476D01*
X457721Y459965D02*
X458739Y460099D01*
X459689Y460492D01*
X460504Y461118D01*
X461130Y461933D01*
X461523Y462883D01*
X461657Y463902D01*
X461523Y464921D01*
X461130Y465870D01*
X460504Y466685D01*
X459689Y467311D01*
X458739Y467704D01*
X457721Y467839D01*
X481343D02*
X480324Y467704D01*
X479374Y467311D01*
X478559Y466685D01*
X477933Y465870D01*
X477540Y464921D01*
X477406Y463902D01*
X477540Y462883D01*
X477933Y461933D01*
X478559Y461118D01*
X479374Y460492D01*
X480324Y460099D01*
X481343Y459965D01*
X544335D02*
X545354Y460099D01*
X546303Y460492D01*
X547119Y461118D01*
X547744Y461933D01*
X548138Y462883D01*
X548272Y463902D01*
X548138Y464921D01*
X547744Y465870D01*
X547119Y466685D01*
X546303Y467311D01*
X545354Y467704D01*
X544335Y467839D01*
X567957D02*
X566938Y467704D01*
X565988Y467311D01*
X565173Y466685D01*
X564547Y465870D01*
X564154Y464921D01*
X564020Y463902D01*
X564154Y462883D01*
X564547Y461933D01*
X565173Y461118D01*
X565988Y460492D01*
X566938Y460099D01*
X567957Y459965D01*
X457721Y554453D02*
X458739Y554587D01*
X459689Y554980D01*
X460504Y555606D01*
X461130Y556421D01*
X461523Y557371D01*
X461657Y558390D01*
X461523Y559409D01*
X461130Y560358D01*
X460504Y561174D01*
X459689Y561799D01*
X458739Y562193D01*
X457721Y562327D01*
X481343D02*
X480324Y562193D01*
X479374Y561799D01*
X478559Y561174D01*
X477933Y560358D01*
X477540Y559409D01*
X477406Y558390D01*
X477540Y557371D01*
X477933Y556421D01*
X478559Y555606D01*
X479374Y554980D01*
X480324Y554587D01*
X481343Y554453D01*
X544335D02*
X545354Y554587D01*
X546303Y554980D01*
X547119Y555606D01*
X547744Y556421D01*
X548138Y557371D01*
X548272Y558390D01*
X548138Y559409D01*
X547744Y560358D01*
X547119Y561174D01*
X546303Y561799D01*
X545354Y562193D01*
X544335Y562327D01*
X567957D02*
X566938Y562193D01*
X565988Y561799D01*
X565173Y561174D01*
X564547Y560358D01*
X564154Y559409D01*
X564020Y558390D01*
X564154Y557371D01*
X564547Y556421D01*
X565173Y555606D01*
X565988Y554980D01*
X566938Y554587D01*
X567957Y554453D01*
X260870D02*
X261889Y554587D01*
X262839Y554980D01*
X263654Y555606D01*
X264280Y556421D01*
X264673Y557371D01*
X264807Y558390D01*
X264673Y559409D01*
X264280Y560358D01*
X263654Y561174D01*
X262839Y561799D01*
X261889Y562193D01*
X260870Y562327D01*
X284492D02*
X283473Y562193D01*
X282524Y561799D01*
X281708Y561174D01*
X281083Y560358D01*
X280689Y559409D01*
X280555Y558390D01*
X280689Y557371D01*
X281083Y556421D01*
X281708Y555606D01*
X282524Y554980D01*
X283473Y554587D01*
X284492Y554453D01*
X347484D02*
X348503Y554587D01*
X349453Y554980D01*
X350268Y555606D01*
X350894Y556421D01*
X351287Y557371D01*
X351421Y558390D01*
X351287Y559409D01*
X350894Y560358D01*
X350268Y561174D01*
X349453Y561799D01*
X348503Y562193D01*
X347484Y562327D01*
X371106D02*
X370087Y562193D01*
X369138Y561799D01*
X368322Y561174D01*
X367697Y560358D01*
X367303Y559409D01*
X367169Y558390D01*
X367303Y557371D01*
X367697Y556421D01*
X368322Y555606D01*
X369138Y554980D01*
X370087Y554587D01*
X371106Y554453D01*
X260870Y459965D02*
X261889Y460099D01*
X262839Y460492D01*
X263654Y461118D01*
X264280Y461933D01*
X264673Y462883D01*
X264807Y463902D01*
X264673Y464921D01*
X264280Y465870D01*
X263654Y466685D01*
X262839Y467311D01*
X261889Y467704D01*
X260870Y467839D01*
X284492D02*
X283473Y467704D01*
X282524Y467311D01*
X281708Y466685D01*
X281083Y465870D01*
X280689Y464921D01*
X280555Y463902D01*
X280689Y462883D01*
X281083Y461933D01*
X281708Y461118D01*
X282524Y460492D01*
X283473Y460099D01*
X284492Y459965D01*
X347484D02*
X348503Y460099D01*
X349453Y460492D01*
X350268Y461118D01*
X350894Y461933D01*
X351287Y462883D01*
X351421Y463902D01*
X351287Y464921D01*
X350894Y465870D01*
X350268Y466685D01*
X349453Y467311D01*
X348503Y467704D01*
X347484Y467839D01*
X371106D02*
X370087Y467704D01*
X369138Y467311D01*
X368322Y466685D01*
X367697Y465870D01*
X367303Y464921D01*
X367169Y463902D01*
X367303Y462883D01*
X367697Y461933D01*
X368322Y461118D01*
X369138Y460492D01*
X370087Y460099D01*
X371106Y459965D01*
X260870Y365476D02*
X261889Y365611D01*
X262839Y366004D01*
X263654Y366630D01*
X264280Y367445D01*
X264673Y368394D01*
X264807Y369413D01*
X264673Y370432D01*
X264280Y371382D01*
X263654Y372197D01*
X262839Y372823D01*
X261889Y373216D01*
X260870Y373350D01*
X284492D02*
X283473Y373216D01*
X282524Y372823D01*
X281708Y372197D01*
X281083Y371382D01*
X280689Y370432D01*
X280555Y369413D01*
X280689Y368394D01*
X281083Y367445D01*
X281708Y366630D01*
X282524Y366004D01*
X283473Y365611D01*
X284492Y365476D01*
X347484D02*
X348503Y365611D01*
X349453Y366004D01*
X350268Y366630D01*
X350894Y367445D01*
X351287Y368394D01*
X351421Y369413D01*
X351287Y370432D01*
X350894Y371382D01*
X350268Y372197D01*
X349453Y372823D01*
X348503Y373216D01*
X347484Y373350D01*
X371106D02*
X370087Y373216D01*
X369138Y372823D01*
X368322Y372197D01*
X367697Y371382D01*
X367303Y370432D01*
X367169Y369413D01*
X367303Y368394D01*
X367697Y367445D01*
X368322Y366630D01*
X369138Y366004D01*
X370087Y365611D01*
X371106Y365476D01*
X260870Y270988D02*
X261889Y271122D01*
X262839Y271516D01*
X263654Y272141D01*
X264280Y272957D01*
X264673Y273906D01*
X264807Y274925D01*
X264673Y275944D01*
X264280Y276894D01*
X263654Y277709D01*
X262839Y278335D01*
X261889Y278728D01*
X260870Y278862D01*
X284492D02*
X283473Y278728D01*
X282524Y278335D01*
X281708Y277709D01*
X281083Y276894D01*
X280689Y275944D01*
X280555Y274925D01*
X280689Y273906D01*
X281083Y272957D01*
X281708Y272141D01*
X282524Y271516D01*
X283473Y271122D01*
X284492Y270988D01*
X347484D02*
X348503Y271122D01*
X349453Y271516D01*
X350268Y272141D01*
X350894Y272957D01*
X351287Y273906D01*
X351421Y274925D01*
X351287Y275944D01*
X350894Y276894D01*
X350268Y277709D01*
X349453Y278335D01*
X348503Y278728D01*
X347484Y278862D01*
X371106D02*
X370087Y278728D01*
X369138Y278335D01*
X368322Y277709D01*
X367697Y276894D01*
X367303Y275944D01*
X367169Y274925D01*
X367303Y273906D01*
X367697Y272957D01*
X368322Y272141D01*
X369138Y271516D01*
X370087Y271122D01*
X371106Y270988D01*
X221500Y188311D02*
X221634Y187292D01*
X222027Y186343D01*
X222653Y185527D01*
X223468Y184901D01*
X224418Y184508D01*
X225437Y184374D01*
X567957D02*
X566938Y184240D01*
X565988Y183847D01*
X565173Y183221D01*
X564547Y182405D01*
X564154Y181456D01*
X564020Y180437D01*
X564154Y179418D01*
X564547Y178469D01*
X565173Y177653D01*
X565988Y177027D01*
X566938Y176634D01*
X567957Y176500D01*
X544335D02*
X545354Y176634D01*
X546303Y177027D01*
X547119Y177653D01*
X547744Y178469D01*
X548138Y179418D01*
X548272Y180437D01*
X548138Y181456D01*
X547744Y182405D01*
X547119Y183221D01*
X546303Y183847D01*
X545354Y184240D01*
X544335Y184374D01*
X481343D02*
X480324Y184240D01*
X479374Y183847D01*
X478559Y183221D01*
X477933Y182405D01*
X477540Y181456D01*
X477406Y180437D01*
X477540Y179418D01*
X477933Y178469D01*
X478559Y177653D01*
X479374Y177027D01*
X480324Y176634D01*
X481343Y176500D01*
X457721D02*
X458739Y176634D01*
X459689Y177027D01*
X460504Y177653D01*
X461130Y178469D01*
X461523Y179418D01*
X461657Y180437D01*
X461523Y181456D01*
X461130Y182405D01*
X460504Y183221D01*
X459689Y183847D01*
X458739Y184240D01*
X457721Y184374D01*
X371106D02*
X370087Y184240D01*
X369138Y183847D01*
X368322Y183221D01*
X367697Y182405D01*
X367303Y181456D01*
X367169Y180437D01*
X367303Y179418D01*
X367697Y178469D01*
X368322Y177653D01*
X369138Y177027D01*
X370087Y176634D01*
X371106Y176500D01*
X347484D02*
X348503Y176634D01*
X349453Y177027D01*
X350268Y177653D01*
X350894Y178469D01*
X351287Y179418D01*
X351421Y180437D01*
X351287Y181456D01*
X350894Y182405D01*
X350268Y183221D01*
X349453Y183847D01*
X348503Y184240D01*
X347484Y184374D01*
X284492D02*
X283473Y184240D01*
X282524Y183847D01*
X281708Y183221D01*
X281083Y182405D01*
X280689Y181456D01*
X280555Y180437D01*
X280689Y179418D01*
X281083Y178469D01*
X281708Y177653D01*
X282524Y177027D01*
X283473Y176634D01*
X284492Y176500D01*
X260870D02*
X261889Y176634D01*
X262839Y177027D01*
X263654Y177653D01*
X264280Y178469D01*
X264673Y179418D01*
X264807Y180437D01*
X264673Y181456D01*
X264280Y182405D01*
X263654Y183221D01*
X262839Y183847D01*
X261889Y184240D01*
X260870Y184374D01*
X571894Y572169D02*
X571770Y573148D01*
X571407Y574066D01*
X570827Y574864D01*
X570066Y575493D01*
X569173Y575914D01*
X568204Y576098D01*
X567219Y576037D01*
X566280Y575732D01*
X565447Y575203D01*
X564772Y574483D01*
X564296Y573619D01*
X564051Y572663D01*
Y571676D01*
X564296Y570720D01*
X564772Y569855D01*
X565447Y569136D01*
X566280Y568607D01*
X567219Y568302D01*
X568204Y568240D01*
X569173Y568425D01*
X570066Y568845D01*
X570827Y569474D01*
X571407Y570273D01*
X571770Y571190D01*
X571894Y572169D01*
X264807Y572169D02*
X264683Y573148D01*
X264320Y574066D01*
X263740Y574864D01*
X262980Y575493D01*
X262087Y575914D01*
X261117Y576098D01*
X260132Y576037D01*
X259194Y575732D01*
X258361Y575203D01*
X257685Y574483D01*
X257209Y573619D01*
X256964Y572663D01*
Y571676D01*
X257209Y570720D01*
X257685Y569855D01*
X258361Y569136D01*
X259194Y568607D01*
X260132Y568302D01*
X261117Y568240D01*
X262087Y568425D01*
X262980Y568845D01*
X263740Y569474D01*
X264320Y570273D01*
X264683Y571190D01*
X264807Y572169D01*
X571894Y166657D02*
X571770Y167637D01*
X571407Y168554D01*
X570827Y169352D01*
X570066Y169982D01*
X569173Y170402D01*
X568204Y170587D01*
X567219Y170525D01*
X566280Y170220D01*
X565447Y169691D01*
X564772Y168972D01*
X564296Y168107D01*
X564051Y167151D01*
Y166164D01*
X564296Y165208D01*
X564772Y164343D01*
X565447Y163624D01*
X566280Y163095D01*
X567219Y162790D01*
X568204Y162728D01*
X569173Y162913D01*
X570066Y163333D01*
X570827Y163962D01*
X571407Y164761D01*
X571770Y165678D01*
X571894Y166657D01*
X264807Y166657D02*
X264683Y167637D01*
X264320Y168554D01*
X263740Y169352D01*
X262980Y169982D01*
X262087Y170402D01*
X261117Y170587D01*
X260132Y170525D01*
X259194Y170220D01*
X258361Y169691D01*
X257685Y168972D01*
X257209Y168107D01*
X256964Y167151D01*
Y166164D01*
X257209Y165208D01*
X257685Y164343D01*
X258361Y163624D01*
X259194Y163095D01*
X260132Y162790D01*
X261117Y162728D01*
X262087Y162913D01*
X262980Y163333D01*
X263740Y163962D01*
X264320Y164761D01*
X264683Y165678D01*
X264807Y166657D01*
X607327Y570201D02*
X607286Y571176D01*
X607166Y572145D01*
X606965Y573100D01*
X606687Y574036D01*
X606332Y574945D01*
X605903Y575822D01*
X605404Y576661D01*
X604836Y577455D01*
X604205Y578200D01*
X603515Y578890D01*
X602770Y579521D01*
X601976Y580089D01*
X601137Y580588D01*
X600260Y581017D01*
X599351Y581372D01*
X598415Y581650D01*
X597460Y581851D01*
X596491Y581972D01*
X595516Y582012D01*
X233311D02*
X232336Y581972D01*
X231367Y581851D01*
X230412Y581650D01*
X229476Y581372D01*
X228567Y581017D01*
X227690Y580588D01*
X226851Y580089D01*
X226057Y579521D01*
X225312Y578890D01*
X224621Y578200D01*
X223991Y577455D01*
X223423Y576661D01*
X222923Y575822D01*
X222495Y574945D01*
X222140Y574036D01*
X221861Y573100D01*
X221661Y572145D01*
X221540Y571176D01*
X221500Y570201D01*
X595516Y156815D02*
X596491Y156855D01*
X597460Y156976D01*
X598415Y157176D01*
X599351Y157455D01*
X600260Y157810D01*
X601137Y158238D01*
X601976Y158738D01*
X602770Y159305D01*
X603515Y159936D01*
X604205Y160627D01*
X604836Y161372D01*
X605404Y162166D01*
X605903Y163005D01*
X606332Y163882D01*
X606687Y164791D01*
X606965Y165727D01*
X607166Y166682D01*
X607286Y167651D01*
X607327Y168626D01*
X221500D02*
X221540Y167651D01*
X221661Y166682D01*
X221861Y165726D01*
X222140Y164791D01*
X222495Y163882D01*
X222923Y163005D01*
X223423Y162166D01*
X223991Y161372D01*
X224621Y160627D01*
X225312Y159936D01*
X226057Y159305D01*
X226851Y158738D01*
X227690Y158238D01*
X228567Y157810D01*
X229476Y157455D01*
X230412Y157176D01*
X231367Y156976D01*
X232336Y156855D01*
X233311Y156815D01*
X284492Y184374D02*
X347484Y184374D01*
X371106Y562327D02*
X457721D01*
X481343Y554453D02*
X544335Y554453D01*
X481343Y562327D02*
X544335Y562327D01*
X481343Y459965D02*
X544335Y459965D01*
X481343Y467839D02*
X544335Y467839D01*
X481343Y365476D02*
X544335Y365476D01*
X481343Y373350D02*
X544335Y373350D01*
X481343Y270988D02*
X544335Y270988D01*
X481343Y278862D02*
X544335Y278862D01*
X284492Y554453D02*
X347484Y554453D01*
X284492Y562327D02*
X347484Y562327D01*
X284492Y459965D02*
X347484Y459965D01*
X284492Y467839D02*
X347484Y467839D01*
X284492Y365476D02*
X347484Y365476D01*
X284492Y373350D02*
X347484Y373350D01*
X284492Y278862D02*
X347484Y278862D01*
X284492Y270988D02*
X347484Y270988D01*
X422287D02*
X457721D01*
X422287Y278862D02*
X457721D01*
X371106Y270988D02*
X406539D01*
X371106Y278862D02*
X406539D01*
X422287Y365476D02*
X457721D01*
X422287Y373350D02*
X457721D01*
X371106Y365476D02*
X406539D01*
X371106Y373350D02*
X406539D01*
X422287Y459965D02*
X457721D01*
X422287Y467839D02*
X457721D01*
X371106Y459965D02*
X406539D01*
X371106Y467839D02*
X406539D01*
X371106Y554453D02*
X406539D01*
X422287D02*
X457721D01*
X418350Y471776D02*
Y550516D01*
X410476Y471776D02*
Y550516D01*
X418350Y377287D02*
Y456028D01*
X410476Y377287D02*
Y456028D01*
X418350Y282799D02*
Y361539D01*
X410476Y282799D02*
Y361539D01*
X418350Y188311D02*
Y267051D01*
X410476Y188311D02*
Y267051D01*
X567957Y270988D02*
X603390D01*
X567957Y278862D02*
X603390D01*
X567957Y365476D02*
X603390D01*
X567957Y373350D02*
X603390D01*
X567957Y459965D02*
X603390D01*
X567957Y467839D02*
X603390D01*
X567957Y554453D02*
X603390D01*
X567957Y562327D02*
X607327D01*
X221500D02*
X260870D01*
X225437Y554453D02*
X260870D01*
X225437Y467839D02*
X260870D01*
X225437Y459965D02*
X260870D01*
X225437Y373350D02*
X260870D01*
X225437Y365476D02*
X260870D01*
X225437Y278862D02*
X260870D01*
X225437Y270988D02*
X260870D01*
X221500Y282799D02*
Y361539D01*
Y377287D02*
Y456028D01*
Y471776D02*
Y550516D01*
X607327Y471776D02*
Y550516D01*
Y377287D02*
Y456028D01*
Y282799D02*
Y361539D01*
Y188311D02*
Y267051D01*
X221500Y188311D02*
Y267051D01*
X481343Y176500D02*
X544335Y176500D01*
X371106D02*
X457721D01*
X284492Y176500D02*
X347484Y176500D01*
X481343Y184374D02*
X544335Y184374D01*
X567957D02*
X603390D01*
X422287D02*
X457721D01*
X371106D02*
X406539D01*
X225437D02*
X260870D01*
X567957Y176500D02*
X607327D01*
X221500D02*
X260870D01*
X607327Y562327D02*
Y570201D01*
X221500Y562327D02*
Y570201D01*
X233311Y582012D02*
X595516Y582012D01*
X607327Y168626D02*
Y176500D01*
X221500Y168626D02*
Y176500D01*
X233311Y156815D02*
X595516D01*
X607327Y550516D02*
X607193Y551535D01*
X606799Y552484D01*
X606174Y553300D01*
X605358Y553925D01*
X604409Y554319D01*
X603390Y554453D01*
Y467839D02*
X604409Y467973D01*
X605358Y468366D01*
X606174Y468992D01*
X606799Y469807D01*
X607193Y470757D01*
X607327Y471776D01*
X418350D02*
X418484Y470757D01*
X418878Y469807D01*
X419503Y468992D01*
X420319Y468366D01*
X421268Y467973D01*
X422287Y467839D01*
Y554453D02*
X421268Y554319D01*
X420319Y553925D01*
X419503Y553300D01*
X418878Y552484D01*
X418484Y551535D01*
X418350Y550516D01*
X422287Y554453D02*
X421268Y554319D01*
X420319Y553925D01*
X419503Y553300D01*
X418878Y552484D01*
X418484Y551535D01*
X418350Y550516D01*
X418350Y471776D02*
X418484Y470757D01*
X418878Y469807D01*
X419503Y468992D01*
X420319Y468366D01*
X421268Y467973D01*
X422287Y467839D01*
X603390D02*
X604409Y467973D01*
X605358Y468366D01*
X606174Y468992D01*
X606799Y469807D01*
X607193Y470757D01*
X607327Y471776D01*
Y550516D02*
X607193Y551535D01*
X606799Y552484D01*
X606174Y553300D01*
X605358Y553925D01*
X604409Y554319D01*
X603390Y554453D01*
X422287D01*
X603390Y467839D02*
X422287D01*
X607327Y550516D02*
Y471776D01*
X418350Y550516D02*
Y471776D01*
Y550516D02*
Y471776D01*
X607327Y550516D02*
Y471776D01*
X603390Y467839D02*
X422287D01*
X603390Y554453D02*
X422287D01*
X607327Y456028D02*
X607193Y457047D01*
X606799Y457996D01*
X606174Y458811D01*
X605358Y459437D01*
X604409Y459830D01*
X603390Y459965D01*
Y373350D02*
X604409Y373484D01*
X605358Y373878D01*
X606174Y374503D01*
X606799Y375319D01*
X607193Y376268D01*
X607327Y377287D01*
X418350D02*
X418484Y376268D01*
X418878Y375319D01*
X419503Y374503D01*
X420319Y373878D01*
X421268Y373484D01*
X422287Y373350D01*
Y459965D02*
X421268Y459830D01*
X420319Y459437D01*
X419503Y458811D01*
X418878Y457996D01*
X418484Y457047D01*
X418350Y456028D01*
X422287Y459965D02*
X421268Y459830D01*
X420319Y459437D01*
X419503Y458811D01*
X418878Y457996D01*
X418484Y457047D01*
X418350Y456028D01*
X418350Y377287D02*
X418484Y376268D01*
X418878Y375319D01*
X419503Y374503D01*
X420319Y373878D01*
X421268Y373484D01*
X422287Y373350D01*
X603390D02*
X604409Y373484D01*
X605358Y373878D01*
X606174Y374503D01*
X606799Y375319D01*
X607193Y376268D01*
X607327Y377287D01*
Y456028D02*
X607193Y457047D01*
X606799Y457996D01*
X606174Y458811D01*
X605358Y459437D01*
X604409Y459830D01*
X603390Y459965D01*
X422287D01*
X603390Y373350D02*
X422287D01*
X607327Y456028D02*
Y377287D01*
X418350Y456028D02*
Y377287D01*
Y456028D02*
Y377287D01*
X607327Y456028D02*
Y377287D01*
X603390Y373350D02*
X422287D01*
X603390Y459965D02*
X422287D01*
X607327Y361539D02*
X607193Y362558D01*
X606799Y363508D01*
X606174Y364323D01*
X605358Y364949D01*
X604409Y365342D01*
X603390Y365476D01*
Y278862D02*
X604409Y278996D01*
X605358Y279390D01*
X606174Y280015D01*
X606799Y280831D01*
X607193Y281780D01*
X607327Y282799D01*
X418350D02*
X418484Y281780D01*
X418878Y280831D01*
X419503Y280015D01*
X420319Y279390D01*
X421268Y278996D01*
X422287Y278862D01*
Y365476D02*
X421268Y365342D01*
X420319Y364949D01*
X419503Y364323D01*
X418878Y363508D01*
X418484Y362558D01*
X418350Y361539D01*
X422287Y365476D02*
X421268Y365342D01*
X420319Y364949D01*
X419503Y364323D01*
X418878Y363508D01*
X418484Y362558D01*
X418350Y361539D01*
X418350Y282799D02*
X418484Y281780D01*
X418878Y280831D01*
X419503Y280015D01*
X420319Y279390D01*
X421268Y278996D01*
X422287Y278862D01*
X603390D02*
X604409Y278996D01*
X605358Y279390D01*
X606174Y280015D01*
X606799Y280831D01*
X607193Y281780D01*
X607327Y282799D01*
Y361539D02*
X607193Y362558D01*
X606799Y363508D01*
X606174Y364323D01*
X605358Y364949D01*
X604409Y365342D01*
X603390Y365476D01*
X422287D01*
X603390Y278862D02*
X422287D01*
X607327Y361539D02*
Y282799D01*
X418350Y361539D02*
Y282799D01*
Y361539D02*
Y282799D01*
X607327Y361539D02*
Y282799D01*
X603390Y278862D02*
X422287D01*
X603390Y365476D02*
X422287D01*
X607327Y267051D02*
X607193Y268070D01*
X606799Y269020D01*
X606174Y269835D01*
X605358Y270461D01*
X604409Y270854D01*
X603390Y270988D01*
Y184374D02*
X604409Y184508D01*
X605358Y184901D01*
X606174Y185527D01*
X606799Y186343D01*
X607193Y187292D01*
X607327Y188311D01*
X418350D02*
X418484Y187292D01*
X418878Y186343D01*
X419503Y185527D01*
X420319Y184901D01*
X421268Y184508D01*
X422287Y184374D01*
Y270988D02*
X421268Y270854D01*
X420319Y270461D01*
X419503Y269835D01*
X418878Y269020D01*
X418484Y268070D01*
X418350Y267051D01*
X422287Y270988D02*
X421268Y270854D01*
X420319Y270461D01*
X419503Y269835D01*
X418878Y269020D01*
X418484Y268070D01*
X418350Y267051D01*
X418350Y188311D02*
X418484Y187292D01*
X418878Y186343D01*
X419503Y185527D01*
X420319Y184901D01*
X421268Y184508D01*
X422287Y184374D01*
X603390D02*
X604409Y184508D01*
X605358Y184901D01*
X606174Y185527D01*
X606799Y186343D01*
X607193Y187292D01*
X607327Y188311D01*
Y267051D02*
X607193Y268070D01*
X606799Y269020D01*
X606174Y269835D01*
X605358Y270461D01*
X604409Y270854D01*
X603390Y270988D01*
X422287D01*
X603390Y184374D02*
X422287D01*
X607327Y267051D02*
Y188311D01*
X418350Y267051D02*
Y188311D01*
Y267051D02*
Y188311D01*
X607327Y267051D02*
Y188311D01*
X603390Y184374D02*
X422287D01*
X603390Y270988D02*
X422287D01*
X221500Y188311D02*
X221634Y187292D01*
X222027Y186343D01*
X222653Y185527D01*
X223468Y184901D01*
X224418Y184508D01*
X225437Y184374D01*
Y270988D02*
X224418Y270854D01*
X223468Y270461D01*
X222653Y269835D01*
X222027Y269020D01*
X221634Y268070D01*
X221500Y267051D01*
X410476D02*
X410342Y268070D01*
X409949Y269020D01*
X409323Y269835D01*
X408508Y270461D01*
X407558Y270854D01*
X406539Y270988D01*
Y184374D02*
X407558Y184508D01*
X408508Y184901D01*
X409323Y185527D01*
X409949Y186343D01*
X410342Y187292D01*
X410476Y188311D01*
X406539Y184374D02*
X407558Y184508D01*
X408508Y184901D01*
X409323Y185527D01*
X409949Y186343D01*
X410342Y187292D01*
X410476Y188311D01*
X410476Y267051D02*
X410342Y268070D01*
X409949Y269020D01*
X409323Y269835D01*
X408508Y270461D01*
X407558Y270854D01*
X406539Y270988D01*
X225437D02*
X224418Y270854D01*
X223468Y270461D01*
X222653Y269835D01*
X222027Y269020D01*
X221634Y268070D01*
X221500Y267051D01*
Y188311D02*
X221634Y187292D01*
X222027Y186343D01*
X222653Y185527D01*
X223468Y184901D01*
X224418Y184508D01*
X225437Y184374D01*
X406539D01*
X225437Y270988D02*
X406539D01*
X221500Y188311D02*
Y267051D01*
X410476Y188311D02*
Y267051D01*
Y188311D02*
Y267051D01*
X221500Y188311D02*
Y267051D01*
X225437Y270988D02*
X406539D01*
X225437Y184374D02*
X406539D01*
X221500Y282799D02*
X221634Y281780D01*
X222027Y280831D01*
X222653Y280015D01*
X223468Y279390D01*
X224418Y278996D01*
X225437Y278862D01*
Y365476D02*
X224418Y365342D01*
X223468Y364949D01*
X222653Y364323D01*
X222027Y363508D01*
X221634Y362558D01*
X221500Y361539D01*
X410476D02*
X410342Y362558D01*
X409949Y363508D01*
X409323Y364323D01*
X408508Y364949D01*
X407558Y365342D01*
X406539Y365476D01*
Y278862D02*
X407558Y278996D01*
X408508Y279390D01*
X409323Y280015D01*
X409949Y280831D01*
X410342Y281780D01*
X410476Y282799D01*
X406539Y278862D02*
X407558Y278996D01*
X408508Y279390D01*
X409323Y280015D01*
X409949Y280831D01*
X410342Y281780D01*
X410476Y282799D01*
X410476Y361539D02*
X410342Y362558D01*
X409949Y363508D01*
X409323Y364323D01*
X408508Y364949D01*
X407558Y365342D01*
X406539Y365476D01*
X225437D02*
X224418Y365342D01*
X223468Y364949D01*
X222653Y364323D01*
X222027Y363508D01*
X221634Y362558D01*
X221500Y361539D01*
Y282799D02*
X221634Y281780D01*
X222027Y280831D01*
X222653Y280015D01*
X223468Y279390D01*
X224418Y278996D01*
X225437Y278862D01*
X406539D01*
X225437Y365476D02*
X406539D01*
X221500Y282799D02*
Y361539D01*
X410476Y282799D02*
Y361539D01*
Y282799D02*
Y361539D01*
X221500Y282799D02*
Y361539D01*
X225437Y365476D02*
X406539D01*
X225437Y278862D02*
X406539D01*
X221500Y377287D02*
X221634Y376268D01*
X222027Y375319D01*
X222653Y374503D01*
X223468Y373878D01*
X224418Y373484D01*
X225437Y373350D01*
Y459965D02*
X224418Y459830D01*
X223468Y459437D01*
X222653Y458811D01*
X222027Y457996D01*
X221634Y457047D01*
X221500Y456028D01*
X410476D02*
X410342Y457047D01*
X409949Y457996D01*
X409323Y458811D01*
X408508Y459437D01*
X407558Y459830D01*
X406539Y459965D01*
Y373350D02*
X407558Y373484D01*
X408508Y373878D01*
X409323Y374503D01*
X409949Y375319D01*
X410342Y376268D01*
X410476Y377287D01*
X406539Y373350D02*
X407558Y373484D01*
X408508Y373878D01*
X409323Y374503D01*
X409949Y375319D01*
X410342Y376268D01*
X410476Y377287D01*
X410476Y456028D02*
X410342Y457047D01*
X409949Y457996D01*
X409323Y458811D01*
X408508Y459437D01*
X407558Y459830D01*
X406539Y459965D01*
X225437D02*
X224418Y459830D01*
X223468Y459437D01*
X222653Y458811D01*
X222027Y457996D01*
X221634Y457047D01*
X221500Y456028D01*
Y377287D02*
X221634Y376268D01*
X222027Y375319D01*
X222653Y374503D01*
X223468Y373878D01*
X224418Y373484D01*
X225437Y373350D01*
X406539D01*
X225437Y459965D02*
X406539D01*
X221500Y377287D02*
Y456028D01*
X410476Y377287D02*
Y456028D01*
Y377287D02*
Y456028D01*
X221500Y377287D02*
Y456028D01*
X225437Y459965D02*
X406539D01*
X225437Y373350D02*
X406539D01*
X221500Y471776D02*
X221634Y470757D01*
X222027Y469807D01*
X222653Y468992D01*
X223468Y468366D01*
X224418Y467973D01*
X225437Y467839D01*
Y554453D02*
X224418Y554319D01*
X223468Y553925D01*
X222653Y553300D01*
X222027Y552484D01*
X221634Y551535D01*
X221500Y550516D01*
X410476D02*
X410342Y551535D01*
X409949Y552484D01*
X409323Y553300D01*
X408508Y553925D01*
X407558Y554319D01*
X406539Y554453D01*
Y467839D02*
X407558Y467973D01*
X408508Y468366D01*
X409323Y468992D01*
X409949Y469807D01*
X410342Y470757D01*
X410476Y471776D01*
X406539Y467839D02*
X407558Y467973D01*
X408508Y468366D01*
X409323Y468992D01*
X409949Y469807D01*
X410342Y470757D01*
X410476Y471776D01*
X410476Y550516D02*
X410342Y551535D01*
X409949Y552484D01*
X409323Y553300D01*
X408508Y553925D01*
X407558Y554319D01*
X406539Y554453D01*
X225437D02*
X224418Y554319D01*
X223468Y553925D01*
X222653Y553300D01*
X222027Y552484D01*
X221634Y551535D01*
X221500Y550516D01*
Y471776D02*
X221634Y470757D01*
X222027Y469807D01*
X222653Y468992D01*
X223468Y468366D01*
X224418Y467973D01*
X225437Y467839D01*
X406539D01*
X225437Y554453D02*
X406539D01*
X221500Y471776D02*
Y550516D01*
X410476Y471776D02*
Y550516D01*
Y471776D02*
Y550516D01*
X221500Y471776D02*
Y550516D01*
X225437Y554453D02*
X406539D01*
X225437Y467839D02*
X406539D01*
G54D60*
X597091Y508390D02*
X599453D01*
X598272Y507209D02*
Y509571D01*
X583311Y527287D02*
X585673D01*
X584492Y526106D02*
Y528469D01*
X573468Y508390D02*
X575831D01*
X574650Y507209D02*
Y509571D01*
X543799Y511252D02*
X548917D01*
X546358Y508693D02*
Y513811D01*
X543799Y501252D02*
X548917D01*
X546358Y498693D02*
Y503811D01*
X543799Y521252D02*
X548917D01*
X546358Y518693D02*
Y523811D01*
X464089Y530179D02*
X467239D01*
X465664Y528604D02*
Y531753D01*
X464089Y538053D02*
X467239D01*
X465664Y536478D02*
Y539628D01*
X464089Y545927D02*
X467239D01*
X465664Y544352D02*
Y547502D01*
X456215Y545927D02*
X459365D01*
X457790Y544352D02*
Y547502D01*
X456215Y538053D02*
X459365D01*
X457790Y536478D02*
Y539628D01*
X456215Y530179D02*
X459365D01*
X457790Y528604D02*
Y531753D01*
X445655Y472839D02*
X449198D01*
X447427Y471067D02*
Y474610D01*
X455655Y472839D02*
X459198D01*
X457427Y471067D02*
Y474610D01*
X465655Y472839D02*
X469198D01*
X467427Y471067D02*
Y474610D01*
X475655Y472839D02*
X479198D01*
X477427Y471067D02*
Y474610D01*
X485655Y472839D02*
X489198D01*
X487427Y471067D02*
Y474610D01*
X495655Y472839D02*
X499198D01*
X497427Y471067D02*
Y474610D01*
X505655Y472839D02*
X509198D01*
X507427Y471067D02*
Y474610D01*
X515655Y472839D02*
X519198D01*
X517427Y471067D02*
Y474610D01*
X525655Y472839D02*
X529198D01*
X527427Y471067D02*
Y474610D01*
X535655Y472839D02*
X539198D01*
X537427Y471067D02*
Y474610D01*
X545655Y472839D02*
X549198D01*
X547427Y471067D02*
Y474610D01*
X555655Y472839D02*
X559198D01*
X557427Y471067D02*
Y474610D01*
X565655Y472839D02*
X569198D01*
X567427Y471067D02*
Y474610D01*
X575655Y472839D02*
X579198D01*
X577427Y471067D02*
Y474610D01*
X423862Y542642D02*
X436461D01*
X430161Y536342D02*
Y548941D01*
X423862Y479650D02*
X436461D01*
X430161Y473350D02*
Y485949D01*
X589217Y479650D02*
X601815D01*
X595516Y473350D02*
Y485949D01*
X589217Y542642D02*
X601815D01*
X595516Y536342D02*
Y548941D01*
X531627Y489653D02*
X533627D01*
X532627Y488653D02*
Y490653D01*
X505727Y507153D02*
X507727D01*
X506727Y506153D02*
Y508153D01*
X509527Y510453D02*
X511527D01*
X510527Y509453D02*
Y511453D01*
X530727Y545153D02*
X532727D01*
X531727Y544153D02*
Y546153D01*
X508727Y529653D02*
X510727D01*
X509727Y528653D02*
Y530653D01*
X531427Y509153D02*
X533427D01*
X532427Y508153D02*
Y510153D01*
X490627Y539353D02*
X492627D01*
X491627Y538353D02*
Y540353D01*
X545027Y532553D02*
X547027D01*
X546027Y531553D02*
Y533553D01*
X423727Y493853D02*
X425727D01*
X424727Y492853D02*
Y494853D01*
X445227Y548453D02*
X447227D01*
X446227Y547453D02*
Y549453D01*
X474927Y541253D02*
X476927D01*
X475927Y540253D02*
Y542253D01*
X446927Y526153D02*
X448927D01*
X447927Y525153D02*
Y527153D01*
X497427Y506053D02*
X499427D01*
X498427Y505053D02*
Y507053D01*
X492527Y526853D02*
X494527D01*
X493527Y525853D02*
Y527853D01*
X492527Y516853D02*
X494527D01*
X493527Y515853D02*
Y517853D01*
X540327Y493053D02*
X542327D01*
X541327Y492053D02*
Y494053D01*
X424427Y528253D02*
X426427D01*
X425427Y527253D02*
Y529253D01*
X455727Y490753D02*
X457727D01*
X456727Y489753D02*
Y491753D01*
X497427Y497453D02*
X499427D01*
X498427Y496453D02*
Y498453D01*
X471827Y487253D02*
X473827D01*
X472827Y486253D02*
Y488253D01*
X526827Y529553D02*
X528827D01*
X527827Y528553D02*
Y530553D01*
X492527Y521853D02*
X494527D01*
X493527Y520853D02*
Y522853D01*
X597091Y413902D02*
X599453D01*
X598272Y412720D02*
Y415083D01*
X583311Y432799D02*
X585673D01*
X584492Y431618D02*
Y433980D01*
X573468Y413902D02*
X575831D01*
X574650Y412720D02*
Y415083D01*
X543799Y416764D02*
X548917D01*
X546358Y414205D02*
Y419323D01*
X543799Y406764D02*
X548917D01*
X546358Y404205D02*
Y409323D01*
X543799Y426764D02*
X548917D01*
X546358Y424205D02*
Y429323D01*
X464089Y435690D02*
X467239D01*
X465664Y434116D02*
Y437265D01*
X464089Y443565D02*
X467239D01*
X465664Y441990D02*
Y445139D01*
X464089Y451439D02*
X467239D01*
X465664Y449864D02*
Y453013D01*
X456215Y451439D02*
X459365D01*
X457790Y449864D02*
Y453013D01*
X456215Y443565D02*
X459365D01*
X457790Y441990D02*
Y445139D01*
X456215Y435690D02*
X459365D01*
X457790Y434116D02*
Y437265D01*
X445655Y378350D02*
X449198D01*
X447427Y376579D02*
Y380122D01*
X455655Y378350D02*
X459198D01*
X457427Y376579D02*
Y380122D01*
X465655Y378350D02*
X469198D01*
X467427Y376579D02*
Y380122D01*
X475655Y378350D02*
X479198D01*
X477427Y376579D02*
Y380122D01*
X485655Y378350D02*
X489198D01*
X487427Y376579D02*
Y380122D01*
X495655Y378350D02*
X499198D01*
X497427Y376579D02*
Y380122D01*
X505655Y378350D02*
X509198D01*
X507427Y376579D02*
Y380122D01*
X515655Y378350D02*
X519198D01*
X517427Y376579D02*
Y380122D01*
X525655Y378350D02*
X529198D01*
X527427Y376579D02*
Y380122D01*
X535655Y378350D02*
X539198D01*
X537427Y376579D02*
Y380122D01*
X545655Y378350D02*
X549198D01*
X547427Y376579D02*
Y380122D01*
X555655Y378350D02*
X559198D01*
X557427Y376579D02*
Y380122D01*
X565655Y378350D02*
X569198D01*
X567427Y376579D02*
Y380122D01*
X575655Y378350D02*
X579198D01*
X577427Y376579D02*
Y380122D01*
X423862Y448153D02*
X436461D01*
X430161Y441854D02*
Y454453D01*
X423862Y385161D02*
X436461D01*
X430161Y378862D02*
Y391461D01*
X589217Y385161D02*
X601815D01*
X595516Y378862D02*
Y391461D01*
X589217Y448153D02*
X601815D01*
X595516Y441854D02*
Y454453D01*
X531627Y395165D02*
X533627D01*
X532627Y394165D02*
Y396165D01*
X505727Y412665D02*
X507727D01*
X506727Y411665D02*
Y413665D01*
X509527Y415965D02*
X511527D01*
X510527Y414965D02*
Y416965D01*
X530727Y450665D02*
X532727D01*
X531727Y449665D02*
Y451665D01*
X508727Y435165D02*
X510727D01*
X509727Y434165D02*
Y436165D01*
X531427Y414665D02*
X533427D01*
X532427Y413665D02*
Y415665D01*
X490627Y444865D02*
X492627D01*
X491627Y443865D02*
Y445865D01*
X545027Y438065D02*
X547027D01*
X546027Y437065D02*
Y439065D01*
X423727Y399365D02*
X425727D01*
X424727Y398365D02*
Y400365D01*
X445227Y453965D02*
X447227D01*
X446227Y452965D02*
Y454965D01*
X474927Y446765D02*
X476927D01*
X475927Y445765D02*
Y447765D01*
X446927Y431665D02*
X448927D01*
X447927Y430665D02*
Y432665D01*
X497427Y411565D02*
X499427D01*
X498427Y410565D02*
Y412565D01*
X492527Y432365D02*
X494527D01*
X493527Y431365D02*
Y433365D01*
X492527Y422365D02*
X494527D01*
X493527Y421365D02*
Y423365D01*
X540327Y398565D02*
X542327D01*
X541327Y397565D02*
Y399565D01*
X424427Y433765D02*
X426427D01*
X425427Y432765D02*
Y434765D01*
X455727Y396265D02*
X457727D01*
X456727Y395265D02*
Y397265D01*
X497427Y402965D02*
X499427D01*
X498427Y401965D02*
Y403965D01*
X471827Y392765D02*
X473827D01*
X472827Y391765D02*
Y393765D01*
X526827Y435065D02*
X528827D01*
X527827Y434065D02*
Y436065D01*
X492527Y427365D02*
X494527D01*
X493527Y426365D02*
Y428365D01*
X597091Y319413D02*
X599453D01*
X598272Y318232D02*
Y320595D01*
X583311Y338311D02*
X585673D01*
X584492Y337130D02*
Y339492D01*
X573468Y319413D02*
X575831D01*
X574650Y318232D02*
Y320595D01*
X543799Y322275D02*
X548917D01*
X546358Y319717D02*
Y324835D01*
X543799Y312276D02*
X548917D01*
X546358Y309717D02*
Y314835D01*
X543799Y332276D02*
X548917D01*
X546358Y329716D02*
Y334835D01*
X464089Y341202D02*
X467239D01*
X465664Y339628D02*
Y342777D01*
X464089Y349076D02*
X467239D01*
X465664Y347502D02*
Y350651D01*
X464089Y356950D02*
X467239D01*
X465664Y355376D02*
Y358525D01*
X456215Y356950D02*
X459365D01*
X457790Y355376D02*
Y358525D01*
X456215Y349076D02*
X459365D01*
X457790Y347502D02*
Y350651D01*
X456215Y341202D02*
X459365D01*
X457790Y339628D02*
Y342777D01*
X445655Y283862D02*
X449198D01*
X447427Y282091D02*
Y285634D01*
X455655Y283862D02*
X459198D01*
X457427Y282091D02*
Y285634D01*
X465655Y283862D02*
X469198D01*
X467427Y282091D02*
Y285634D01*
X475655Y283862D02*
X479198D01*
X477427Y282091D02*
Y285634D01*
X485655Y283862D02*
X489198D01*
X487427Y282091D02*
Y285634D01*
X495655Y283862D02*
X499198D01*
X497427Y282091D02*
Y285634D01*
X505655Y283862D02*
X509198D01*
X507427Y282091D02*
Y285634D01*
X515655Y283862D02*
X519198D01*
X517427Y282091D02*
Y285634D01*
X525655Y283862D02*
X529198D01*
X527427Y282091D02*
Y285634D01*
X535655Y283862D02*
X539198D01*
X537427Y282091D02*
Y285634D01*
X545655Y283862D02*
X549198D01*
X547427Y282091D02*
Y285634D01*
X555655Y283862D02*
X559198D01*
X557427Y282091D02*
Y285634D01*
X565655Y283862D02*
X569198D01*
X567427Y282091D02*
Y285634D01*
X575655Y283862D02*
X579198D01*
X577427Y282091D02*
Y285634D01*
X423862Y353665D02*
X436461D01*
X430161Y347366D02*
Y359965D01*
X423862Y290673D02*
X436461D01*
X430161Y284374D02*
Y296972D01*
X589217Y290673D02*
X601815D01*
X595516Y284374D02*
Y296972D01*
X589217Y353665D02*
X601815D01*
X595516Y347366D02*
Y359965D01*
X531627Y300676D02*
X533627D01*
X532627Y299676D02*
Y301676D01*
X505727Y318176D02*
X507727D01*
X506727Y317176D02*
Y319176D01*
X509527Y321476D02*
X511527D01*
X510527Y320476D02*
Y322476D01*
X530727Y356176D02*
X532727D01*
X531727Y355176D02*
Y357176D01*
X508727Y340676D02*
X510727D01*
X509727Y339676D02*
Y341676D01*
X531427Y320176D02*
X533427D01*
X532427Y319176D02*
Y321176D01*
X490627Y350376D02*
X492627D01*
X491627Y349376D02*
Y351376D01*
X545027Y343576D02*
X547027D01*
X546027Y342576D02*
Y344576D01*
X423727Y304876D02*
X425727D01*
X424727Y303876D02*
Y305876D01*
X445227Y359476D02*
X447227D01*
X446227Y358476D02*
Y360476D01*
X474927Y352276D02*
X476927D01*
X475927Y351276D02*
Y353276D01*
X446927Y337176D02*
X448927D01*
X447927Y336176D02*
Y338176D01*
X497427Y317076D02*
X499427D01*
X498427Y316076D02*
Y318076D01*
X492527Y337876D02*
X494527D01*
X493527Y336876D02*
Y338876D01*
X492527Y327876D02*
X494527D01*
X493527Y326876D02*
Y328876D01*
X540327Y304076D02*
X542327D01*
X541327Y303076D02*
Y305076D01*
X424427Y339276D02*
X426427D01*
X425427Y338276D02*
Y340276D01*
X455727Y301776D02*
X457727D01*
X456727Y300776D02*
Y302776D01*
X497427Y308476D02*
X499427D01*
X498427Y307476D02*
Y309476D01*
X471827Y298276D02*
X473827D01*
X472827Y297276D02*
Y299276D01*
X526827Y340576D02*
X528827D01*
X527827Y339576D02*
Y341576D01*
X492527Y332876D02*
X494527D01*
X493527Y331876D02*
Y333876D01*
X597091Y224925D02*
X599453D01*
X598272Y223744D02*
Y226106D01*
X583311Y243823D02*
X585673D01*
X584492Y242642D02*
Y245004D01*
X573468Y224925D02*
X575831D01*
X574650Y223744D02*
Y226106D01*
X543799Y227787D02*
X548917D01*
X546358Y225228D02*
Y230346D01*
X543799Y217787D02*
X548917D01*
X546358Y215228D02*
Y220346D01*
X543799Y237787D02*
X548917D01*
X546358Y235228D02*
Y240346D01*
X464089Y246714D02*
X467239D01*
X465664Y245139D02*
Y248289D01*
X464089Y254588D02*
X467239D01*
X465664Y253013D02*
Y256163D01*
X464089Y262462D02*
X467239D01*
X465664Y260887D02*
Y264037D01*
X456215Y262462D02*
X459365D01*
X457790Y260887D02*
Y264037D01*
X456215Y254588D02*
X459365D01*
X457790Y253013D02*
Y256163D01*
X456215Y246714D02*
X459365D01*
X457790Y245139D02*
Y248289D01*
X445655Y189374D02*
X449198D01*
X447427Y187602D02*
Y191146D01*
X455655Y189374D02*
X459198D01*
X457427Y187602D02*
Y191146D01*
X465655Y189374D02*
X469198D01*
X467427Y187602D02*
Y191146D01*
X475655Y189374D02*
X479198D01*
X477427Y187602D02*
Y191146D01*
X485655Y189374D02*
X489198D01*
X487427Y187602D02*
Y191146D01*
X495655Y189374D02*
X499198D01*
X497427Y187602D02*
Y191146D01*
X505655Y189374D02*
X509198D01*
X507427Y187602D02*
Y191146D01*
X515655Y189374D02*
X519198D01*
X517427Y187602D02*
Y191146D01*
X525655Y189374D02*
X529198D01*
X527427Y187602D02*
Y191146D01*
X535655Y189374D02*
X539198D01*
X537427Y187602D02*
Y191146D01*
X545655Y189374D02*
X549198D01*
X547427Y187602D02*
Y191146D01*
X555655Y189374D02*
X559198D01*
X557427Y187602D02*
Y191146D01*
X565655Y189374D02*
X569198D01*
X567427Y187602D02*
Y191146D01*
X575655Y189374D02*
X579198D01*
X577427Y187602D02*
Y191146D01*
X423862Y259177D02*
X436461D01*
X430161Y252878D02*
Y265476D01*
X423862Y196185D02*
X436461D01*
X430161Y189886D02*
Y202484D01*
X589217Y196185D02*
X601815D01*
X595516Y189886D02*
Y202484D01*
X589217Y259177D02*
X601815D01*
X595516Y252878D02*
Y265476D01*
X531627Y206188D02*
X533627D01*
X532627Y205188D02*
Y207188D01*
X505727Y223688D02*
X507727D01*
X506727Y222688D02*
Y224688D01*
X509527Y226988D02*
X511527D01*
X510527Y225988D02*
Y227988D01*
X530727Y261688D02*
X532727D01*
X531727Y260688D02*
Y262688D01*
X508727Y246188D02*
X510727D01*
X509727Y245188D02*
Y247188D01*
X531427Y225688D02*
X533427D01*
X532427Y224688D02*
Y226688D01*
X490627Y255888D02*
X492627D01*
X491627Y254888D02*
Y256888D01*
X545027Y249088D02*
X547027D01*
X546027Y248088D02*
Y250088D01*
X423727Y210388D02*
X425727D01*
X424727Y209388D02*
Y211388D01*
X445227Y264988D02*
X447227D01*
X446227Y263988D02*
Y265988D01*
X474927Y257788D02*
X476927D01*
X475927Y256788D02*
Y258788D01*
X446927Y242688D02*
X448927D01*
X447927Y241688D02*
Y243688D01*
X497427Y222588D02*
X499427D01*
X498427Y221588D02*
Y223588D01*
X492527Y243388D02*
X494527D01*
X493527Y242388D02*
Y244388D01*
X492527Y233388D02*
X494527D01*
X493527Y232388D02*
Y234388D01*
X540327Y209588D02*
X542327D01*
X541327Y208588D02*
Y210588D01*
X424427Y244788D02*
X426427D01*
X425427Y243788D02*
Y245788D01*
X455727Y207288D02*
X457727D01*
X456727Y206288D02*
Y208288D01*
X497427Y213988D02*
X499427D01*
X498427Y212988D02*
Y214988D01*
X471827Y203788D02*
X473827D01*
X472827Y202788D02*
Y204788D01*
X526827Y246088D02*
X528827D01*
X527827Y245088D02*
Y247088D01*
X492527Y238388D02*
X494527D01*
X493527Y237388D02*
Y239388D01*
X229374Y230437D02*
X231736D01*
X230555Y229256D02*
Y231618D01*
X243154Y211539D02*
X245516D01*
X244335Y210358D02*
Y212720D01*
X252996Y230437D02*
X255358D01*
X254177Y229256D02*
Y231618D01*
X279909Y227575D02*
X285028D01*
X282469Y225016D02*
Y230134D01*
X279909Y237575D02*
X285028D01*
X282469Y235016D02*
Y240134D01*
X279909Y217575D02*
X285028D01*
X282469Y215016D02*
Y220134D01*
X361588Y208648D02*
X364738D01*
X363163Y207073D02*
Y210223D01*
X361588Y200774D02*
X364738D01*
X363163Y199199D02*
Y202349D01*
X361588Y192900D02*
X364738D01*
X363163Y191325D02*
Y194475D01*
X369462Y192900D02*
X372612D01*
X371037Y191325D02*
Y194475D01*
X369462Y200774D02*
X372612D01*
X371037Y199199D02*
Y202349D01*
X369462Y208648D02*
X372612D01*
X371037Y207073D02*
Y210223D01*
X379628Y265988D02*
X383172D01*
X381400Y264216D02*
Y267760D01*
X369628Y265988D02*
X373172D01*
X371400Y264216D02*
Y267760D01*
X359628Y265988D02*
X363172D01*
X361400Y264216D02*
Y267760D01*
X349628Y265988D02*
X353172D01*
X351400Y264216D02*
Y267760D01*
X339628Y265988D02*
X343172D01*
X341400Y264216D02*
Y267760D01*
X329628Y265988D02*
X333172D01*
X331400Y264216D02*
Y267760D01*
X319628Y265988D02*
X323172D01*
X321400Y264216D02*
Y267760D01*
X309628Y265988D02*
X313172D01*
X311400Y264216D02*
Y267760D01*
X299628Y265988D02*
X303172D01*
X301400Y264216D02*
Y267760D01*
X289628Y265988D02*
X293172D01*
X291400Y264216D02*
Y267760D01*
X279628Y265988D02*
X283172D01*
X281400Y264216D02*
Y267760D01*
X269628Y265988D02*
X273172D01*
X271400Y264216D02*
Y267760D01*
X259628Y265988D02*
X263172D01*
X261400Y264216D02*
Y267760D01*
X249628Y265988D02*
X253172D01*
X251400Y264216D02*
Y267760D01*
X392366Y196185D02*
X404965D01*
X398665Y189886D02*
Y202484D01*
X392366Y259177D02*
X404965D01*
X398665Y252878D02*
Y265476D01*
X227012Y259177D02*
X239610D01*
X233311Y252878D02*
Y265476D01*
X227012Y196185D02*
X239610D01*
X233311Y189886D02*
Y202484D01*
X295200Y249174D02*
X297200D01*
X296200Y248174D02*
Y250174D01*
X321100Y231674D02*
X323100D01*
X322100Y230674D02*
Y232674D01*
X317300Y228374D02*
X319300D01*
X318300Y227374D02*
Y229374D01*
X296100Y193674D02*
X298100D01*
X297100Y192674D02*
Y194674D01*
X318100Y209174D02*
X320100D01*
X319100Y208174D02*
Y210174D01*
X295400Y229674D02*
X297400D01*
X296400Y228674D02*
Y230674D01*
X336200Y199474D02*
X338200D01*
X337200Y198474D02*
Y200474D01*
X281800Y206274D02*
X283800D01*
X282800Y205274D02*
Y207274D01*
X403100Y244974D02*
X405100D01*
X404100Y243974D02*
Y245974D01*
X381600Y190374D02*
X383600D01*
X382600Y189374D02*
Y191374D01*
X351900Y197574D02*
X353900D01*
X352900Y196574D02*
Y198574D01*
X379900Y212674D02*
X381900D01*
X380900Y211674D02*
Y213674D01*
X329400Y232774D02*
X331400D01*
X330400Y231774D02*
Y233774D01*
X334300Y211974D02*
X336300D01*
X335300Y210974D02*
Y212974D01*
X334300Y221974D02*
X336300D01*
X335300Y220974D02*
Y222974D01*
X286500Y245774D02*
X288500D01*
X287500Y244774D02*
Y246774D01*
X402400Y210574D02*
X404400D01*
X403400Y209574D02*
Y211574D01*
X371100Y248074D02*
X373100D01*
X372100Y247074D02*
Y249074D01*
X329400Y241374D02*
X331400D01*
X330400Y240374D02*
Y242374D01*
X355000Y251574D02*
X357000D01*
X356000Y250574D02*
Y252574D01*
X300000Y209274D02*
X302000D01*
X301000Y208274D02*
Y210274D01*
X334300Y216974D02*
X336300D01*
X335300Y215974D02*
Y217974D01*
X229374Y324925D02*
X231736D01*
X230555Y323744D02*
Y326106D01*
X243154Y306028D02*
X245516D01*
X244335Y304847D02*
Y307209D01*
X252996Y324925D02*
X255358D01*
X254177Y323744D02*
Y326106D01*
X279909Y322063D02*
X285028D01*
X282469Y319504D02*
Y324622D01*
X279909Y332063D02*
X285028D01*
X282469Y329504D02*
Y334622D01*
X279909Y312063D02*
X285028D01*
X282469Y309504D02*
Y314622D01*
X361588Y303136D02*
X364738D01*
X363163Y301561D02*
Y304711D01*
X361588Y295262D02*
X364738D01*
X363163Y293687D02*
Y296837D01*
X361588Y287388D02*
X364738D01*
X363163Y285813D02*
Y288963D01*
X369462Y287388D02*
X372612D01*
X371037Y285813D02*
Y288963D01*
X369462Y295262D02*
X372612D01*
X371037Y293687D02*
Y296837D01*
X369462Y303136D02*
X372612D01*
X371037Y301561D02*
Y304711D01*
X379628Y360476D02*
X383172D01*
X381400Y358705D02*
Y362248D01*
X369628Y360476D02*
X373172D01*
X371400Y358705D02*
Y362248D01*
X359628Y360476D02*
X363172D01*
X361400Y358705D02*
Y362248D01*
X349628Y360476D02*
X353172D01*
X351400Y358705D02*
Y362248D01*
X339628Y360476D02*
X343172D01*
X341400Y358705D02*
Y362248D01*
X329628Y360476D02*
X333172D01*
X331400Y358705D02*
Y362248D01*
X319628Y360476D02*
X323172D01*
X321400Y358705D02*
Y362248D01*
X309628Y360476D02*
X313172D01*
X311400Y358705D02*
Y362248D01*
X299628Y360476D02*
X303172D01*
X301400Y358705D02*
Y362248D01*
X289628Y360476D02*
X293172D01*
X291400Y358705D02*
Y362248D01*
X279628Y360476D02*
X283172D01*
X281400Y358705D02*
Y362248D01*
X269628Y360476D02*
X273172D01*
X271400Y358705D02*
Y362248D01*
X259628Y360476D02*
X263172D01*
X261400Y358705D02*
Y362248D01*
X249628Y360476D02*
X253172D01*
X251400Y358705D02*
Y362248D01*
X392366Y290673D02*
X404965D01*
X398665Y284374D02*
Y296972D01*
X392366Y353665D02*
X404965D01*
X398665Y347366D02*
Y359965D01*
X227012Y353665D02*
X239610D01*
X233311Y347366D02*
Y359965D01*
X227012Y290673D02*
X239610D01*
X233311Y284374D02*
Y296972D01*
X295200Y343662D02*
X297200D01*
X296200Y342662D02*
Y344662D01*
X321100Y326162D02*
X323100D01*
X322100Y325162D02*
Y327162D01*
X317300Y322862D02*
X319300D01*
X318300Y321862D02*
Y323862D01*
X296100Y288162D02*
X298100D01*
X297100Y287162D02*
Y289162D01*
X318100Y303662D02*
X320100D01*
X319100Y302662D02*
Y304662D01*
X295400Y324162D02*
X297400D01*
X296400Y323162D02*
Y325162D01*
X336200Y293962D02*
X338200D01*
X337200Y292962D02*
Y294962D01*
X281800Y300762D02*
X283800D01*
X282800Y299762D02*
Y301762D01*
X403100Y339462D02*
X405100D01*
X404100Y338462D02*
Y340462D01*
X381600Y284862D02*
X383600D01*
X382600Y283862D02*
Y285862D01*
X351900Y292062D02*
X353900D01*
X352900Y291062D02*
Y293062D01*
X379900Y307162D02*
X381900D01*
X380900Y306162D02*
Y308162D01*
X329400Y327262D02*
X331400D01*
X330400Y326262D02*
Y328262D01*
X334300Y306462D02*
X336300D01*
X335300Y305462D02*
Y307462D01*
X334300Y316462D02*
X336300D01*
X335300Y315462D02*
Y317462D01*
X286500Y340262D02*
X288500D01*
X287500Y339262D02*
Y341262D01*
X402400Y305062D02*
X404400D01*
X403400Y304062D02*
Y306062D01*
X371100Y342562D02*
X373100D01*
X372100Y341562D02*
Y343562D01*
X329400Y335862D02*
X331400D01*
X330400Y334862D02*
Y336862D01*
X355000Y346062D02*
X357000D01*
X356000Y345062D02*
Y347062D01*
X300000Y303762D02*
X302000D01*
X301000Y302762D02*
Y304762D01*
X334300Y311462D02*
X336300D01*
X335300Y310462D02*
Y312462D01*
X229374Y419413D02*
X231736D01*
X230555Y418232D02*
Y420595D01*
X243154Y400516D02*
X245516D01*
X244335Y399335D02*
Y401697D01*
X252996Y419413D02*
X255358D01*
X254177Y418232D02*
Y420595D01*
X279909Y416551D02*
X285028D01*
X282469Y413992D02*
Y419110D01*
X279909Y426551D02*
X285028D01*
X282469Y423992D02*
Y429110D01*
X279909Y406551D02*
X285028D01*
X282469Y403992D02*
Y409110D01*
X361588Y397624D02*
X364738D01*
X363163Y396050D02*
Y399199D01*
X361588Y389750D02*
X364738D01*
X363163Y388176D02*
Y391325D01*
X361588Y381876D02*
X364738D01*
X363163Y380302D02*
Y383451D01*
X369462Y381876D02*
X372612D01*
X371037Y380302D02*
Y383451D01*
X369462Y389750D02*
X372612D01*
X371037Y388176D02*
Y391325D01*
X369462Y397624D02*
X372612D01*
X371037Y396050D02*
Y399199D01*
X379628Y454965D02*
X383172D01*
X381400Y453193D02*
Y456736D01*
X369628Y454965D02*
X373172D01*
X371400Y453193D02*
Y456736D01*
X359628Y454965D02*
X363172D01*
X361400Y453193D02*
Y456736D01*
X349628Y454965D02*
X353172D01*
X351400Y453193D02*
Y456736D01*
X339628Y454965D02*
X343172D01*
X341400Y453193D02*
Y456736D01*
X329628Y454965D02*
X333172D01*
X331400Y453193D02*
Y456736D01*
X319628Y454965D02*
X323172D01*
X321400Y453193D02*
Y456736D01*
X309628Y454965D02*
X313172D01*
X311400Y453193D02*
Y456736D01*
X299628Y454965D02*
X303172D01*
X301400Y453193D02*
Y456736D01*
X289628Y454965D02*
X293172D01*
X291400Y453193D02*
Y456736D01*
X279628Y454965D02*
X283172D01*
X281400Y453193D02*
Y456736D01*
X269628Y454965D02*
X273172D01*
X271400Y453193D02*
Y456736D01*
X259628Y454965D02*
X263172D01*
X261400Y453193D02*
Y456736D01*
X249628Y454965D02*
X253172D01*
X251400Y453193D02*
Y456736D01*
X392366Y385161D02*
X404965D01*
X398665Y378862D02*
Y391461D01*
X392366Y448153D02*
X404965D01*
X398665Y441854D02*
Y454453D01*
X227012Y448153D02*
X239610D01*
X233311Y441854D02*
Y454453D01*
X227012Y385161D02*
X239610D01*
X233311Y378862D02*
Y391461D01*
X295200Y438150D02*
X297200D01*
X296200Y437150D02*
Y439150D01*
X321100Y420650D02*
X323100D01*
X322100Y419650D02*
Y421650D01*
X317300Y417350D02*
X319300D01*
X318300Y416350D02*
Y418350D01*
X296100Y382650D02*
X298100D01*
X297100Y381650D02*
Y383650D01*
X318100Y398150D02*
X320100D01*
X319100Y397150D02*
Y399150D01*
X295400Y418650D02*
X297400D01*
X296400Y417650D02*
Y419650D01*
X336200Y388450D02*
X338200D01*
X337200Y387450D02*
Y389450D01*
X281800Y395250D02*
X283800D01*
X282800Y394250D02*
Y396250D01*
X403100Y433950D02*
X405100D01*
X404100Y432950D02*
Y434950D01*
X381600Y379350D02*
X383600D01*
X382600Y378350D02*
Y380350D01*
X351900Y386550D02*
X353900D01*
X352900Y385550D02*
Y387550D01*
X379900Y401650D02*
X381900D01*
X380900Y400650D02*
Y402650D01*
X329400Y421750D02*
X331400D01*
X330400Y420750D02*
Y422750D01*
X334300Y400950D02*
X336300D01*
X335300Y399950D02*
Y401950D01*
X334300Y410950D02*
X336300D01*
X335300Y409950D02*
Y411950D01*
X286500Y434750D02*
X288500D01*
X287500Y433750D02*
Y435750D01*
X402400Y399550D02*
X404400D01*
X403400Y398550D02*
Y400550D01*
X371100Y437050D02*
X373100D01*
X372100Y436050D02*
Y438050D01*
X329400Y430350D02*
X331400D01*
X330400Y429350D02*
Y431350D01*
X355000Y440550D02*
X357000D01*
X356000Y439550D02*
Y441550D01*
X300000Y398250D02*
X302000D01*
X301000Y397250D02*
Y399250D01*
X334300Y405950D02*
X336300D01*
X335300Y404950D02*
Y406950D01*
X229374Y513902D02*
X231736D01*
X230555Y512720D02*
Y515083D01*
X243154Y495004D02*
X245516D01*
X244335Y493823D02*
Y496185D01*
X252996Y513902D02*
X255358D01*
X254177Y512720D02*
Y515083D01*
X279909Y511039D02*
X285028D01*
X282469Y508480D02*
Y513598D01*
X279909Y521039D02*
X285028D01*
X282469Y518480D02*
Y523598D01*
X279909Y501039D02*
X285028D01*
X282469Y498480D02*
Y503598D01*
X361588Y492113D02*
X364738D01*
X363163Y490538D02*
Y493687D01*
X361588Y484239D02*
X364738D01*
X363163Y482664D02*
Y485813D01*
X361588Y476365D02*
X364738D01*
X363163Y474790D02*
Y477939D01*
X369462Y476365D02*
X372612D01*
X371037Y474790D02*
Y477939D01*
X369462Y484239D02*
X372612D01*
X371037Y482664D02*
Y485813D01*
X369462Y492113D02*
X372612D01*
X371037Y490538D02*
Y493687D01*
X379628Y549453D02*
X383172D01*
X381400Y547681D02*
Y551224D01*
X369628Y549453D02*
X373172D01*
X371400Y547681D02*
Y551224D01*
X359628Y549453D02*
X363172D01*
X361400Y547681D02*
Y551224D01*
X349628Y549453D02*
X353172D01*
X351400Y547681D02*
Y551224D01*
X339628Y549453D02*
X343172D01*
X341400Y547681D02*
Y551224D01*
X329628Y549453D02*
X333172D01*
X331400Y547681D02*
Y551224D01*
X319628Y549453D02*
X323172D01*
X321400Y547681D02*
Y551224D01*
X309628Y549453D02*
X313172D01*
X311400Y547681D02*
Y551224D01*
X299628Y549453D02*
X303172D01*
X301400Y547681D02*
Y551224D01*
X289628Y549453D02*
X293172D01*
X291400Y547681D02*
Y551224D01*
X279628Y549453D02*
X283172D01*
X281400Y547681D02*
Y551224D01*
X269628Y549453D02*
X273172D01*
X271400Y547681D02*
Y551224D01*
X259628Y549453D02*
X263172D01*
X261400Y547681D02*
Y551224D01*
X249628Y549453D02*
X253172D01*
X251400Y547681D02*
Y551224D01*
X392366Y479650D02*
X404965D01*
X398665Y473350D02*
Y485949D01*
X392366Y542642D02*
X404965D01*
X398665Y536342D02*
Y548941D01*
X227012Y542642D02*
X239610D01*
X233311Y536342D02*
Y548941D01*
X227012Y479650D02*
X239610D01*
X233311Y473350D02*
Y485949D01*
X295200Y532639D02*
X297200D01*
X296200Y531639D02*
Y533639D01*
X321100Y515139D02*
X323100D01*
X322100Y514139D02*
Y516139D01*
X317300Y511839D02*
X319300D01*
X318300Y510839D02*
Y512839D01*
X296100Y477139D02*
X298100D01*
X297100Y476139D02*
Y478139D01*
X318100Y492639D02*
X320100D01*
X319100Y491639D02*
Y493639D01*
X295400Y513139D02*
X297400D01*
X296400Y512139D02*
Y514139D01*
X336200Y482939D02*
X338200D01*
X337200Y481939D02*
Y483939D01*
X281800Y489739D02*
X283800D01*
X282800Y488739D02*
Y490739D01*
X403100Y528439D02*
X405100D01*
X404100Y527439D02*
Y529439D01*
X381600Y473839D02*
X383600D01*
X382600Y472839D02*
Y474839D01*
X351900Y481039D02*
X353900D01*
X352900Y480039D02*
Y482039D01*
X379900Y496139D02*
X381900D01*
X380900Y495139D02*
Y497139D01*
X329400Y516239D02*
X331400D01*
X330400Y515239D02*
Y517239D01*
X334300Y495439D02*
X336300D01*
X335300Y494439D02*
Y496439D01*
X334300Y505439D02*
X336300D01*
X335300Y504439D02*
Y506439D01*
X286500Y529239D02*
X288500D01*
X287500Y528239D02*
Y530239D01*
X402400Y494039D02*
X404400D01*
X403400Y493039D02*
Y495039D01*
X371100Y531539D02*
X373100D01*
X372100Y530539D02*
Y532539D01*
X329400Y524839D02*
X331400D01*
X330400Y523839D02*
Y525839D01*
X355000Y535039D02*
X357000D01*
X356000Y534039D02*
Y536039D01*
X300000Y492739D02*
X302000D01*
X301000Y491739D02*
Y493739D01*
X334300Y500439D02*
X336300D01*
X335300Y499439D02*
Y501439D01*
M02*
