M48
;Layer_Color=9474304
;FILE_FORMAT=2:5
INCH,TZ
;TYPE=NON_PLATED
T6F00S00C0.12598
%
T06
X595516Y196185
Y259177
Y290673
X430161
Y259177
X398665
Y290673
Y196185
X430161
X233311
Y259177
Y290673
Y353665
Y385161
Y448153
X398665
X430161
Y385161
Y353665
X398665
Y385161
X595516
Y353665
Y448153
Y479650
Y542642
X430161
X398665
Y479650
X430161
X233311
Y542642
M30
